<svg xmlns="http://www.w3.org/2000/svg" viewBox="0 0 28.11 28.11"><defs><style>.cls-1{fill:none;stroke:#1e1e1e;stroke-miterlimit:10;stroke-width:0.5px;}.cls-2{fill:#1e1e1e;}</style></defs><title>Asset 8</title><g id="Layer_2" data-name="Layer 2"><g id="Layer_2-2" data-name="Layer 2"><path class="cls-1" d="M27.27.25H.84A.56.56,0,0,0,.25.84V27.27a.56.56,0,0,0,.59.59H14.05a.54.54,0,0,0,.59-.53V22.16a.55.55,0,0,0-.59-.58H12.94a.6.6,0,0,0-.53.29,2.23,2.23,0,0,1-2,1.18,2.35,2.35,0,0,1,0-4.7,2.21,2.21,0,0,1,2,1.18.64.64,0,0,0,.53.29h1.11a.56.56,0,0,0,.59-.59V14.65h4v.29a3.37,3.37,0,0,0-1.47,2.82,3.53,3.53,0,0,0,3.52,3.52,3.46,3.46,0,0,0,3.47-3.58,3.41,3.41,0,0,0-1.47-2.82v-.24h4.59a.55.55,0,0,0,.58-.59V.84a.56.56,0,0,0-.59-.59ZM13.47,18.58h-.24a3.42,3.42,0,0,0-2.82-1.47,3.53,3.53,0,1,0,0,7.05,3.41,3.41,0,0,0,2.82-1.46h.24v4h-12v-12H6a.56.56,0,0,0,.59-.59V12.94a.61.61,0,0,0-.3-.53,2.22,2.22,0,0,1-1.17-2,2.35,2.35,0,0,1,4.69,0,2.22,2.22,0,0,1-1.17,2,.63.63,0,0,0-.3.53v1.11a.56.56,0,0,0,.59.59h4.59Zm13.27-5.11H22.16a.55.55,0,0,0-.59.58v1.12a.63.63,0,0,0,.29.53,2.21,2.21,0,0,1,1.18,2,2.35,2.35,0,1,1-4.7,0,2.23,2.23,0,0,1,1.18-2,.63.63,0,0,0,.3-.53V14.05a.55.55,0,0,0-.59-.58H14.64V9.53h.24A3.41,3.41,0,0,0,17.7,11a3.53,3.53,0,0,0,0-7,3.4,3.4,0,0,0-2.82,1.46h-.24v-4h12.1v12Z"/><path class="cls-2" d="M17.69,5.07a2.35,2.35,0,0,1,0,4.7,2.26,2.26,0,0,1-2-1.18.61.61,0,0,0-.52-.3H14.05a.56.56,0,0,0-.59.59v4.59H9.53v-.24A3.41,3.41,0,0,0,11,10.41a3.53,3.53,0,0,0-7.06,0,3.41,3.41,0,0,0,1.47,2.82v.24h-4v-12h12V6a.56.56,0,0,0,.59.59h1.12a.61.61,0,0,0,.52-.29A2.24,2.24,0,0,1,17.69,5.07Z"/><path class="cls-1" d="M13.46,1.43V6a.56.56,0,0,0,.59.59h1.12a.61.61,0,0,0,.52-.29,2.24,2.24,0,0,1,2-1.18,2.35,2.35,0,0,1,0,4.7,2.26,2.26,0,0,1-2-1.18.61.61,0,0,0-.52-.3H14.05a.56.56,0,0,0-.59.59v4.59H9.53v-.24A3.41,3.41,0,0,0,11,10.41a3.53,3.53,0,0,0-7.06,0,3.41,3.41,0,0,0,1.47,2.82v.24h-4v-12Z"/></g></g></svg>