<svg xmlns="http://www.w3.org/2000/svg" viewBox="0 0 42.85 45.23"><defs><style>.cls-1{fill:none;stroke:#1e1e1e;stroke-miterlimit:10;stroke-width:0.5px;}</style></defs><title>Asset 9</title><g id="Layer_2" data-name="Layer 2"><g id="Layer_2-2" data-name="Layer 2"><path class="cls-1" d="M26.34,32.21c.13-.88.85-3,1.26-4.43a1.7,1.7,0,0,1-.44-.05,1.49,1.49,0,0,1-.78-.49,1.5,1.5,0,0,1-.91-.13,1.52,1.52,0,0,1-.69-.61,1.59,1.59,0,0,1-.88-.29,1.73,1.73,0,0,1-.28-.26c.11,1.64.18,3.12.2,3.57.06,1.11-.61,3.71-.38,4.79s1.93,4.08,2,4.59-.48.72-.75,1a.74.74,0,0,0,0,1c.22.25.82.48,1,1a11.29,11.29,0,0,1-.14,2.84c0,.48.61.34.83,0a8.6,8.6,0,0,0,1.24-2.94,12.35,12.35,0,0,0-.48-2.86A53.13,53.13,0,0,1,26.34,32.21Z"/><path class="cls-1" d="M19.83,15.19l-2-.59C15.49,14,7,12.27,6.18,12.12a4.82,4.82,0,0,1-1.55-.64c-.3-.17-2.36-2.5-3.28-2.57S0,9.67.38,10.12A13.27,13.27,0,0,0,3.49,12.7c.8.28,1.36.46,2.21.73.61.2,9,3.32,13.86,5.32a.45.45,0,0,1,0-.11,1.58,1.58,0,0,1,.19-.91,1.53,1.53,0,0,1-.19-.9,1.6,1.6,0,0,1,.35-.86A1.48,1.48,0,0,1,19.83,15.19Z"/><path class="cls-1" d="M42.35.28a7.37,7.37,0,0,0-3.9,1.41c-.6.69-4.23,8.32-4.79,9.39,0-.26-.71-1.08-.48-1.51s1.34-1.13,1.41-1.4-.76-.93-.66-1.13.29-.36.17-.51-1-.14-1.2-.31l-1.14-.9a3.6,3.6,0,0,0-2.83.55,3.6,3.6,0,0,0-1,1.73c-.08.24-.4.26-.45.55s.74,1.24,1,1.35,1.44.8,1.71,1,0,.36-.22.24S19.52,4,18.82,3.56s-4.54-.26-5,0S15.4,5.11,15.92,5s1.71-.7,2.07-.48,9.66,7.75,10,8.28a5.37,5.37,0,0,1,.31,3.11.54.54,0,0,1-.34.21c-1.87-1.64-4.52-3.93-4.78-4.12a.91.91,0,0,0-1.25.22.86.86,0,0,0,0,1,.9.9,0,0,0-.8.51.89.89,0,0,0,.12.94.9.9,0,0,0-.7.64.91.91,0,0,0,.29.91.9.9,0,0,0-.58.75.89.89,0,0,0,.44.84.89.89,0,0,0-.44.84.9.9,0,0,0,.58.76.88.88,0,0,0,.41,1.54.89.89,0,0,0-.12.94.91.91,0,0,0,.8.52.88.88,0,0,0,.91,1.31.9.9,0,0,0,.21.92.88.88,0,0,0,.92.2.89.89,0,0,0,1.32.92.89.89,0,0,0,1.45.68.91.91,0,0,0,.64.7.89.89,0,0,0,.9-.29.9.9,0,0,0,.76.58.89.89,0,0,0,.84-.44.89.89,0,0,0,.84.44.9.9,0,0,0,.75-.58.91.91,0,0,0,.91.29.93.93,0,0,0,.64-.7.89.89,0,0,0,1.45-.68.91.91,0,0,0,1,0,.92.92,0,0,0,.22-1.26c-.19-.26-2.66-3.09-4.3-5a28.53,28.53,0,0,0,4-3.45c.33-.85-.16-2.14-.21-2.8S39.31,2.83,39.53,2.28,41.26,2.37,42,2,42.8.49,42.35.28Z"/></g></g></svg>