<svg xmlns="http://www.w3.org/2000/svg" viewBox="0 0 41.07 29.11"><defs><style>.cls-1{fill:none;stroke:#1e1e1e;stroke-miterlimit:10;stroke-width:0.5px;}</style></defs><title>Asset 2</title><g id="Layer_2" data-name="Layer 2"><g id="Layer_2-2" data-name="Layer 2"><path class="cls-1" d="M31.4,9.69C28,8.4,22.86,4.6,22.86,4.6S19.48,14,19,17.27s1,9.66,5.16,11.23,9.46-2.36,11.2-5.12,5.38-12.1,5.38-12.1S34.92,11,31.4,9.69ZM27,18.33a.11.11,0,0,1,.14.05,1,1,0,0,0,1.32.49.1.1,0,0,1,.13.06.09.09,0,0,1,0,.13,1.18,1.18,0,0,1-.92,0,1.19,1.19,0,0,1-.67-.62A.11.11,0,0,1,27,18.33ZM23.92,9.88c.18,0,.39,0,.62,0l.71,0L26,10c.23,0,.44.06.62.1a4.42,4.42,0,0,1,.59.14s-.24,0-.61,0h-.62l-.71,0-.7-.07c-.23,0-.44-.06-.62-.1a5.87,5.87,0,0,1-.59-.13A4.9,4.9,0,0,1,23.92,9.88Zm-1.28,2.64c.18-.5,1.16-.59,2.17-.21s1.69,1.09,1.5,1.59-1.16.59-2.18.21S22.45,13,22.64,12.52Zm7.54,12.26a.7.7,0,0,1-.55,0,.69.69,0,0,1-.4-.37,4.79,4.79,0,0,0-6.34-2.37.72.72,0,0,1-.59-1.31,6.23,6.23,0,0,1,8.24,3.08A.72.72,0,0,1,30.18,24.78Zm3.73-7c-1-.38-1.69-1.09-1.5-1.59s1.16-.6,2.17-.22,1.69,1.1,1.5,1.59S34.92,18.15,33.91,17.77Zm2.83-2.9-.53-.33-.58-.41-.55-.44-.47-.41a5.5,5.5,0,0,1-.43-.44,4.86,4.86,0,0,1,.54.29c.16.09.34.2.53.33l.58.41c.19.14.38.29.55.44a5.11,5.11,0,0,1,.47.41c.27.25.43.43.43.43A5.81,5.81,0,0,1,36.74,14.87Z"/><path class="cls-1" d="M21.29,9.16C19.87,5.28,17.78.42,17.78.42S13.45,4.29,10,5.82.37,8.19.37,8.19,4.56,17.26,6.5,19.94s7.47,6.2,11.55,4.38a5.59,5.59,0,0,0,1.64-1.11M13,15.07a.1.1,0,0,1,.13-.06,1,1,0,0,0,1.29-.57.1.1,0,0,1,.13-.06.1.1,0,0,1,.06.13A1.19,1.19,0,0,1,13,15.2.1.1,0,0,1,13,15.07ZM4.83,11.21a4.56,4.56,0,0,1,.44-.44c.16-.16.34-.32.52-.47l.56-.45.5-.36c.3-.2.52-.32.52-.32a5.52,5.52,0,0,1-.4.46l-.44.44c-.16.15-.34.32-.53.47s-.37.31-.55.45l-.5.36c-.3.2-.52.32-.52.32A5.52,5.52,0,0,1,4.83,11.21ZM5.77,14c-.22-.49.41-1.24,1.4-1.68s2-.41,2.18.08S8.94,13.63,8,14.07,6,14.48,5.77,14ZM19,15.8a6.21,6.21,0,0,1-8,3.59.72.72,0,1,1,.52-1.34,4.78,4.78,0,0,0,6.17-2.76.72.72,0,0,1,.93-.41A.71.71,0,0,1,19,15.8Zm-1.54-6c-1,.44-2,.4-2.18-.08s.41-1.24,1.39-1.68,2-.41,2.19.08S18.47,9.38,17.48,9.82Zm0-4.06c-.18,0-.38.09-.6.13s-.47.09-.7.12l-.71.08-.62,0c-.36,0-.61,0-.61,0s.23-.08.59-.17c.17-.05.38-.09.6-.13s.46-.09.7-.12l.71-.08.62,0c.36,0,.61,0,.61,0S17.81,5.67,17.46,5.76Z"/></g></g></svg>