<svg xmlns="http://www.w3.org/2000/svg" viewBox="0 0 37.46 53.29"><defs><style>.cls-1{fill:none;stroke:#1e1e1e;stroke-miterlimit:10;stroke-width:0.5px;}</style></defs><title>Asset 7</title><g id="Layer_2" data-name="Layer 2"><g id="Layer_2-2" data-name="Layer 2"><path class="cls-1" d="M37.06,48c-.28,0-.21.36-.28,0s.14-.57,0-.64,0,.14-.36-.07-.43-.29-.5-.43-.5-.29-.5-.29a6.28,6.28,0,0,0-.65-.21A1.87,1.87,0,0,1,34.2,46a4.27,4.27,0,0,0-.78-.5s-.36-.72-.58-1.07S31.27,42.6,31.27,42s-.72-7.59-.79-9.09a18.72,18.72,0,0,0-.43-2.79c0-.21,0,.43-.07-.57a8.61,8.61,0,0,0-.14-1.43c-.07-.29-.14-.93-.14-.93a28.55,28.55,0,0,1-.36-3.93,7.33,7.33,0,0,0-1.22-5.58c.57-.08.72-.22.86-.43s.86-1.58,1-1.79a7.61,7.61,0,0,0,1.29-2.86c.07-1.07.21-1.07-.36-1.36S27,8.19,27,8.19a11.09,11.09,0,0,0-2-1.28A5.75,5.75,0,0,0,23.62,7s0-.29.07-.36.07-.14.14-.22.29-.07.22-.21.28,0,.21-.14-.07-.36,0-.36.57.07.5-.14a3.24,3.24,0,0,1-.14-1.15c.07-.21.43-.43.43-.64v-1s.57-.22.07-.86S23.54.18,22.54.25s-2,.36-2.29,1.08-.42.85-.42,1.21c-.51,0-1.36.72-1.36,1.22s-.08,1.57,1.39,1.68c0,0,.29,1.22-.21,1.72s-1.72,2-1.72,2a1.53,1.53,0,0,0-.54.61A5.66,5.66,0,0,0,17.64,12c.22.28,1.51,2.5,2.51,3.93s1.43,1.43,1.14,2.79-.64,3.51.07,5,1.36,2.07,1.08,2.72-2.22,6.72-2.94,7.72a8.71,8.71,0,0,0-1.07,2.15l-.5.93-.14.28s-1.76,3.69-2,4.26-1,2.36-1.43,2.58a16.56,16.56,0,0,1-2,.42c-.5.15-.78.22-1.07.29s-.28,0-.64,0,0-.29-.5,0-1.65.14-2.22.36-1.43-.07-2.22.28A5.86,5.86,0,0,1,4,46c-.15.07-.36,0-.58.22s-1.14.35-1.28.43a5.41,5.41,0,0,0-.79.57c-.36.28-.71.28-.79.71s.15.36,0,.58l-.14.21s-.43,0,0,.29.79.28.72.5-.43,0,.07.28.57.15.71.22a1.76,1.76,0,0,1,.36.28s-.43-.07.22.29A2.33,2.33,0,0,0,4.23,51,2.46,2.46,0,0,1,6,51.47a1.32,1.32,0,0,0,1.22.28c.64-.07.28-.35,1.14-.21s.72-.07,1.14.21.29.22.65.29,1.64.07,1.72-.14.07-.29.28-.15-.07.36.36.36.5.15.79,0a.92.92,0,0,1,.85-.07c.29.14.22.43.93.36a1.66,1.66,0,0,1,1.15.14.85.85,0,0,0,.86.07,1.51,1.51,0,0,0,.78-.43c.29-.21.22-.5.43-.28s-.07.14.29.36.07.28.64.21A8.76,8.76,0,0,0,20.54,52a.47.47,0,0,1,.5.14l.07.22.57.14a10.4,10.4,0,0,0,2.37.22,3.29,3.29,0,0,1,1.5,0c.57.07.28.42,1.14.21s1.65-.14,1.65-.36.57-.43.71-.35.15.21.43.07l.43-.22V52a1.88,1.88,0,0,1,1,.29c.36.28,1.15.5,1.36.28s.29-.5.43-.5,0-.21.29-.07a1.45,1.45,0,0,0,.93.07c.21-.07.57-.21.57-.36a.38.38,0,0,1,.36-.35c.21,0,.71,0,.85-.22s.36-.07.22-.43-.14-.5-.22-.5.29-.29.29-.36,0,.07.43,0,.5-.14.43-.35-.43-.08-.14-.36.28.14.35-.36S37.35,48,37.06,48ZM22.58,7.08A.84.84,0,0,1,22,6.8a.22.22,0,0,1,.07-.14c.07-.08.14-.15.36,0s.64.35.64.35S23,7.16,22.58,7.08Zm5,9c0-.07-.21-.21-.21-.21s-.36-.15-.43-.29a3.19,3.19,0,0,0-.57-.5s-.29,0-.36-.14-.22-1.15-.29-1.43a1.17,1.17,0,0,1,.22-.86,2.15,2.15,0,0,0,.14-1.29C26.05,10.7,25,9.7,25,9.7a13.28,13.28,0,0,1,3.07,1.78,5,5,0,0,1,1.36,1.15c-.14.28-.36,1.14-.57,1.86a8,8,0,0,1-1,1.93C27.69,16.56,27.62,16.13,27.62,16.06Z"/></g></g></svg>