<svg xmlns="http://www.w3.org/2000/svg" viewBox="0 0 39.54 39.54"><defs><style>.cls-1{opacity:0.9;}.cls-2{fill:none;stroke:#1e1e1e;stroke-miterlimit:10;stroke-width:0.5px;}</style></defs><title>Asset 1</title><g id="Layer_2" data-name="Layer 2"><g id="Layer_2-2" data-name="Layer 2"><g class="cls-1"><path class="cls-2" d="M15.22,26.92H12.61v-2.6a.65.65,0,0,0-.65-.65H9.36a.65.65,0,0,0-.65.65v2.6H6.11a.66.66,0,0,0-.65.66v2.6a.65.65,0,0,0,.65.65h2.6v2.6a.65.65,0,0,0,.65.65H12a.65.65,0,0,0,.65-.65v-2.6h2.61a.65.65,0,0,0,.65-.65v-2.6A.66.66,0,0,0,15.22,26.92Zm-.65,2.61H12a.65.65,0,0,0-.65.65v2.6H10v-2.6a.65.65,0,0,0-.65-.65H6.76v-1.3h2.6a.66.66,0,0,0,.65-.65V25h1.3v2.61a.66.66,0,0,0,.65.65h2.61Z"/><path class="cls-2" d="M39.22,27.69A11,11,0,0,0,30,18.53a11.07,11.07,0,0,0-1.15-.06H21.72V15.86h-1.3v-1.3a2.6,2.6,0,0,0-2.6-2.6H14.57a1.3,1.3,0,1,1,0-2.6H25a2.61,2.61,0,0,0,0-5.21H21.72a1.3,1.3,0,0,1-1.3-1.3V.25h-1.3v2.6a2.6,2.6,0,0,0,2.6,2.6H25a1.31,1.31,0,0,1,0,2.61H14.57a2.6,2.6,0,1,0,0,5.2h3.25a1.3,1.3,0,0,1,1.3,1.3v1.3h-1.3v2.61H10.66a11.07,11.07,0,0,0-1.15.06A11,11,0,0,0,.32,27.69a10.4,10.4,0,0,0,15.82,10,6.37,6.37,0,0,1,2.86-1,9.52,9.52,0,0,1,1.51,0,6.44,6.44,0,0,1,2.9,1,10.4,10.4,0,0,0,15.81-10ZM19.12,17.17h1.3v1.3h-1.3ZM35.67,35A9.09,9.09,0,0,1,24.1,36.62a7.8,7.8,0,0,0-3.5-1.21c-.27,0-.55,0-.83,0a8.64,8.64,0,0,0-.88,0,7.76,7.76,0,0,0-3.44,1.2A9.11,9.11,0,0,1,1.61,27.84a9.75,9.75,0,0,1,8-8,8.68,8.68,0,0,1,1-.06H28.88c.34,0,.67,0,1,.05a9.77,9.77,0,0,1,8,8A9.05,9.05,0,0,1,35.67,35Z"/><path class="cls-2" d="M28.88,22.37a2.61,2.61,0,1,0,2.6,2.6A2.6,2.6,0,0,0,28.88,22.37Zm0,3.9a1.3,1.3,0,1,1,1.3-1.3A1.3,1.3,0,0,1,28.88,26.27Z"/><path class="cls-2" d="M28.88,30.18a2.6,2.6,0,1,0,2.6,2.6A2.59,2.59,0,0,0,28.88,30.18Zm0,3.9a1.3,1.3,0,1,1,1.3-1.3A1.3,1.3,0,0,1,28.88,34.08Z"/><path class="cls-2" d="M24.32,26.27a2.61,2.61,0,1,0,2.61,2.61A2.61,2.61,0,0,0,24.32,26.27Zm0,3.91a1.3,1.3,0,1,1,1.31-1.3A1.3,1.3,0,0,1,24.32,30.18Z"/><path class="cls-2" d="M33.43,26.27A2.61,2.61,0,1,0,36,28.88,2.61,2.61,0,0,0,33.43,26.27Zm0,3.91a1.3,1.3,0,1,1,1.3-1.3A1.3,1.3,0,0,1,33.43,30.18Z"/></g></g></g></svg>