<svg xmlns="http://www.w3.org/2000/svg" viewBox="0 0 34.08 34.93"><defs><style>.cls-1{fill:none;stroke:#000;stroke-miterlimit:10;stroke-width:0.5px;}</style></defs><title>Asset 10</title><g id="Layer_2" data-name="Layer 2"><g id="Layer_2-2" data-name="Layer 2"><path class="cls-1" d="M33.82,20.32a.78.78,0,0,0,0-.14A.87.87,0,0,0,33.7,20l0,0a.67.67,0,0,0-.57-.3h0c-3-.22-6.1-.29-9.26-.25,0-3.37-.05-6.74-.17-10.1a23.68,23.68,0,0,1,7.25.43.7.7,0,0,0,.68-1.16c-1.64-1.56-5-1.43-8-1.08Q23.42,4.23,23.21,1A.76.76,0,0,0,21.7,1c-.14,2.25-.19,4.52-.21,6.8-.76.1-1.45.19-2,.24-3.22.27-6.44.34-9.66.47a6.87,6.87,0,0,0-1.07-4.2A.54.54,0,0,0,8,4.16,2.83,2.83,0,0,0,6.26,1.93,2.68,2.68,0,0,0,3,3.49a2.57,2.57,0,0,0,.37,4.15C5,8.6,7,7.41,7.71,5.84c.1.91.18,1.81.23,2.72-2.16.07-5,.17-6.61,1.22a.49.49,0,0,0,0,.84l.26.14a.18.18,0,0,0,.25-.07c.28-.43,4.29-.51,6.16-.53.09,3.53-.12,7.1-.21,10.66-2.39.4-4.74.89-7,1.48-.51.13-.42,1,.12.94,2.28-.26,4.56-.46,6.83-.62a46.14,46.14,0,0,0,1,11.5c.24,1,1.71.56,1.52-.42a56.57,56.57,0,0,1-.78-11.21c4.11-.27,8.21-.43,12.31-.6.17,3.6.36,7.2.49,10.75a.64.64,0,0,0,1.28,0c.12-3.58.19-7.21.21-10.84,3.08-.13,6.16-.28,9.25-.5h0a.69.69,0,0,0,.57-.3l0,0a.87.87,0,0,0,.07-.17.78.78,0,0,0,0-.14.86.86,0,0,0,0-.16A.85.85,0,0,0,33.82,20.32ZM6.51,4.92a2,2,0,0,1-2.4,1.52c-.78-.26-.79-1-.57-1.6a.4.4,0,0,0,.21-.07c.63-.48.93-1.69,1.92-1.47A1.28,1.28,0,0,1,6.51,4.92Zm3,15.62c0-2.16.08-4.32.07-6.46,0-1,.13-2.45.19-4,2.61-.1,5.22,0,7.82-.25,1.25-.1,2.55-.24,3.86-.36,0,3.31.12,6.64.25,10A105.33,105.33,0,0,0,9.54,20.54Z"/><path d="M19.53,17c-.16-.51-.45-.66-.85-.95A9.65,9.65,0,0,1,17.51,15l.9-1a3.22,3.22,0,0,0,.93-1.15.79.79,0,0,0-1-1c-.78.26-1.47,1.26-2,2a8.48,8.48,0,0,0-2-1.53c-.55-.28-1.18.44-.69.89s1.19,1.12,1.76,1.7a6.72,6.72,0,0,0-1.37,2c-.22.64.67,1.1,1.12.65s.91-1,1.35-1.56c.63.71,1.53,1.95,2.53,1.7A.64.64,0,0,0,19.53,17Z"/><path d="M31.51,25.59a.53.53,0,0,0,.23-.13,1.61,1.61,0,0,0,.59-.77.83.83,0,0,0-1-1c-.68.15-.95.74-1.33,1.28s-.66.95-1,1.42a14.84,14.84,0,0,0-2.84-1.68c-.68-.29-1.05.77-.48,1.13.86.55,1.68,1.15,2.49,1.77a10.76,10.76,0,0,0-2,4.13c-.09.65.86,1.23,1.17.5a20.89,20.89,0,0,1,1.87-3.41c.05-.09.11-.16.17-.25A4.36,4.36,0,0,0,31.57,30a.63.63,0,0,0,.63-.63c-.12-.93-1.1-1.52-1.9-2.05l.4-.57Z"/><path class="cls-1" d="M19.83,26.44c-.64-1.3-2.86-2.58-4.09-1.27a3.07,3.07,0,1,0,2.51,5.59A3.11,3.11,0,0,0,19.83,26.44Zm-2,2.72a1.53,1.53,0,0,1-2.32-.69,1.86,1.86,0,0,1,.45-2,.71.71,0,0,0,.21,0c.9,0,1.52-.43,2.11.51A1.48,1.48,0,0,1,17.78,29.16Z"/><path class="cls-1" d="M3.41,26.05a.84.84,0,0,0-1,.75.37.37,0,0,0-.35-.1C.62,27.05.1,29,.29,30.27a2.8,2.8,0,0,0,2.84,2.59C7.08,32.74,7,26.67,3.41,26.05Zm-.47,5.28c-.82,0-1.21-.95-1.28-1.62a3.75,3.75,0,0,1,.86-2.44.68.68,0,0,0,.47.31C5,27.93,5.23,31.24,2.94,31.33Z"/></g></g></svg>