<svg xmlns="http://www.w3.org/2000/svg" viewBox="0 0 39.15 39.15"><defs><style>.cls-1{fill:none;stroke:#1e1e1e;stroke-miterlimit:10;stroke-width:0.5px;}</style></defs><title>Asset 3</title><g id="Layer_2" data-name="Layer 2"><g id="Layer_2-2" data-name="Layer 2"><path class="cls-1" d="M38.74,37.69l-4.07-5.3a.71.71,0,0,0-.52-.29,17.88,17.88,0,0,1-5.42-1.33,9.08,9.08,0,0,0-3.54-.85,6.38,6.38,0,0,0-4.86,2.42v0c.62-1.42,2.26-3.65,4.8-3.65a7.63,7.63,0,0,1,2.94.73,18.57,18.57,0,0,0,3.36,1.05.74.74,0,0,0,.89-.58.76.76,0,0,0-.58-.9,17.6,17.6,0,0,1-3.11-1,8.88,8.88,0,0,0-3.5-.84,6.73,6.73,0,0,0-5.55,3.39A6.76,6.76,0,0,0,14,27.15a8.88,8.88,0,0,0-3.5.84A17.67,17.67,0,0,1,5.16,29.3a.76.76,0,0,0-.68.83.75.75,0,0,0,.83.67,19.26,19.26,0,0,0,5.77-1.41A7.63,7.63,0,0,1,14,28.66c2.54,0,4.19,2.23,4.8,3.65v0A6.38,6.38,0,0,0,14,29.92a9.08,9.08,0,0,0-3.54.85A17.88,17.88,0,0,1,5,32.1a.71.71,0,0,0-.52.29L.41,37.69a.73.73,0,0,0-.08.79A.74.74,0,0,0,1,38.9H38.15a.74.74,0,0,0,.67-.42A.73.73,0,0,0,38.74,37.69ZM25.19,31.43a7.66,7.66,0,0,1,3,.74,19.1,19.1,0,0,0,5.5,1.4l2.94,3.81a23.06,23.06,0,0,1-9.06-1.7,6,6,0,0,0-2.36-.62A3.1,3.1,0,0,0,22.45,37v0l-.18.37H20.33V35.13C21,33.7,22.61,31.43,25.19,31.43ZM5.48,33.57a19.1,19.1,0,0,0,5.5-1.4,7.66,7.66,0,0,1,3-.74c2.58,0,4.24,2.27,4.86,3.7v2.26H16.89L16.71,37v0A3.1,3.1,0,0,0,14,35.06a6,6,0,0,0-2.36.62,23,23,0,0,1-9,1.7Zm6.68,3.51a5,5,0,0,1,1.8-.51,1.5,1.5,0,0,1,1.24.82H11.36ZM24,37.39a1.5,1.5,0,0,1,1.24-.82,5,5,0,0,1,1.8.51l.8.31Z"/><path class="cls-1" d="M33.82,30.8h.1A.76.76,0,0,0,34,29.3h0a.75.75,0,0,0-.14,1.5Z"/><path class="cls-1" d="M17,18.82a.77.77,0,0,0-.51.26.75.75,0,0,0-.17.61,4.45,4.45,0,0,0,3,3.91c0,.28-.07.57-.1.86l-.41,3.83a.77.77,0,0,0,.68.83h.08a.76.76,0,0,0,.75-.67l.4-3.84.09-.83c3.52,0,5.66-2.28,6.73-7,.12-.52.27-1.14.43-1.82a.71.71,0,0,0-.12-.62,1,1,0,0,0-.17-.18L28,14a.74.74,0,0,0,.36-.47c1.32-5.25,3.25-12.22,3.27-12.29a.79.79,0,0,0-.14-.68.76.76,0,0,0-.63-.28c-.26,0-6.32.45-11.31,8.56l-.18.3a.84.84,0,0,0-.1.51L19.63,12H18.35a.74.74,0,0,0-.69.46,16.46,16.46,0,0,0-1.39,5.28.77.77,0,0,0,.22.58Zm9.92-6-2,1.16a.75.75,0,0,0,.32,1.4l1,.07c-.09.35-.16.68-.23,1-1.09,4.81-3.1,5.76-5,5.84A38.57,38.57,0,0,1,29.24,4.13C28.59,6.56,27.69,9.92,27,12.82Zm-8.1.64h1.67a.74.74,0,0,0,.57-.27.71.71,0,0,0,.17-.61l-.47-2.92,0-.06A18,18,0,0,1,27.6,2.87a12.84,12.84,0,0,1,1.18-.54,40.36,40.36,0,0,0-6.33,10,39.86,39.86,0,0,0-2.9,9.72,2.74,2.74,0,0,1-1.5-1.75h.77a.75.75,0,0,0,.54-1.28l-1.55-1.59A14.9,14.9,0,0,1,18.85,13.46Z"/></g></g></svg>