<svg xmlns="http://www.w3.org/2000/svg" viewBox="0 0 29.82 24.66"><defs><style>.cls-1{fill:none;stroke:#1e1e1e;stroke-miterlimit:10;stroke-width:0.5px;}</style></defs><title>Asset 4</title><g id="Layer_2" data-name="Layer 2"><g id="Layer_2-2" data-name="Layer 2"><path class="cls-1" d="M27.15,5.4H20.44l-.73-2.91A3.06,3.06,0,0,0,16.84.25H13a3.06,3.06,0,0,0-2.87,2.24L9.38,5.4H8.63V4a.49.49,0,0,0-.49-.49H4.28A.49.49,0,0,0,3.79,4V5.4H2.67A2.42,2.42,0,0,0,.25,7.82V22a2.41,2.41,0,0,0,2.42,2.41H27.15A2.42,2.42,0,0,0,29.57,22V7.82A2.43,2.43,0,0,0,27.15,5.4Zm-22.39-1h2.9v1H4.76ZM2.67,6.37H9.75A.47.47,0,0,0,10.22,6L11,2.73A2.13,2.13,0,0,1,13,1.22h3.86a2.13,2.13,0,0,1,1.94,1.51L19.6,6a.47.47,0,0,0,.46.36h7.09A1.45,1.45,0,0,1,28.6,7.82V9.27H20a7.57,7.57,0,0,0-10.1,0H1.22V7.82A1.45,1.45,0,0,1,2.67,6.37ZM14.91,21.51a6.61,6.61,0,1,1,6.6-6.6A6.62,6.62,0,0,1,14.91,21.51ZM1.22,10.24H9a7.53,7.53,0,0,0-1.4,2.9h-.9a1.77,1.77,0,0,0,0,3.54h.9A7.6,7.6,0,0,0,9,19.58H1.22Zm6.16,5.47H6.65a.81.81,0,1,1,0-1.61h.73a7.32,7.32,0,0,0,0,.81A7,7,0,0,0,7.38,15.71Zm19.77,7.74H2.67A1.45,1.45,0,0,1,1.22,22V20.55H9.86a7.57,7.57,0,0,0,10.1,0h3.33a.49.49,0,0,0,0-1H20.86a7.54,7.54,0,0,0,0-9.34H28.6v9.34H25.22a.49.49,0,0,0,0,1H28.6V22A1.45,1.45,0,0,1,27.15,23.45Z"/><path class="cls-1" d="M11.75,6.37h6.32a.49.49,0,0,0,.38-.18.49.49,0,0,0,.09-.42l-.81-3.22a.47.47,0,0,0-.46-.37H12.55a.49.49,0,0,0-.47.37l-.8,3.22a.46.46,0,0,0,.09.42A.49.49,0,0,0,11.75,6.37Zm1.18-3.22h4l.56,2.25H12.37Z"/><path class="cls-1" d="M14.91,9.92a5,5,0,1,0,5,5A5,5,0,0,0,14.91,9.92Zm0,9a4,4,0,1,1,4-4A4,4,0,0,1,14.91,18.94Z"/><path class="cls-1" d="M17.73,13.72a.48.48,0,0,0-.64-.26.48.48,0,0,0-.25.63,2.1,2.1,0,0,1-3.41,2.3.49.49,0,0,0-.69,0,.5.5,0,0,0,0,.68,3,3,0,0,0,2.17.9,3,3,0,0,0,2.16-.9A3,3,0,0,0,17.73,13.72Z"/><path class="cls-1" d="M13.09,13.57a.51.51,0,0,0,.34-.14,2.09,2.09,0,0,1,2.3-.45.47.47,0,0,0,.63-.26.48.48,0,0,0-.26-.63,3.06,3.06,0,0,0-3.36.65.51.51,0,0,0,0,.69A.52.52,0,0,0,13.09,13.57Z"/></g></g></svg>