<svg xmlns="http://www.w3.org/2000/svg" viewBox="0 0 38.16 38.39"><defs><style>.cls-1{fill:none;stroke:#000;stroke-miterlimit:10;stroke-width:0.25px;}</style></defs><title>Asset 6</title><g id="Layer_2" data-name="Layer 2"><g id="Layer_2-2" data-name="Layer 2"><circle cx="27.3" cy="11.08" r="0.61"/><path class="cls-1" d="M23.78,16.32s0,0,0,0Z"/><path class="cls-1" d="M22.07,14.61s0,0,0,0Z"/><path class="cls-1" d="M36.5,9.72h-.75A10.21,10.21,0,0,0,34.6,7l.53-.53a1.53,1.53,0,0,0,0-2.17L33.91,3a1.53,1.53,0,0,0-2.17,0l-.53.53a10.15,10.15,0,0,0-2.77-1.15V1.66A1.53,1.53,0,0,0,26.9.13H25.17a1.53,1.53,0,0,0-1.53,1.53v.75a9.9,9.9,0,0,0-2.77,1.15L20.34,3a1.53,1.53,0,0,0-2.17,0L17,4.25a1.53,1.53,0,0,0,0,2.17l.53.53a9.9,9.9,0,0,0-1.15,2.77h-.75A1.54,1.54,0,0,0,14,11.26V13a1.54,1.54,0,0,0,1.54,1.54h.75a9.88,9.88,0,0,0,1.14,2.75l.13.23L7.45,27.65a5.47,5.47,0,0,0-7,7.11.57.57,0,0,0,.4.34A.56.56,0,0,0,1.4,35L4.25,32.1l1.41.58.62,1.46L3.44,37a.53.53,0,0,0-.15.51.55.55,0,0,0,.34.4,5.57,5.57,0,0,0,2,.36,5.47,5.47,0,0,0,5.15-7.33l1.88-1.88a.54.54,0,0,0,0-.78.56.56,0,0,0-.79,0L9.69,30.41a.57.57,0,0,0-.12.62A4.35,4.35,0,0,1,4.9,37.09l2.44-2.43a.55.55,0,0,0,.11-.61l-.86-2a.51.51,0,0,0-.3-.29l-2-.81a.54.54,0,0,0-.6.12L1.29,33.49a4.36,4.36,0,0,1,6.07-4.68A.55.55,0,0,0,8,28.7L22.07,14.61a.55.55,0,0,0,.11-.62,4.36,4.36,0,0,1,4.68-6.07h0l-2.44,2.44v0h-.11l.82,2a.52.52,0,0,0,.29.29l2,.87A.54.54,0,0,0,28,14l2.45-2.44a4.36,4.36,0,0,1-6.07,4.68.55.55,0,0,0-.62.11L13.4,26.69a.57.57,0,0,0,0,.79.56.56,0,0,0,.79,0L21,20.72a10.05,10.05,0,0,0,2.69,1.11v.75a1.54,1.54,0,0,0,1.54,1.53H26.9a1.54,1.54,0,0,0,1.54-1.53v-.75a10.15,10.15,0,0,0,2.77-1.15l.53.53a1.51,1.51,0,0,0,1.08.45,1.54,1.54,0,0,0,1.09-.45L35.13,20a1.54,1.54,0,0,0,.45-1.09,1.51,1.51,0,0,0-.45-1.08l-.53-.53a10.15,10.15,0,0,0,1.15-2.77h.75A1.54,1.54,0,0,0,38,13V11.26A1.54,1.54,0,0,0,36.5,9.72Zm-7.86,2.07-1.13,1.12-1.46-.67-.58-1.36,1.4-1.4,1.56.47.47,1.57ZM36.92,13a.42.42,0,0,1-.42.42h-1a.78.78,0,0,0-.74.6,8.66,8.66,0,0,1-1.21,2.93.76.76,0,0,0,.1.94l.73.73a.43.43,0,0,1,.13.3.42.42,0,0,1-.13.3l-1.22,1.22a.42.42,0,0,1-.6,0l-.73-.73a.76.76,0,0,0-.94-.1,8.75,8.75,0,0,1-2.93,1.21.78.78,0,0,0-.6.74v1a.42.42,0,0,1-.42.42H25.18a.42.42,0,0,1-.43-.42v-1a.77.77,0,0,0-.6-.74,8.83,8.83,0,0,1-2.39-.89l1.06-1.06a7.46,7.46,0,0,0,10.54-5.29.56.56,0,1,0-1.09-.22A6.36,6.36,0,0,1,23.66,18l.65-.65a5.46,5.46,0,0,0,7-7.1.56.56,0,0,0-.91-.19l-.56.56-.39-1.28A.53.53,0,0,0,29,9l-1.28-.39L28.32,8a.56.56,0,0,0,.15-.51.57.57,0,0,0-.34-.4,5.47,5.47,0,0,0-7.11,7l-.73.74a6.26,6.26,0,0,1-.6-2.7,6.35,6.35,0,0,1,12.65-.82.56.56,0,1,0,1.1-.15,7.47,7.47,0,1,0-14,4.5l-1,1A9,9,0,0,1,17.35,14a.75.75,0,0,0-.74-.59h-1a.42.42,0,0,1-.42-.43V11.26a.42.42,0,0,1,.42-.43h1a.75.75,0,0,0,.74-.6,9.13,9.13,0,0,1,1.21-2.92.76.76,0,0,0-.1-.95l-.73-.73a.43.43,0,0,1,0-.6L19,3.81a.43.43,0,0,1,.6,0l.73.73a.76.76,0,0,0,.95.11,8.93,8.93,0,0,1,2.92-1.22.75.75,0,0,0,.6-.74v-1a.42.42,0,0,1,.43-.42H26.9a.42.42,0,0,1,.42.42v1a.76.76,0,0,0,.6.74,9.18,9.18,0,0,1,2.93,1.21.74.74,0,0,0,.94-.1l.73-.73a.43.43,0,0,1,.6,0L34.34,5a.42.42,0,0,1,0,.6l-.73.73a.77.77,0,0,0-.1.95,8.7,8.7,0,0,1,1.21,2.92.77.77,0,0,0,.74.6h1a.42.42,0,0,1,.42.43V13Z"/><path class="cls-1" d="M11.44,11.14h-.32a3.07,3.07,0,0,0-.2-.5l.22-.22a.85.85,0,0,0,0-1.18l-1-1A.82.82,0,0,0,9,8.27l-.22.22a4.4,4.4,0,0,0-.5-.21V8a.85.85,0,0,0-.84-.84H6.06A.84.84,0,0,0,5.23,8v.31a4.4,4.4,0,0,0-.5.21l-.22-.22A.83.83,0,0,0,3.92,8a.8.8,0,0,0-.59.25l-1,1a.83.83,0,0,0,0,1.18l.22.22a4.4,4.4,0,0,0-.21.5H2.06a.84.84,0,0,0-.84.83v1.37a.85.85,0,0,0,.84.84h.31a4.4,4.4,0,0,0,.21.5l-.22.22a.83.83,0,0,0,0,1.18l1,1a.79.79,0,0,0,.59.24.82.82,0,0,0,.59-.24l.22-.22a3.07,3.07,0,0,0,.5.2v.32a.83.83,0,0,0,.83.83H7.43a.84.84,0,0,0,.84-.83V17a3.07,3.07,0,0,0,.5-.2l.22.22a.85.85,0,0,0,1.18,0l1-1a.85.85,0,0,0,0-1.18l-.22-.22a3.07,3.07,0,0,0,.2-.5h.32a.84.84,0,0,0,.83-.84V12A.83.83,0,0,0,11.44,11.14Zm-.28,1.93h-.45a.55.55,0,0,0-.54.42,4,4,0,0,1-.41,1,.55.55,0,0,0,.08.68l.31.32-.57.57-.32-.31a.55.55,0,0,0-.68-.08,4,4,0,0,1-1,.41.56.56,0,0,0-.43.54v.45H6.34v-.45a.56.56,0,0,0-.43-.54,3.76,3.76,0,0,1-1-.41.56.56,0,0,0-.69.08l-.31.31-.58-.57.32-.32a.56.56,0,0,0,.08-.68,3.35,3.35,0,0,1-.41-1,.56.56,0,0,0-.54-.42H2.34v-.82h.45a.56.56,0,0,0,.54-.43,3.29,3.29,0,0,1,.41-1,.57.57,0,0,0-.08-.69l-.32-.31.58-.58.31.32a.57.57,0,0,0,.69.08,3.19,3.19,0,0,1,1-.41.56.56,0,0,0,.43-.54V8.25h.81V8.7a.56.56,0,0,0,.43.54,3.35,3.35,0,0,1,1,.41.56.56,0,0,0,.68-.08l.32-.32.57.58-.31.31a.56.56,0,0,0-.08.69,3.91,3.91,0,0,1,.41,1,.56.56,0,0,0,.54.43h.45v.82Z"/><path class="cls-1" d="M6.75,10a2.71,2.71,0,1,0,2.7,2.71A2.72,2.72,0,0,0,6.75,10Zm0,4.3a1.6,1.6,0,1,1,1.59-1.59A1.6,1.6,0,0,1,6.75,14.25Z"/><path class="cls-1" d="M30.86,29.52h-.31a4.4,4.4,0,0,0-.21-.5l.22-.22a.83.83,0,0,0,0-1.18l-1-1a.85.85,0,0,0-1.18,0l-.22.22a3.07,3.07,0,0,0-.5-.2v-.32a.83.83,0,0,0-.83-.83H25.48a.83.83,0,0,0-.83.83v.32a3.07,3.07,0,0,0-.5.2l-.22-.22a.85.85,0,0,0-1.18,0l-1,1a.83.83,0,0,0,0,1.18L22,29a4.4,4.4,0,0,0-.21.5h-.31a.84.84,0,0,0-.83.84v1.37a.83.83,0,0,0,.83.83h.31a4.4,4.4,0,0,0,.21.5l-.22.22a.83.83,0,0,0,0,1.18l1,1a.82.82,0,0,0,1.18,0l.22-.22a4.4,4.4,0,0,0,.5.21v.31a.84.84,0,0,0,.83.84h1.38a.84.84,0,0,0,.83-.84v-.31a4.4,4.4,0,0,0,.5-.21l.22.22a.82.82,0,0,0,1.18,0l1-1a.83.83,0,0,0,0-1.18l-.22-.22a4.4,4.4,0,0,0,.21-.5h.31a.83.83,0,0,0,.83-.83V30.36A.84.84,0,0,0,30.86,29.52Zm-.28,1.93h-.45a.56.56,0,0,0-.54.43,3.29,3.29,0,0,1-.41,1,.56.56,0,0,0,.08.69l.32.31-.58.58-.32-.32a.56.56,0,0,0-.68-.08,3.25,3.25,0,0,1-1,.41.56.56,0,0,0-.42.54v.45h-.82V35a.56.56,0,0,0-.42-.54,3.25,3.25,0,0,1-1-.41.56.56,0,0,0-.68.08l-.32.32-.58-.58.32-.31a.56.56,0,0,0,.08-.69,3.29,3.29,0,0,1-.41-1,.56.56,0,0,0-.54-.43h-.45v-.82h.45a.55.55,0,0,0,.54-.42,3.35,3.35,0,0,1,.41-1,.55.55,0,0,0-.08-.68l-.32-.32.58-.57.32.31a.55.55,0,0,0,.68.08,3.83,3.83,0,0,1,1-.41.55.55,0,0,0,.42-.54v-.45h.82v.45a.55.55,0,0,0,.42.54A3.83,3.83,0,0,1,28,28a.55.55,0,0,0,.68-.08l.32-.31.58.57-.32.32a.56.56,0,0,0-.08.68,3.35,3.35,0,0,1,.41,1,.56.56,0,0,0,.54.42h.45Z"/><path class="cls-1" d="M26.17,28.34A2.71,2.71,0,1,0,28.88,31,2.71,2.71,0,0,0,26.17,28.34Zm0,4.3A1.6,1.6,0,1,1,27.76,31,1.6,1.6,0,0,1,26.17,32.64Z"/></g></g></svg>