<svg xmlns="http://www.w3.org/2000/svg" viewBox="0 0 39.35 38.74"><defs><style>.cls-1{fill:none;stroke:#1e1e1e;stroke-miterlimit:10;stroke-width:0.5px;}</style></defs><title>Asset 11</title><g id="Layer_2" data-name="Layer 2"><g id="Layer_2-2" data-name="Layer 2"><path class="cls-1" d="M33.26,16.8a1.91,1.91,0,0,0-3.59,0H25.73V14.26h2.54a.63.63,0,0,0,.64-.63h0V11a1.92,1.92,0,1,0-1.27,0v2H25.73V11.71a.64.64,0,0,0-.64-.63H23.82V7.78a1.91,1.91,0,1,0-1.28,0v3.3H20V.91a.64.64,0,0,0-.63-.64h0c-7.86,0-14,5.69-14,13A26.23,26.23,0,0,0,8.92,25.14c.4.7.91,1.44,1.46,2.22,1.15,1.65,2.44,3.5,2.58,5.11A1.82,1.82,0,0,0,12.2,34a1.9,1.9,0,0,0,.42,1.19A2,2,0,0,0,12,36.58a1.92,1.92,0,0,0,1.91,1.91H24.77a1.92,1.92,0,0,0,1.91-1.94v0a1.91,1.91,0,0,0-.58-1.37,2,2,0,0,0,.42-1.22,1.82,1.82,0,0,0-1.83-1.82H20V20h1.28v1.92a.63.63,0,0,0,.64.63h1.91v.76a1.9,1.9,0,1,0,1.27,0V21.91a.63.63,0,0,0-.64-.64H22.54V20h2.55a.64.64,0,0,0,.64-.63h0V18.08h3.94a1.91,1.91,0,1,0,3.59-1.28Zm-5-8.27a.64.64,0,0,1,.64.64.64.64,0,1,1-.64-.64ZM11.42,26.63c-.53-.76-1-1.47-1.39-2.12A25.32,25.32,0,0,1,6.62,13.22c0-6.35,5.26-11.37,12.1-11.66V6l-.53,0a.62.62,0,0,0-.54.5l-.2.92L17,7.61l-.64-.71a.65.65,0,0,0-.72-.16,9.6,9.6,0,0,0-2,1.17.66.66,0,0,0-.22.71l.29.89-.35.35-.89-.29a.64.64,0,0,0-.7.22,9.18,9.18,0,0,0-1.17,2,.61.61,0,0,0,.16.72l.7.63c0,.16-.09.32-.12.48l-1,.2a.64.64,0,0,0-.52.62v2.17a.64.64,0,0,0,.52.63l1,.19c0,.16.08.32.12.48l-.7.63a.63.63,0,0,0-.16.73,9.35,9.35,0,0,0,1.17,2,.61.61,0,0,0,.7.22l.89-.29.35.35-.29.89a.66.66,0,0,0,.22.71,9.6,9.6,0,0,0,2,1.17.63.63,0,0,0,.72-.16l.64-.71.47.13.2.92a.62.62,0,0,0,.54.5,5.24,5.24,0,0,0,.53,0v7.06H14.21C14,30.24,12.62,28.33,11.42,26.63Zm2.21-11.09a5.73,5.73,0,0,0,5.09,5.69v2.19l-.1-.5a.67.67,0,0,0-.51-.5,7,7,0,0,1-1.11-.3.83.83,0,0,0-.22,0,.61.61,0,0,0-.47.21l-.6.67a7.59,7.59,0,0,1-1-.57l.27-.84a.61.61,0,0,0-.19-.68,6.28,6.28,0,0,1-.81-.82.66.66,0,0,0-.69-.19l-.84.28a7.74,7.74,0,0,1-.56-1l.67-.6a.64.64,0,0,0,.17-.69,7,7,0,0,1-.3-1.11.64.64,0,0,0-.5-.51l-.89-.18V15l.89-.18a.64.64,0,0,0,.5-.51,7.29,7.29,0,0,1,.3-1.11.63.63,0,0,0-.18-.69l-.66-.59a6.51,6.51,0,0,1,.56-1l.84.27A.64.64,0,0,0,14,11a7.84,7.84,0,0,1,.81-.82A.6.6,0,0,0,15,9.51l-.27-.84a6.51,6.51,0,0,1,1-.56l.6.66A.62.62,0,0,0,17,9a7,7,0,0,1,1.11-.3.65.65,0,0,0,.51-.5l.1-.5V9.84A5.74,5.74,0,0,0,13.63,15.54Zm5.09-4.41v8.81a4.45,4.45,0,0,1,0-8.81Zm6.69,25.45a.64.64,0,0,1-.64.63H13.94a.64.64,0,0,1-.63-.66v0a.63.63,0,0,1,.63-.63H24.77a.64.64,0,0,1,.64.66Zm-.8-3.19a.58.58,0,0,1,.63.53.13.13,0,0,1,0,.06.64.64,0,0,1-.64.64H14.11a.64.64,0,0,1-.64-.66v0a.57.57,0,0,1,.6-.55H24.61Zm-.16-8.94a.64.64,0,1,1-.63.64A.64.64,0,0,1,24.45,24.45ZM23.18,5.35a.64.64,0,0,1,.64.63.64.64,0,0,1-1.28,0A.64.64,0,0,1,23.18,5.35Zm1.27,13.37H20V12.35h4.46Zm7-.64a.64.64,0,0,1-.64-.63.64.64,0,1,1,1.28,0A.64.64,0,0,1,31.46,18.08Z"/><path class="cls-1" d="M25.5,29.39a10.84,10.84,0,0,0-.59,1.24l1.18.47a9.26,9.26,0,0,1,.53-1.1Z"/><path class="cls-1" d="M26.93,27.14c-.25.36-.5.73-.74,1.1l1.07.69c.23-.36.48-.71.72-1.06Z"/><path class="cls-1" d="M28.38,25c-.21.35-.45.7-.7,1.06l1,.73c.27-.38.52-.75.74-1.11Z"/><path class="cls-1" d="M29.58,22.8c-.19.39-.38.76-.58,1.14l1.13.6c.21-.39.41-.79.6-1.19Z"/><path class="cls-1" d="M30.57,20.47c-.15.39-.3.78-.47,1.18l1.17.5c.18-.41.34-.82.49-1.24Z"/><path class="cls-1" d="M33.37,13.1H32.1v.11c0,.36,0,.74-.05,1.12l1.27.11c0-.42,0-.84,0-1.23Z"/><path class="cls-1" d="M33.05,10.38l-1.24.29c.09.4.16.81.21,1.21l1.26-.15A12.69,12.69,0,0,0,33.05,10.38Z"/><path class="cls-1" d="M32.13,7.81,31,8.37a11.26,11.26,0,0,1,.48,1.13l1.2-.43A11.58,11.58,0,0,0,32.13,7.81Z"/><path class="cls-1" d="M30.67,5.5l-1,.8a10.13,10.13,0,0,1,.72,1l1.07-.68A10.78,10.78,0,0,0,30.67,5.5Z"/><path class="cls-1" d="M28.76,3.56l-.81,1a10.29,10.29,0,0,1,.91.84l.91-.9C29.45,4.16,29.11,3.85,28.76,3.56Z"/><path class="cls-1" d="M26.51,2,25.9,3.16c.37.2.72.42,1.06.64l.71-1C27.3,2.5,26.91,2.26,26.51,2Z"/><path class="cls-1" d="M24,1,23.63,2.2c.39.13.79.27,1.16.43l.5-1.17A10.83,10.83,0,0,0,24,1Z"/><path class="cls-1" d="M21.37.4l-.16,1.27c.41.05.82.12,1.22.21L22.71.63C22.27.54,21.82.46,21.37.4Z"/><rect class="cls-1" x="1.52" y="34.64" width="1.27" height="1.27"/><rect class="cls-1" x="1.52" y="37.19" width="1.27" height="1.27"/><rect class="cls-1" x="2.8" y="35.92" width="1.27" height="1.27"/><rect class="cls-1" x="0.25" y="35.92" width="1.27" height="1.27"/><rect class="cls-1" x="36.55" y="0.25" width="1.27" height="1.27"/><rect class="cls-1" x="36.55" y="2.8" width="1.27" height="1.27"/><rect class="cls-1" x="37.83" y="1.52" width="1.27" height="1.27"/><rect class="cls-1" x="35.28" y="1.52" width="1.27" height="1.27"/></g></g></svg>