<svg xmlns="http://www.w3.org/2000/svg" viewBox="0 0 228.94 196.64"><defs><style>.cls-1{font-size:40.37px;fill:#4c4c4c;font-family:PlayfairDisplay-Black, Playfair Display;font-weight:800;}.cls-2,.cls-3{font-family:PlayfairDisplay-Regular, Playfair Display;font-weight:400;}.cls-2{letter-spacing:-0.02em;}.cls-31,.cls-4{fill:#fff;}.cls-4{stroke:#4c4c4c;stroke-miterlimit:10;}.cls-5{fill:#208181;}.cls-6{fill:#00787b;}.cls-7{fill:#00867b;}.cls-8{fill:#00dce9;}.cls-9{fill:#3b8077;}.cls-10{fill:#35736d;}.cls-11{fill:#488c87;}.cls-12{fill:#638a87;}.cls-13{fill:#378484;}.cls-14{fill:#117776;}.cls-15{fill:#4b7d79;}.cls-16{fill:#007c72;}.cls-17{fill:#008780;}.cls-18{fill:#2b7b6d;}.cls-19{fill:#00756b;}.cls-20{fill:#287777;}.cls-21{fill:#005c60;}.cls-22{fill:#00807e;}.cls-23{fill:#007971;}.cls-24{fill:#296d6b;}.cls-25{fill:#338180;}.cls-26{fill:#618b87;}.cls-27{fill:#3e756c;}.cls-28{fill:#006e77;}.cls-29{fill:#3b8783;}.cls-30{fill:#587f7c;}.cls-32{fill:#00ebf5;}.cls-33{fill:#00ddea;}.cls-34{fill:#fdffff;}.cls-35{fill:#90f4f6;}.cls-36{fill:#abf8fa;}.cls-37{fill:#a9f7f9;}.cls-38{fill:#6cf4f8;}.cls-39{fill:#c9f8f8;}.cls-40{fill:#aff8fa;}.cls-41{fill:#00ebf4;}.cls-42{fill:#88f5f9;}.cls-43{fill:#e4f9fa;}.cls-44{fill:#38f0f6;}.cls-45{fill:#70edf2;}.cls-46{fill:#71eef3;}.cls-47{fill:#c3fbfa;}.cls-48{fill:#86f1f5;}.cls-49{fill:#00dcea;}.cls-50{fill:#00dfec;}.cls-51{fill:#00d3e1;}.cls-52{fill:#21eaf3;}.cls-53{fill:#00d5e2;}.cls-54{fill:#00c5d1;}.cls-55{fill:#00dbe8;}.cls-56{fill:#53e6ed;}.cls-57{fill:#79eef3;}.cls-58{fill:#00716e;}.cls-59{fill:#4ef4f9;}.cls-60{fill:#dcf0f0;}.cls-61{fill:#00e4ee;}.cls-62{fill:#00b6c1;}.cls-63{fill:#00e2ed;}.cls-64{fill:#007d80;}.cls-65{fill:#d7f7f7;}.cls-66{fill:#a5eff5;}.cls-67{fill:#359089;}.cls-68{fill:#004d55;}.cls-69{fill:#86f3f7;}.cls-70{fill:#00e5f0;}.cls-71{fill:#3e6056;}.cls-72{fill:#006c76;}.cls-73{fill:#00777f;}.cls-74{fill:#436660;}.cls-75{fill:#00434a;}.cls-76{fill:#627977;}.cls-77{fill:#ddf3f3;}.cls-78{fill:#31f1f8;}.cls-79{fill:#076365;}.cls-80{fill:#7bf7fb;}.cls-81{fill:#2b756f;}.cls-82{fill:#326a70;}.cls-83{fill:#4e898a;}.cls-84{fill:#007e84;}.cls-85{fill:#648480;}.cls-86{fill:#258086;}.cls-87{fill:#c3ebed;}.cls-88{fill:#91969f;}.cls-89{fill:#01818d;}.cls-90{fill:#487c79;}.cls-91{fill:#077;}.cls-92{fill:#00dbe4;}.cls-93{fill:#9bfafa;}.cls-94{fill:teal;}.cls-95{fill:#8af0f4;}.cls-96{fill:#348480;}.cls-97{fill:#75f4f7;}.cls-98{fill:#00e5ef;}.cls-99{fill:#007f80;}.cls-100{fill:#a6e2e4;}.cls-101{fill:#4df1f7;}.cls-102{fill:#74f5f8;}.cls-103{fill:#2bebf3;}.cls-104{fill:#52eef5;}.cls-105{fill:#00f0f8;}.cls-106{fill:#81f2f8;}.cls-107{fill:#6bebf0;}.cls-108{fill:#00e9f3;}.cls-109{fill:#90eaeb;}.cls-110{fill:#4deff6;}.cls-111{fill:#3deef6;}.cls-112{fill:#cbedee;}.cls-113{fill:#daeeee;}.cls-114{fill:#005d5d;}.cls-115{fill:#00b8d2;}.cls-116{fill:#0091a6;}.cls-117{fill:#009bb2;}.cls-118{fill:#19eaf0;}.cls-119{fill:#00aec7;}.cls-120{fill:#008094;}.cls-121{fill:#b6e7e9;}.cls-122{fill:#17736d;}.cls-123{fill:#00d8e4;}.cls-124{fill:#94e6e8;}.cls-125{fill:#f2f6f6;}.cls-126{fill:#00b0c7;}.cls-127{fill:#00cae4;}.cls-128{fill:#007b80;}.cls-129{fill:#00d2e3;}.cls-130{fill:#007374;}.cls-131{fill:#00d7e6;}.cls-132{fill:#00c2d1;}.cls-133{fill:#9de5ec;}.cls-134{fill:#55cad2;}.cls-135{fill:#00afc1;}.cls-136{fill:#00b4c9;}.cls-137{fill:#00c7db;}.cls-138{fill:#00c0d9;}.cls-139{fill:#00b8d1;}.cls-140{fill:#00c4dc;}.cls-141{fill:#74eef6;}.cls-142{fill:#00c4da;}.cls-143{fill:#00c5d7;}.cls-144{fill:#00cbdf;}.cls-145{fill:#57d7e0;}.cls-146{fill:#95e5ea;}.cls-147{fill:#66d6e0;}.cls-148{fill:#00eef4;}.cls-149{fill:#00dfe7;}.cls-150{fill:#00eff8;}.cls-151{fill:#0094a9;}.cls-152{fill:#00899a;}.cls-153{fill:#00a0b0;}.cls-154{fill:#008594;}.cls-155{fill:#009eae;}.cls-156{fill:#009fb0;}.cls-157{fill:#008f9a;}.cls-158{fill:#00acbb;}.cls-159{fill:#0094a4;}.cls-160{fill:#00a6b7;}.cls-161{fill:#009da9;}.cls-162{fill:#00b2c6;}.cls-163{fill:#00b5c6;}.cls-164{fill:#00c3dc;}.cls-165{fill:#00a0b4;}.cls-166{fill:#008da0;}.cls-167{fill:#00a6ba;}.cls-168{fill:#95d7d9;}.cls-169{fill:#00a2bc;}.cls-170{fill:#009fb9;}.cls-171{fill:#009fb4;}.cls-172{fill:#00b1c5;}.cls-173{fill:#00bacb;}.cls-174{fill:#e9fbfc;}.cls-175{fill:#00b8cb;}.cls-176{fill:#00cfe4;}.cls-177{fill:#00c9da;}.cls-178{fill:#b7edf7;}.cls-179{fill:#00bed4;}.cls-180{fill:#00acc0;}.cls-181{fill:#00bdd3;}.cls-182{fill:#00bcd1;}.cls-183{fill:#00aec4;}.cls-184{fill:#00bad1;}.cls-185{fill:#00b2c7;}.cls-186{fill:#00b6cd;}.cls-187{fill:#008897;}.cls-188{fill:#007d8b;}.cls-189{fill:#00a8b9;}.cls-190{fill:#00aec3;}.cls-191{fill:#008e9f;}.cls-192{fill:#0098a8;}.cls-193{fill:#008a9a;}.cls-194{fill:#00adbd;}.cls-195{fill:#00b0be;}.cls-196{fill:#00bdcf;}.cls-197{fill:#00b2c2;}.cls-198{fill:#09a;}.cls-199{fill:#009dac;}.cls-200{fill:#00bdd2;}.cls-201{fill:#009caf;}.cls-202{fill:#00a0b7;}.cls-203{fill:#00c8dc;}.cls-204{fill:#00aabe;}.cls-205{fill:#00d0e3;}.cls-206{fill:#00c2da;}.cls-207{fill:#00bad0;}.cls-208{fill:#00dae9;}.cls-209{fill:#ebfafb;}.cls-210{fill:#00bbd1;}.cls-211{fill:#00b4ca;}.cls-212{fill:#00a1b8;}.cls-213{fill:#00bcd2;}.cls-214{fill:#00c8de;}.cls-215{fill:#00a5ba;}.cls-216{fill:#0093a3;}.cls-217{fill:#008291;}.cls-218{fill:#008695;}.cls-219{fill:#00b6c6;}.cls-220{fill:#00b4c7;}.cls-221{fill:#00b4c8;}.cls-222{fill:#00abbe;}.cls-223{fill:#00b3c9;}.cls-224{fill:#0091a2;}.cls-225{fill:#007b88;}.cls-226{fill:#00b3c8;}.cls-227{fill:#daf6f8;}.cls-228{fill:#0091a5;}.cls-229{fill:#f1fcfc;}.cls-230{fill:#00aebf;}.cls-231{fill:#00c1d5;}</style></defs><title>Asset 7</title><g id="Layer_2" data-name="Layer 2"><g id="Layer_1-2" data-name="Layer 1"><text class="cls-1" transform="translate(49.93 185.99) scale(0.58)">Contact <tspan class="cls-2" x="156.45" y="0">U</tspan><tspan class="cls-3" x="183.02" y="0">s</tspan></text><line class="cls-4" y1="160.28" x2="228.94" y2="160.28"/><line class="cls-4" y1="196.14" x2="228.94" y2="196.14"/><path class="cls-5" d="M136.72,149.67a10.54,10.54,0,0,1-3.76.27c-2.2-.23-4.41-.33-6.62-.53-4.86-.45-9.71-.92-14.57-1.38a1.07,1.07,0,0,1-1.06.16l-4.8-.87c0-1.55,1.34-1.72,2.36-2.22a5.14,5.14,0,0,1,1.39-.29c8.5.7,17,.79,25.52,2C136.21,147.49,137.61,148,136.72,149.67Z"/><path class="cls-6" d="M108.37,145.88l-2.46,1.44-2.39.38c-4-.44-8.08-.9-12.12-1.3a6.85,6.85,0,0,1-2.72-.62c-.71.19-1.42-.41-2.13,0h0c-.7.18-1.36-.33-2.06-.15a1.36,1.36,0,0,1-.87-.24,2.19,2.19,0,0,1-1.47-.33,1.17,1.17,0,0,1-.47-.89,1.87,1.87,0,0,1,.63-.84,4,4,0,0,1,1.53-.55,10.4,10.4,0,0,1,1.11-.1c.6-.05,1.18-.09,1.78-.1,2.19.06,4.35.49,6.54.36a18.3,18.3,0,0,1,4.42.59c2.69.56,5.46.15,8.15.72a4.63,4.63,0,0,1,1.8.64A2.33,2.33,0,0,1,108.37,145.88Z"/><path class="cls-7" d="M125.2,1a5.38,5.38,0,0,1,3.22-.29,8.16,8.16,0,0,0,3.71-.15,29.93,29.93,0,0,0,8.24.16l2.42.68c1,0,1.17.61,1.05,1.44a4.48,4.48,0,0,1-3.05,1.65,86.73,86.73,0,0,1-19-.81,20.06,20.06,0,0,1-2-.22,4.73,4.73,0,0,1-1.29-.5c-.72-.63-1.45-1.27-.58-2.3l0,0c.72-.12,1.46.46,2.17-.05l-.07,0c.73-.06,1.44.46,2.18.06h0C123.23.37,124.11,1.81,125.2,1Z"/><path class="cls-8" d="M110.71,148.19l1.06-.16c-.16.42-.3.85-.85.88A.55.55,0,0,1,110.71,148.19Z"/><path class="cls-9" d="M159.21,7.68a15.51,15.51,0,0,1,.51,7.47c-.83,6.91-1.77,13.8-2.41,20.72-.53,5.67-.81,11.37-1,17.06-.31,9-.2,18-.73,27-.44,7.41-1.25,14.81-1.42,22.25a105.18,105.18,0,0,1-1.24,14.17c-.1.62-.28,1.22-.42,1.84-.76.39-1,1.73-2.25,1.22-1.12-1.48-.43-3.08-.22-4.59,1-7.07.82-14.21,1.33-21.3.3-4.34.89-8.67.93-13-.1-5.55.57-11.07.55-16.62a18.38,18.38,0,0,0,.17-4.32,7.22,7.22,0,0,1,0-1.23,12.38,12.38,0,0,0,.14-4.25,14.87,14.87,0,0,1-.24-1.88,42.25,42.25,0,0,1,.53-5.84c.69-3.93.15-7.94.84-11.87.13-.86.27-1.73.37-2.6.42-2.15.33-4.35.65-6.5a63.3,63.3,0,0,0,1-9c0-.85,0-1.69,0-2.54A24.85,24.85,0,0,0,156,8.44a2.79,2.79,0,0,0-1.66-2c-.34-.15-.67-.32-1-.48a10,10,0,0,0-2.84-.76,7.24,7.24,0,0,1-1.86-.61,4,4,0,0,1-2-1.87,1.06,1.06,0,0,1,.58-1.14h0a2.81,2.81,0,0,1,1,.13c.63.27,1.22.7,2,.41a.44.44,0,0,1,.58.19c1.82-.07,3,1.85,5,1.51a3.19,3.19,0,0,1,2.46,1.43,11.33,11.33,0,0,1,.49,1.13v0A8.21,8.21,0,0,0,159.21,7.68Z"/><path class="cls-10" d="M150.65,119.6c.47-.66.9-1.36,1.85-1.37q-.52,7.56-1,15.14a9.07,9.07,0,0,0-.09,1.28c-.06.34-.11.69-.16,1-.06,1.23-.11,2.47-1.87,2.35-.85-1-.64-2.25-.9-3.39C148.29,129.5,147.5,124.26,150.65,119.6Z"/><path class="cls-11" d="M149.32,137.71c1.24-.1,1.29-1.31,1.89-2,.11,5.6-2.41,9.66-7.27,12.32a3.23,3.23,0,0,1-.44-2.55,9.16,9.16,0,0,1,1.68-2.84c1-1.45,1.59-3.2,2.89-4.48A2,2,0,0,1,149.32,137.71Z"/><path class="cls-12" d="M136.72,149.67c-.12-1.3-1.29-1.6-2.1-2.24.52-1.45,1.68-.85,2.66-.83a9.13,9.13,0,0,0,3.08-.17c.88,0,1.8-.08,2.07,1.08a2.55,2.55,0,0,1-1.13,1.59A5.19,5.19,0,0,1,136.72,149.67Z"/><path class="cls-13" d="M146.87,2.51,149.49,4c-2.46,1.88-4.24.55-5.92-1.26l-.78-1.35a7.69,7.69,0,0,1,3.57.08A2.29,2.29,0,0,1,146.87,2.51Z"/><path class="cls-14" d="M141.3,149.1l.91-2.19a1.47,1.47,0,0,1,.68-1.61.83.83,0,0,1,1,.49c.71.72.35,1.48.06,2.22A3.69,3.69,0,0,1,141.3,149.1Z"/><path class="cls-15" d="M155.83,3.83c-2.06.82-3.37-.82-5-1.51C152.75,2.06,154.24,3.12,155.83,3.83Z"/><path class="cls-15" d="M150.29,2.13a2,2,0,0,1-2.16,0c.09-.18.17-.36.25-.54Z"/><path class="cls-11" d="M151.37,134.65a1,1,0,0,1,.09-1.28A1.13,1.13,0,0,1,151.37,134.65Z"/><path class="cls-15" d="M146.87,2.51l-.51-1a.86.86,0,0,1,.91.13C147.13,1.89,147,2.2,146.87,2.51Z"/><path class="cls-15" d="M159.21,7.68l-.42-1.27A1.19,1.19,0,0,1,159.21,7.68Z"/><path class="cls-13" d="M148.38,1.56a3.26,3.26,0,0,1-.25.54l-.85-.51A.83.83,0,0,1,148.38,1.56Z"/><path class="cls-15" d="M158.78,6.39c-.16-.38-.33-.75-.49-1.13A1,1,0,0,1,158.78,6.39Z"/><path class="cls-16" d="M63.94,99.28c-.5-4.25.27-8.46.35-12.69,0-2.36.32-4.71.3-7.07a166.46,166.46,0,0,1,1.56-20.68c1.15-.16,1.72.62,2.28,1.41,1.52,3.41.08,6.92.34,10.37-1,5.46.2,11-.82,16.48-.53,3.66.07,7.46-1.31,11a3.9,3.9,0,0,1-.82,1.19C65.19,99.75,64.55,100,63.94,99.28Z"/><path class="cls-17" d="M67,44.59c-.58-2.06.11-4,.44-6A88.79,88.79,0,0,0,69.18,26a7.61,7.61,0,0,1,1.13-4.51c1.09-.37.79-2,2-2.26.78.07,1.06.6,1.17,1.28a6,6,0,0,1-.09,1.27,12.84,12.84,0,0,0-.27,2.55A54.76,54.76,0,0,1,72.36,33c-.49,3.56-1,7.11-2.83,10.29A3.21,3.21,0,0,1,67,44.59Z"/><path class="cls-18" d="M63.94,99.28l1.69-.59c2.59,2.45,1.25,5.52,1.3,8.35a40.88,40.88,0,0,1-.43,7.89c-.43,1.73-.07,3.57-.72,5.28a4,4,0,0,1-2.59,2A85.25,85.25,0,0,1,63.94,99.28Z"/><path class="cls-19" d="M63.19,122.23c.53-.86.8-2,2-2.13,2.48,2.65,1.65,6,2,9.13,0,.41,0,.82,0,1.23a7.68,7.68,0,0,0,.27,2.38c.2,1.57,1.81,2.9.81,4.68a2.69,2.69,0,0,1-2.47.08,8,8,0,0,1-2.56-5.92C63.05,128.54,63.2,125.38,63.19,122.23Z"/><path class="cls-20" d="M91.18.9A8.19,8.19,0,0,1,93,.44C97,.27,101.06.17,105.11,0a11.52,11.52,0,0,1,4.17.45c1,.05,1.19.65,1.12,1.49a2.18,2.18,0,0,1-.85,1.13c-5,.18-10,.68-14.93.86-1.69.06-3.47.26-5-.9a1.4,1.4,0,0,1-.31-1.27C89.83,1.22,90.62,1.3,91.18.9Z"/><path class="cls-21" d="M65.83,137.6a2.37,2.37,0,0,1,2.36,0l.52.23a9.61,9.61,0,0,1,.91.45,2,2,0,0,0,.81.16,1,1,0,0,0,.6-.47,6.14,6.14,0,0,0,.19-.85,2.23,2.23,0,0,1,.3-.91,1.69,1.69,0,0,1,1.27-.79,1.62,1.62,0,0,1,.94.49,7.1,7.1,0,0,1,.59.91c.09.15.17.31.27.47s.4.6.6.9c.55.73,1.14,1.43,1.76,2.11a9.57,9.57,0,0,0,2.85,1.93,6.32,6.32,0,0,1,1,.65,2.88,2.88,0,0,1,1,1.56h0c.18.33.18.55,0,.68s-.33.15-.42.1a.8.8,0,0,1-.73-.12c-.76,0-1.47-.55-2.27-.21a5.51,5.51,0,0,1-3.75-1,7.94,7.94,0,0,0-5.28-2.46,1.15,1.15,0,0,1-1.24-.57,1.07,1.07,0,0,1-1.11-.73l0,0c-.21-.39-.32-.83-.5-1.24v0c-.13-.46-.14-1-.65-1.24Z"/><path class="cls-22" d="M72.63,19.22c-.66.86-1,2.09-2.32,2.26a.44.44,0,0,1,.12-.61c0-.79.58-1.54.21-2.37C70.79,14.62,72.17,11,73,7.23c.49-1.65,1-3.29,2.39-4.44a.92.92,0,0,1,1.13.62,4,4,0,0,1,0,1.42c-.1.68-.26,1.36-.36,2.06,0,.46-.09.91-.16,1.37C74.8,11.89,76.24,16.33,72.63,19.22Z"/><path class="cls-23" d="M67,44.59c.53-.61,1-1.37,1.89-1.43l.28.39A7,7,0,0,1,69.37,45c0,.32,0,.64,0,1,0,.49,0,1,0,1.46s0,.67,0,1c0,.51,0,1,0,1.53a9.23,9.23,0,0,1-.13,1,14.21,14.21,0,0,0-.16,1.6c0,.37,0,.74,0,1.11.06.59.15,1.17.24,1.76.13,1.91.52,3.89-1.4,5.25l-1.79-1.86a2.11,2.11,0,0,1,.09-2c-.15-.73.43-1.44.08-2.18h0c-.21-.71.33-1.38.09-2.09a.52.52,0,0,1,.11-.66c.23-.47,0-.93,0-1.4a.88.88,0,0,1,.17-.89c-.16-.73.38-1.42.15-2.16v-.09c-.34-.67.22-1.3.06-2A.68.68,0,0,1,67,44.59Z"/><path class="cls-24" d="M89.8,1.64l-.36,1c-.17.85-.82,1.19-1.55,1.43s-1.43.13-2.12.29c-.33.12-.65.25-1,.4l-.43.31a6.15,6.15,0,0,0-1,1.38,41.66,41.66,0,0,1-2.47,4.67,3.07,3.07,0,0,1-1.77,1.19c-1.17-.55-1-1.54-.88-2.54.69-2.74,3-4.95,2.75-8A1.25,1.25,0,0,1,81.82.69a20.27,20.27,0,0,1,5.65.49A1.61,1.61,0,0,0,89,1.1h0C89.54.94,89.78,1.14,89.8,1.64Z"/><path class="cls-25" d="M109.94,2.14,109.28.47a31.44,31.44,0,0,1,8.61.17,2.33,2.33,0,0,0,1.34,1.92C116.05,4.1,112.94,4.37,109.94,2.14Z"/><path class="cls-26" d="M76.26,3.29c-1,.11-1.5.84-1.93,1.64s-.9,1.54-1.36,2.3a6.15,6.15,0,0,1,0-1.36c.94-3.46,1.21-3.67,5-4a1.58,1.58,0,0,1-.56,1.83A1,1,0,0,1,76.26,3.29Z"/><path class="cls-27" d="M77.22,3.45c.25-.54.5-1.07.76-1.61A3.86,3.86,0,0,1,81.82.69c-.15.28-.3.56-.44.84a.8.8,0,0,1,0,1A5.14,5.14,0,0,1,80,3.32c-.45.25-.89.51-1.35.75a2,2,0,0,1-1,.18A.71.71,0,0,1,77.22,3.45Z"/><path class="cls-28" d="M69.4,141.41a4.46,4.46,0,0,1,5.28,2.46C73.12,142.62,71.16,142.23,69.4,141.41Z"/><path class="cls-25" d="M125.2,1c-1.11,1-2,.24-3-.28C123.25.13,124.22.61,125.2,1Z"/><path class="cls-29" d="M78.43,144.85a1.68,1.68,0,0,1,2.27.21A2.15,2.15,0,0,1,78.43,144.85Z"/><path class="cls-29" d="M81.43,145.18a7.37,7.37,0,0,1,.43-.78l1.73,1A2,2,0,0,1,81.43,145.18Z"/><path class="cls-29" d="M84.46,145.6a1.78,1.78,0,0,1,2.06.15A1.76,1.76,0,0,1,84.46,145.6Z"/><path class="cls-29" d="M86.55,145.75a1.67,1.67,0,0,1,2.13,0A2.35,2.35,0,0,1,86.55,145.75Z"/><path class="cls-17" d="M70.64,18.5a1.88,1.88,0,0,1-.21,2.37A2.45,2.45,0,0,1,70.64,18.5Z"/><path class="cls-30" d="M89.8,1.64a6.46,6.46,0,0,1-.75-.54A3,3,0,0,1,91.18.9Z"/><path class="cls-17" d="M66.92,45.39a1.75,1.75,0,0,1-.06,2A1.75,1.75,0,0,1,66.92,45.39Z"/><path class="cls-17" d="M66.85,47.44a1.85,1.85,0,0,1-.15,2.16A2.19,2.19,0,0,1,66.85,47.44Z"/><path class="cls-25" d="M122.2.69A1.66,1.66,0,0,1,120,.63,2.15,2.15,0,0,1,122.2.69Z"/><path class="cls-17" d="M66.41,52.55a1.8,1.8,0,0,1-.09,2.09A1.89,1.89,0,0,1,66.41,52.55Z"/><path class="cls-17" d="M66.32,54.65a1.8,1.8,0,0,1-.08,2.18A1.93,1.93,0,0,1,66.32,54.65Z"/><path class="cls-25" d="M120.09.61a1.6,1.6,0,0,1-2.17.05A2,2,0,0,1,120.09.61Z"/><path class="cls-17" d="M66.53,50.49a1.29,1.29,0,0,1,0,1.4A1.19,1.19,0,0,1,66.53,50.49Z"/><path class="cls-19" d="M65.87,137.61a1.14,1.14,0,0,1,.65,1.24A1.14,1.14,0,0,1,65.87,137.61Z"/><path class="cls-28" d="M66.53,138.83c.17.42.33.83.5,1.24A1.15,1.15,0,0,1,66.53,138.83Z"/><path class="cls-28" d="M67.05,140.11l1.11.73C67.49,141.06,67,141,67.05,140.11Z"/><path class="cls-30" d="M89,1.1a1.36,1.36,0,0,1-1.55.08A1.41,1.41,0,0,1,89,1.1Z"/><path class="cls-31" d="M137.68,147.69l-3.06-.26c-8.73-.33-17.45-.79-26.13-1.83l-.17,0-2.64-.73c-2.6-.13-3.84-3.53-6.79-2.81-2-.47-3.64-1.88-5.62-2.44-2.42-1-4.81-2.06-6.29-4.4-1.58-3.35-1.72-7-2.56-10.57-.15-.4-.27-.8-.39-1.21s-.25-.81-.36-1.22c-.29-1.26-.69-2.52,0-3.79a2.47,2.47,0,0,1,1-.8,11,11,0,0,1,2.61-.31c6.07.16,12.1,1,18.18,1a18.29,18.29,0,0,0,2.46.23c.41,0,.82-.06,1.23-.08a26.23,26.23,0,0,1,4.33.41,16.42,16.42,0,0,1,2.51.51,3.22,3.22,0,0,1,1.06.76c.54.93.77,2.51,1.89,2.49,6-.08,11.92,2.53,17.93.24,1.4-.54,2.16-1.74,3.19-2.67a2.62,2.62,0,0,1,2-.56,2.91,2.91,0,0,1,1.74,1.12c.83,1.79.19,3.62.13,5.44a24.32,24.32,0,0,0,0,2.7c.34,4.58.63,9.17-1.33,13.52A24.15,24.15,0,0,1,137.68,147.69Z"/><polygon class="cls-8" points="108.32 145.64 108.5 145.6 108.37 145.88 108.32 145.64"/><path class="cls-32" d="M87.14,134.2c1.85,2.3,4.52,3.4,7,4.75-1.45,1.31,1.69,3.84-1.25,4.76-2.49.53-4.9-.28-7.36-.35-.43,0-.86,0-1.3,0a1,1,0,0,0-.71-.09l-.42-.48c-.79-2.19-3.1-3.64-2.32-6.63C81.89,132.06,83.47,131.4,87.14,134.2Z"/><path class="cls-33" d="M92.91,143.71c.18-.44.38-.86.53-1.31.31-.9.15-1.55-1-1.49-.43,0-1,.28-1-.45a1,1,0,0,1,.49-.75c.7-.31,1.45-.52,2.18-.76a2.81,2.81,0,0,1,2.08.56c1,.67,2.05,1.19,3.08,1.78,1.42,2.05-.13,2.67-1.6,3.33Z"/><path class="cls-8" d="M97.72,144.62c.69-1,1.88-1.83,1.6-3.33,1.68-.27,3.29-.41,4,1.71.36,1.14,1.68,1.17,2.4,1.91Z"/><path class="cls-29" d="M81.87,144.4l-1.8-1a1.17,1.17,0,0,1,1.58-.64,1.41,1.41,0,0,1,.7,1A3.76,3.76,0,0,0,81.87,144.4Z"/><path class="cls-29" d="M84.25,143.39l1.31,0Z"/><path class="cls-29" d="M83.54,143.3l-1.19.45-.12-.4c.34-.64.78-.9,1.46-.46Z"/><path class="cls-34" d="M109.94,2.14c3.06.78,6.2.08,9.29.42l1.11.07a5.58,5.58,0,0,0,1.08,0c6.39,1.11,12.86.61,19.28,1,4.05-.16,8-.11,10.24,4.2,2,4.07,3.07,8.19.45,12.43a1.86,1.86,0,0,1-1.24.41c-2-.72-3.19-3.3-5.83-2.81l-1.19.12c-.4.05-.8.07-1.2.08-1.2,0-2.39-.08-3.59-.07L136,18a21.91,21.91,0,0,1-2.43-.06A33.77,33.77,0,0,0,128,17.6c-1.47,0-2.91-.31-4.38-.36-2.12-.12-4.24-.1-6.36,0s-4.33-.06-6.49,0a89.5,89.5,0,0,0-11.22-.44c-4.19-.18-8.37.29-12.55,0a2.72,2.72,0,0,1-2.5-.88,3.83,3.83,0,0,1-.08-1.39c.85-2.42.18-5.16,1.56-7.47a5.24,5.24,0,0,1,3.53-2.16c6.55-1.9,13.36-1.66,20.06-2.37A2.23,2.23,0,0,0,109.94,2.14Z"/><path class="cls-35" d="M150.19,8.54c-.45-.62-.91-1.23-1.33-1.86a5,5,0,0,0-4.62-2.43,5.54,5.54,0,0,1-3.54-.63l2.87-.89c2.07,0,3.8,1.55,5.92,1.26l1.63.66a1.67,1.67,0,0,1,2,1.14C152.86,7.5,152.67,9.23,150.19,8.54Z"/><path class="cls-25" d="M121.42,2.67l-1.08,0Z"/><path class="cls-36" d="M143.55,121.18l-1.53-.69c-.57-1.32.61-1.92,1.15-2.77,1-1.08,2.1-2.12.77-3.68a7.54,7.54,0,0,1-.67-1.12,5.88,5.88,0,0,1-.32-1.3c.41-8.55-.22-17.18,1.94-25.6a6,6,0,0,1,6.76,4.34c.22,1-.14,2.21.68,3.13a133.29,133.29,0,0,1-1.7,24.27,9.45,9.45,0,0,0,0,1.84,61.53,61.53,0,0,0-1.18,15.2,1.67,1.67,0,0,1-.56,1.77c-4.17-1.58-5.11-4.66-4.06-8.68.14-1.24-.69-2.14-1.12-3.18A10.75,10.75,0,0,0,143.55,121.18Z"/><path class="cls-37" d="M153.67,63.42a47,47,0,0,1-.07,9.41,69.92,69.92,0,0,0-.21,7.53c-2,4.8-3.34,5.28-7.85,2.93a3.13,3.13,0,0,1-.09-3.34c1-1.62,2.52-.62,3.89-.75-.67-1.62-2.42-2-3.36-3.26a4.86,4.86,0,0,1-.77-2.56c.13-3.11.5-6.2.71-9.3a55.78,55.78,0,0,1,.94-9.73c.86-1.44,1-3.26,2.22-4.5a1.43,1.43,0,0,1,1.17-.2,1.7,1.7,0,0,1,.73.92c.17,1.78,2.55.68,2.9,2.22l.06,1.22c.84,1.73-3.21,3.24-.23,5.06v0A6.2,6.2,0,0,0,153.67,63.42Z"/><path class="cls-38" d="M155.24,34.45c-.3,4.12.08,8.28-.87,12.34-2.09.22-.7,4.34-3.81,3.4h0a2.82,2.82,0,0,0-.6-.92,4.19,4.19,0,0,1-.42-1.06,17.65,17.65,0,0,1-.56-2.39c.27-4.38-.12-8.79.47-13.15.2-1.45-.37-3.27,1.66-4,1,.08,2.27.72,2,1.44C152.36,32.44,154.22,33.19,155.24,34.45Z"/><path class="cls-39" d="M145.86,82.92c1.58,1.2,3.3.66,5,.37.76-.13.82-.82,1-1.42a1.81,1.81,0,0,1,1.58-1.51,74,74,0,0,1-1.06,13.13c-.44.23-1,.31-1.15-.19a22.39,22.39,0,0,1-.34-3.19c0-.48-.15-1-.65-1.06-1.88-.11-2.35-1.74-3.32-2.85-.23-.26-.87-.14-1.33-.2C144.43,84.85,144.35,83.8,145.86,82.92Z"/><path class="cls-40" d="M150.19,8.54c1.72-.24,1.89-1.85,2.62-3a1,1,0,0,1,1.1.34,20.22,20.22,0,0,1,3.24,8.17,2.1,2.1,0,0,1,0,2.1.94.94,0,0,1-.49,1.07c-3.43-1.14-2.79,3.15-4.94,3.71a1.1,1.1,0,0,1-1.07-.57C152.44,16.37,152,12.43,150.19,8.54Z"/><path class="cls-41" d="M155.24,34.45,152,33.07c.66-1.65,1-3.39-1.28-4.16-1.57-1.58-.67-3.16,0-4.75a4.64,4.64,0,0,1,2.38-2.47,1.32,1.32,0,0,1,1.16.49,37.33,37.33,0,0,1,.69,3.8c.08,2.1-.48,4.26.62,6.26A2.65,2.65,0,0,1,155.24,34.45Z"/><path class="cls-42" d="M150.56,50.19A1.35,1.35,0,0,0,151.83,49a17.61,17.61,0,0,1,.5-2.29c.3-.92.75-.89,2,0q-.26,3-.49,6c-.44-.1-.91-.37-1.31-.29-2.49.47-2.49.49-2.18-1.88A1.75,1.75,0,0,1,150.56,50.19Z"/><path class="cls-43" d="M157.15,14.08c-1.34-1.9-1.83-4.29-3.43-6.07-.59-.64-.31-1.47,0-2.21.05-.47.29-.58.7-.37l.14.05c.66.94,2,1.12,2.57,2.13C157.44,9.77,158.08,11.92,157.15,14.08Z"/><path class="cls-44" d="M154.41,25.54c-1.28-1.33-1.28-1.33-.35-3.42.72-1.8.57-4,2.5-5.23a3.92,3.92,0,0,1,.57-.72c.61,3.17-.31,6.23-.66,9.33A2.1,2.1,0,0,1,154.41,25.54Z"/><path class="cls-45" d="M154.41,25.54a1.86,1.86,0,0,1,2.06,0c-.49,2.22-.05,4.57-.93,6.74-.55.29-1.59.48-1.56,0C154.14,30,153,27.67,154.41,25.54Z"/><path class="cls-46" d="M153.71,59.07a3.4,3.4,0,0,0-2.25,0c-.62.25-1.32.28-1.41-.52a2.13,2.13,0,0,1,.57-1.63c1.06-1,2.89-1.13,3.32-2.89A7.65,7.65,0,0,1,153.71,59.07Z"/><path class="cls-46" d="M153.67,63.42a8.17,8.17,0,0,1-.63-.69c-1.36-2-1.36-2,.66-3.62C154.5,60.55,154.15,62,153.67,63.42Z"/><path class="cls-13" d="M157.1,7.61a7.78,7.78,0,0,1-2.57-2.13C155.61,5.92,156.83,6.2,157.1,7.61Z"/><path class="cls-13" d="M154.39,5.43a3.91,3.91,0,0,0-.7.37l-.41-.23h-.47l-1.69-.92C152.43,4,153.39,4.8,154.39,5.43Z"/><path class="cls-11" d="M148.62,136.51l.85-1.71c.71,1,.07,1.95-.15,2.91l-.34.09C148.23,137.54,148.05,137.13,148.62,136.51Z"/><path class="cls-47" d="M148.62,136.51l.36,1.29c-1,1.92-1.37,4.22-3.14,5.73a6.72,6.72,0,0,1-4.43-1.06c1.76-3.61,1.68-7.47,1.5-11.33a5.56,5.56,0,0,1,.2-2.72l.43-.36a3.57,3.57,0,0,1,2.14-.49c.69,1.11-.19,2.05-.29,3.07-.12,1.21-.15,2.78,1.25,3.1C148.37,134.13,148,135.6,148.62,136.51Z"/><path class="cls-48" d="M141.41,142.47c1.83-1.12,3.21-.38,4.43,1.06l-2,2.26-.25,0-.2-.15c-1.39.1-2.36,1-3.46,1.72a3.12,3.12,0,0,1-2.29.37,2.21,2.21,0,0,1,.71-2C139.45,144.69,140.41,143.56,141.41,142.47Z"/><path class="cls-31" d="M140,147.32a2.87,2.87,0,0,1,3.46-1.72c-.4.44-.81.87-1.22,1.31Z"/><path class="cls-49" d="M67.06,86.9c-.09-3.66.45-7.29-.17-11-.29-1.7.61-3.6,1-5.4.22-2.08,1-3.59,3.46-3.24a2.47,2.47,0,0,1,1.51,2.24c.34,5.69.26,11.38,0,17.07,0,1.27-.46,2.53-2,2.84A3.86,3.86,0,0,1,67.06,86.9Z"/><path class="cls-50" d="M65.64,115.05c.13-3.75.23-7.5.39-11.25a15.43,15.43,0,0,0-.4-5.11,5.08,5.08,0,0,1,.47-.57,7.09,7.09,0,0,1,5.37-1.79c1.75,4.89,1.26,9.8.07,14.7-1.37,1.86-2.79,3.65-5.23,4.15Z"/><path class="cls-51" d="M71.61,67.88c-2.07-.29-2.94,1.13-3.76,2.64a7.46,7.46,0,0,1,0-4.19,15,15,0,0,0,.08-5.63,12.58,12.58,0,0,0,.39-6.15A1.38,1.38,0,0,1,69,53.41a3.25,3.25,0,0,1,3.92-.21c2,3.32.17,6.85.58,10.26C73.32,65.13,73.44,66.92,71.61,67.88Z"/><path class="cls-52" d="M71.14,96.17c-1.1,2.16-3.18,1.78-5,2,.28-3.74,0-7.53,1-11.22l4.36,2.19C73.54,91.54,72.87,93.88,71.14,96.17Z"/><path class="cls-53" d="M72.63,19.22c1.11-2.13,1.08-4.5,1.49-6.78.33-1.82.3-3.72,1.27-5.39a2.79,2.79,0,0,1,2.8.46A2.71,2.71,0,0,1,79,8.7a3.13,3.13,0,0,1-.39,1.4c-.36,3.08-.25,6.2-.92,9.25-.37,1.66-.29,3.5-1.9,4.65-2.59.28-2.3-2-3-3.39C72.74,20.15,72.69,19.68,72.63,19.22Z"/><path class="cls-54" d="M68.86,43.16q1.22-5.31,2.44-10.61c1.2-.54,2.32-1.61,3.77-.58,1.73,3.18,1,6.29-.25,9.4A7.05,7.05,0,0,1,70,44a1.41,1.41,0,0,1-1.09-.75Z"/><path class="cls-55" d="M74.46,32.08c-1.08,0-2,1.3-3.16.47.32-3,.65-6,1-8.94-.13-.71.42-1.35.18-2.07l.35-.93c1.61.6,1.6,2.47,2.71,3.46C77.46,27,76.87,29.68,74.46,32.08Z"/><path class="cls-53" d="M72.45,21.54a1.81,1.81,0,0,1-.18,2.07A2.15,2.15,0,0,1,72.45,21.54Z"/><path class="cls-50" d="M66.41,130.37c-.68-3.39-.23-6.91-1.17-10.27.31-1.67-.8-3.45.4-5l.25,0a1.75,1.75,0,0,1,2.22,1.69c-.06,3.51,1.42.16,2,.52,2.47,3.32,1.71,6.77.43,10.24-.14,1.11-1.64-1.52-1.57.6A2.06,2.06,0,0,1,66.41,130.37Z"/><path class="cls-56" d="M66.41,130.37c.8-.62,1.7-1,1.92-2.27s.4-1.29,1.87-.37l.31.41a4.71,4.71,0,0,1,.33,1c.06.35.11.7.14,1,.09.55.2,1.1.34,1.64a11.38,11.38,0,0,1,.12,5.38h0a1.12,1.12,0,0,1,.12,1.2c-.3.59-.59,1.19-1.42,1.07l-.33-.17c-.42-.65-1.21-1-1.57-1.67l0-.06c-.44-1.75-2-3.15-1.6-5.15-.32-.68.36-1.42-.13-2.09Z"/><path class="cls-50" d="M66.46,130.32a1.71,1.71,0,0,1,.13,2.09A2,2,0,0,1,66.46,130.32Z"/><path class="cls-57" d="M109.59,2.54C108,3.76,106,3.67,104.23,3.66a47.73,47.73,0,0,0-13,1.94,9.1,9.1,0,0,1-1.39.16c-1.31-.31-2.26-1-2.32-2.45l1.88-.68c4.39.8,8.76,0,13.13-.28C104.93,2.19,107.26,1.87,109.59,2.54Z"/><path class="cls-58" d="M71.44,137.19c-1.15-1.86-.45-4-1-6-.27-.7.34-1.41,0-2.11h0a12.84,12.84,0,0,1-.26-1.35h.1a42.41,42.41,0,0,0,0-10.62c-.11-.18-.22-.36-.34-.54a11.5,11.5,0,0,1,.29-4.41,1.08,1.08,0,0,1,.67-1,95.38,95.38,0,0,0,.32-15,32.35,32.35,0,0,0,.28-7.09c.59-1.53.29-3.13.29-4.69,0-5.51-.06-11-.1-16.52.33-1.56.66-3.11,1-4.66-.06-1,.28-1.68,1.37-1.8a1.9,1.9,0,0,1,1.26,1.36,6.11,6.11,0,0,1,.2,1.27c0,.63,0,1.27,0,1.91,0,2.09-.51,4.15-.44,6.25,0,.82,0,1.64,0,2.47,0,.4,0,.81,0,1.22,0,1.41-.05,2.83,0,4.25,0,.41,0,.82,0,1.22,0,.83,0,1.65,0,2.47-.07,2.31.41,4.6.1,6.91,0,.41,0,.82-.08,1.23,0,.81,0,1.63,0,2.45.06,2.27-.28,4.53-.2,6.81-.13,3.9-.31,7.79-.28,11.69,0,.79-.06,1.58-.08,2.36,0,.19,0,.38,0,.56,0,.37,0,.74,0,1.1,0,.55,0,1.09,0,1.64,0,.73,0,1.46,0,2.19,0,.37,0,.75,0,1.12a6.31,6.31,0,0,1-.11,1.15c-.16.76-.37,1.51-.46,2.29a27.12,27.12,0,0,0,.41,4.32c0,2.09,1,4.34-.89,6.17C72.41,135.89,72,136.59,71.44,137.19Z"/><path class="cls-59" d="M83.69,142.89l-1.46.46a2.63,2.63,0,0,0-2.16,0l-.61-.28a15.56,15.56,0,0,0-1.24-1.47c-2.29-3-3.82-6.2-3.48-10.07a16.83,16.83,0,0,0,.45-2.2,8.85,8.85,0,0,0-.19-1.05c-.26-.87-.77-1.76.16-2.55a2,2,0,0,1,2.62.66,7.24,7.24,0,0,1,.64,1c.3.48.54,1,1.13,1.2,2-1.48,3.26-3.79,5.41-5.11a9.73,9.73,0,0,1,1,2.57,20.59,20.59,0,0,0,1.37,6.72c.16.36-.09.9-.16,1.36a6.08,6.08,0,0,0-4.16-.68c-1.36,1.48-.88,3.5-1.37,5.26a.83.83,0,0,0,.64,1.06c.75.15,2.1-.88,2,.85C84.15,141.38,83.5,142.06,83.69,142.89Z"/><path class="cls-60" d="M75.89,130.76a8.22,8.22,0,0,0,.72,5.9c.75,1.72,1.55,3.43,2.32,5.14-1.15.33-1.91-.35-2.67-1l-2.18-2.44a2.36,2.36,0,0,0-.33-1l0-.2a5,5,0,0,0-.33-1.12l-.05-.13q0-3.22,0-6.45c.35-2,1.17-2.33,2.56-.75l0,.07C76.2,129.39,75.63,130.07,75.89,130.76Z"/><path class="cls-29" d="M76.26,140.76l2.67,1c.18.43.36.87.53,1.3C78.26,142.51,76.79,142.27,76.26,140.76Z"/><path class="cls-28" d="M68.22,137.62a3.11,3.11,0,0,1,1.56,1.67C69,139,68.3,138.59,68.22,137.62Z"/><path class="cls-28" d="M70.12,139.46l1.2-1.42a.53.53,0,0,1,.75.39C71.67,139.23,71.15,139.84,70.12,139.46Z"/><path class="cls-28" d="M73.37,136a.88.88,0,0,1,.33,1.12Z"/><path class="cls-28" d="M73.75,137.28l.33,1Z"/><path class="cls-58" d="M72.07,138.43c-.25-.14-.5-.26-.75-.39a.82.82,0,0,1,.1-.85A1.27,1.27,0,0,1,72.07,138.43Z"/><path class="cls-61" d="M78.09,8.28l-2.7-1.23h-.08c-.1-.72.34-1.37.26-2.09a2.88,2.88,0,0,1,.4-.73c.6-.53,1.36.21,2-.23h0c.79-.06,1-1.05,1.77-1.13L81,2.3c1.62.49.77,1.39.38,2.22C80.06,5.61,79.84,7.61,78.09,8.28Z"/><path class="cls-62" d="M78,4a1.89,1.89,0,0,1-2,.22l.3-.92,1,.16C77.46,3.64,77.7,3.82,78,4Z"/><path class="cls-62" d="M75.57,5A2.15,2.15,0,0,1,75.31,7,1.72,1.72,0,0,1,75.57,5Z"/><path class="cls-63" d="M69.53,43.7,74,41.52a1.8,1.8,0,0,1,.28,1c0,.51-.07,1-.1,1.53,0,.35,0,.69,0,1a16.23,16.23,0,0,0,.2,2.1,6.07,6.07,0,0,1-.51,3.26c-.26.69-.47,1.4-.66,2.11a1.51,1.51,0,0,1-.68.85l-3.7.4c-.45,0-.63-.14-.53-.58a1,1,0,0,0,.2-.68c-.25-.78.27-1.49.19-2.24a1.24,1.24,0,0,0,.2-.77,2.62,2.62,0,0,1-.11-1.44,1,1,0,0,0,.12-.68c-.21-.72.33-1.4.1-2.12v0A1.25,1.25,0,0,1,69.53,43.7Z"/><path class="cls-17" d="M69.53,43.7,69,45.29a1.79,1.79,0,0,1-.11-2.07A5,5,0,0,1,69.53,43.7Z"/><path class="cls-17" d="M69,45.27a2.17,2.17,0,0,1-.09,2.12A1.83,1.83,0,0,1,69,45.27Z"/><path class="cls-17" d="M68.67,50.28a2.53,2.53,0,0,1-.19,2.24A1.84,1.84,0,0,1,68.67,50.28Z"/><path class="cls-17" d="M68.28,53.2a7.29,7.29,0,0,0,.53.58c-.15.26-.31.52-.48.77A1.29,1.29,0,0,1,68.28,53.2Z"/><path class="cls-17" d="M68.76,48.07c0,.48.07,1,.11,1.44A1.34,1.34,0,0,1,68.76,48.07Z"/><path class="cls-64" d="M73.8,42.2a2,2,0,0,0,.18-.68c.72-3.12,1.4-6.24.48-9.44.44-2.66,1.18-5.28,1.05-8,1-2.8.93-5.78,1.5-8.65.39-1.94.27-4,1.52-5.76.41-.25.66-.15.72.34a2.18,2.18,0,0,0-.14,2.1A4.36,4.36,0,0,1,80,14.47a12.49,12.49,0,0,1-.17,5.13,24.6,24.6,0,0,0-.46,2.54c-.81,4.52-1.9,9-1.67,13.66a18.75,18.75,0,0,1-.1,2,7.68,7.68,0,0,1-.51,1.95A8.53,8.53,0,0,1,76.54,41a4.26,4.26,0,0,1-1.87,1.93A.69.69,0,0,1,73.8,42.2Z"/><path class="cls-65" d="M87.56,3.31l2.32,2.45c-1,.68-2.49.35-3,1.74-1.69-.43-2.65,1.9-4.42,1.16-.82-1.52.59-2.45.95-3.66a1.87,1.87,0,0,1,1-.9h0a5.6,5.6,0,0,0,1.17-.53Z"/><path class="cls-66" d="M83.89,4.93C83.45,6.16,82.3,7.22,83,8.72a3.41,3.41,0,0,1-.19,2.89A4.9,4.9,0,0,1,81,13.87a1.29,1.29,0,0,1-1.35-.13c-.56-1.25.85-2.16.59-3.36q1.42-2.79,2.86-5.58C83.42,4.45,83.69,4.5,83.89,4.93Z"/><path class="cls-67" d="M79.25,10l-.73-.34.24-1.05a7.46,7.46,0,0,1,2-4.16c.56-.67,1-1.36.18-2.15l.42-.77c.82.54,1.47,1.19,1,2.26C81.33,5.87,80.28,7.93,79.25,10Z"/><path class="cls-67" d="M80.23,10.38c.43,1.13-.3,2.1-.41,3.15l-.09.58-.53.25a2.41,2.41,0,0,1-.09-2.26C79.48,11.53,79.85,11,80.23,10.38Z"/><path class="cls-67" d="M83.89,4.93l-.8-.13a1.2,1.2,0,0,1,1.27-.7C84.21,4.38,84.05,4.65,83.89,4.93Z"/><path class="cls-67" d="M85.52,3.58a1.07,1.07,0,0,1-1.17.53A1.12,1.12,0,0,1,85.52,3.58Z"/><path class="cls-62" d="M79.72,2.86C79.33,3.55,78.85,4.1,78,4A1.93,1.93,0,0,1,79.72,2.86Z"/><path class="cls-68" d="M106.13,119.36a155.76,155.76,0,0,1-19.67-1.12c-.68,0-1.32-.45-2-.18h.07c-1.61.45-2.3-.76-3.12-1.74a5.21,5.21,0,0,1-.72-1.68c-.14-.76-.13-1.53-.24-2.29-.12-.54-.25-1.08-.38-1.62a6.61,6.61,0,0,1-.13-2.26,10.23,10.23,0,0,1,.31-1.74,2.41,2.41,0,0,1,.68-1,2.17,2.17,0,0,1,2.32.35,3.29,3.29,0,0,1,.9,1.59,13.3,13.3,0,0,0,1.81,5c1.55,1.8,3.71,1.61,5.76,1.77,2.35.12,4.54,1,6.85,1.36.62,0,1.24,0,1.87,0,1.43.13,2.85.41,4.28.61.62.08,1.25.17,1.87.29a4.7,4.7,0,0,1,1.21.48c.62.6,1.42,1.16.5,2.12h0C107.56,119.66,106.84,119.07,106.13,119.36Z"/><path class="cls-69" d="M140.69,120.72c-.75,2.71-3.18,3.4-5.38,4a8.64,8.64,0,0,1-5.58.16c-2.06-.8-4.43,0-6.49-1-1.71,1.6-3.51.27-5.24.09-1.56-.17-1.71-.75-1.49-3.09a2.54,2.54,0,0,0-.25-.89c.95-1.35,2.32-.8,3.57-.8,2,.41,4,.41,6.06.67.39,0,.77.09,1.16.15s.76.06,1.15.1a19.68,19.68,0,0,1,2.29.21,6.5,6.5,0,0,1,1.58.68c1.31.78,2.56.21,3.82-.2C137.49,120.54,139.07,119.24,140.69,120.72Z"/><path class="cls-70" d="M81.84,115.56l2.66,2.5c-.93,1.41-.12,2.82,0,4.23a4.63,4.63,0,0,0,.48,1.27h0a22.57,22.57,0,0,0-.88,2.18c-.18.62-.22,1.32-.93,1.51-1.69.45-2.66,1.38-2.45,3.24l-1.33-.13c-.52-1-1.22-1.94-1.72-3h0c-.2-3,1.49-5.66,1.27-8.62-.61-1.42-1-2.81.71-3.78a2.56,2.56,0,0,1,1.22-.18A3.17,3.17,0,0,1,81.84,115.56Z"/><path class="cls-71" d="M110,139.29a4.28,4.28,0,0,1-3.88-1.15A6.83,6.83,0,0,1,108,126.79a8.14,8.14,0,0,1,4.53-.82,2.59,2.59,0,0,1,.15,2.53c-1.94,1.91-5.34,3-3.83,6.85a2.77,2.77,0,0,0,1.63,1.48,3.35,3.35,0,0,1,1,.69c.33.55.48,1.1-.13,1.58h0A5.42,5.42,0,0,0,110,139.29Z"/><path class="cls-72" d="M131.67,121.49l-1.72-.72a2,2,0,0,1-1.86-.73,2.29,2.29,0,0,1,.21-1.34c1.7-1.77,3.8-.87,5.76-.85a10.46,10.46,0,0,0,4.24-.2c2.47-.88,1.74-4.09,3.82-5.25a1.32,1.32,0,0,1,1.77.15l0,0c-.15.69.38,1.11.66,1.63,1,1.52-.54,2.71-.56,4.1a5.8,5.8,0,0,1-1.94,2.23l-1.33.23a3.14,3.14,0,0,0-2.17.21c-.83.29-1.71.46-2.58.68C134.52,121.65,133.07,122.32,131.67,121.49Z"/><path class="cls-73" d="M119.72,119.93c-1.14.44-2.32-.56-3.46.06a1.18,1.18,0,0,0-.8-.14c-.73.24-1.42-.3-2.14-.14l-5-.36c0-.87-.62-1.28-1.26-1.67,4.63-2.4,9.17-2.09,13.64.44A1.51,1.51,0,0,1,119.72,119.93Z"/><path class="cls-74" d="M117.85,128.29a4.59,4.59,0,0,1,2.3,5.11c-.46,2.24-1.38,4.48-4.21,4.85-.9-.05-1-.67-1-1.38,2-2.48,1.08-5.34,1.09-8.08A1.8,1.8,0,0,1,117.85,128.29Z"/><path class="cls-75" d="M117.85,128.29l-1.81.57a2.21,2.21,0,0,1-1,.12,11.54,11.54,0,0,1-1.53-.23,1.52,1.52,0,0,1-.84-.54,2.16,2.16,0,0,1-.17-2.24c1.42-.45,2.88-1.2,4,.56,0,.88.87,1.15,1.33,1.71Z"/><path class="cls-76" d="M115.46,136.76l.48,1.49a5.91,5.91,0,0,1-4.66.85l-.48-1.43C112,135.63,113.66,135.78,115.46,136.76Z"/><path class="cls-47" d="M143.55,121.18a2.83,2.83,0,0,1,.44,3.4,1.24,1.24,0,0,1-.33,1.52l-.54.19C142.6,124.53,143.17,122.87,143.55,121.18Z"/><path class="cls-70" d="M84.43,118.06a1.73,1.73,0,0,1,2,.18A1.63,1.63,0,0,1,84.43,118.06Z"/><path class="cls-74" d="M117.8,128.24a1.44,1.44,0,0,1-1.33-1.71A1.74,1.74,0,0,1,117.8,128.24Z"/><path class="cls-73" d="M106.13,119.36a1.77,1.77,0,0,1,2.14,0A1.83,1.83,0,0,1,106.13,119.36Z"/><path class="cls-69" d="M113.32,119.71a1.73,1.73,0,0,1,2.14.14A1.87,1.87,0,0,1,113.32,119.71Z"/><path class="cls-47" d="M143.11,128.42a2.06,2.06,0,0,1,0-2.13h.06c1.31.7,1,1.4,0,2.11Z"/><path class="cls-59" d="M85,123.56a1.29,1.29,0,0,1-.48-1.27A1.32,1.32,0,0,1,85,123.56Z"/><path class="cls-76" d="M110,139.29a1,1,0,0,1,1.27-.19A.93.93,0,0,1,110,139.29Z"/><path class="cls-77" d="M151.72,24.35a7.73,7.73,0,0,0-1,4.56l-.63,17.87c.34.7-.23,1.43,0,2.13h0c.13.29.12.52,0,.67s-.29.21-.36.18a15.94,15.94,0,0,0-.81,2.57c-.11.82-.3,1.47-1.1,1.81a2,2,0,0,1-1.1-1.4,7.61,7.61,0,0,1-.15-1.25c-.05-.64-.07-1.28-.1-1.92,0-7.78,1.06-15.48,1.7-23.2.08-.63.22-1.24.36-1.85s.18-1.18.23-1.78c.12-1,0-2,.92-2.73l1,.38.83.47a2.17,2.17,0,0,1,.39.94,8.87,8.87,0,0,1,0,1C151.83,23.33,151.77,23.84,151.72,24.35Z"/><path class="cls-78" d="M80.48,13.78l1.3-2.42c1.51.48,1.94,1.3.81,2.6,1.23-.46,2.48-1,2.51,1.16a8.52,8.52,0,0,1-.26.86A3.87,3.87,0,0,1,85,17.7c-.05.6-.11,1.19-.17,1.79a10.35,10.35,0,0,1-.21,1.24c-.82,2.79-2.43,4-5.3,2.62a1.24,1.24,0,0,1-.27-1.11c.64-.94.15-1.85-.07-2.76l.21-5.12.44.05A1.18,1.18,0,0,1,80.48,13.78Z"/><path class="cls-79" d="M86.8,16a3.7,3.7,0,0,1,1.31-.39c3.79.29,7.59-.46,11.38.19,1,0,1.14.57,1.06,1.37-3.07,3-6.83,1.18-10.29,1.47a7.52,7.52,0,0,0-1.89.12,3.39,3.39,0,0,1-1.27,0,1.93,1.93,0,0,1-1.35-1.29A1.62,1.62,0,0,1,86.8,16Z"/><path class="cls-80" d="M85.1,15.12a1.66,1.66,0,0,0-.3-.34,6.44,6.44,0,0,1-3-3.42L83,8.72c.54-.55,1.07-1.11,1.6-1.66,1-1,1.61-.4,2.21.44a4.75,4.75,0,0,0-.66,3.18A5.41,5.41,0,0,1,85.1,15.12Z"/><path class="cls-81" d="M149.67,20c.05,1.15.09,2.3.14,3.45a4.91,4.91,0,0,1-.85.65,2.23,2.23,0,0,1-1.05-.19,2.5,2.5,0,0,1-1-1.22,12,12,0,0,0-.62-1.42A3.46,3.46,0,0,0,144.73,20c-1-.44-2.33-.49-2.83-1.79a1.08,1.08,0,0,1,.58-1l0,.14a1.68,1.68,0,0,0,1.36-.66C147.81,16.92,147.81,16.92,149.67,20Z"/><path class="cls-82" d="M100,17.3l-.55-1.48c3.86-.65,7.66.07,11.48.45a1.22,1.22,0,0,1,1.16.61c-1.82,2.6-4.54,1.72-7,1.83C103.43,18.22,101.42,18.9,100,17.3Z"/><path class="cls-83" d="M117.51,16.36a18.12,18.12,0,0,1,6.36.15,1.63,1.63,0,0,1-.05,1.15,3.16,3.16,0,0,1-2.65,1.08,9.33,9.33,0,0,1-1.18,0,7.06,7.06,0,0,1-1.78-.22A2,2,0,0,1,117,17.3.86.86,0,0,1,117.51,16.36Z"/><path class="cls-84" d="M128.1,16.61a10,10,0,0,1,5.87.64c1.14.08,1.05.73.7,1.51-2.48.87-4.88,1.11-7-.94A.81.81,0,0,1,128.1,16.61Z"/><path class="cls-85" d="M117.51,16.36l-.4,1-.47.46a4.59,4.59,0,0,1-1.24.44c-1.32,0-2.7.23-3.5-1.23l-.93-.78A21.09,21.09,0,0,1,117.51,16.36Z"/><path class="cls-86" d="M128.1,16.61c-.16.34-.31.67-.46,1-1.45,1.57-2.86,1.47-4.23-.1.15-.33.31-.67.46-1A7.18,7.18,0,0,1,128.1,16.61Z"/><path class="cls-87" d="M86.8,16l-.67,1.77a2.39,2.39,0,0,1-.47,1.93c-.57.47-1.14.75-1.76.08l.32-.9a10.06,10.06,0,0,0-.31-1.23L84.84,16Z"/><path class="cls-88" d="M142.48,17.2l-.39,1.11c-1.14,1.06-2.27.82-3.41,0a1.64,1.64,0,0,1-.43-1.14A9.74,9.74,0,0,1,142.48,17.2Z"/><path class="cls-89" d="M134.6,18.45l-.63-1.2a2.84,2.84,0,0,1,2.16,0,1.06,1.06,0,0,1,1.11.46,1.74,1.74,0,0,1-.49,1.18C135.93,19.24,135.09,19.66,134.6,18.45Z"/><path class="cls-88" d="M137.14,17.87c-.33-.2-.67-.39-1-.58a2.42,2.42,0,0,1,2.13-.13l.08.36C138.11,18.22,137.73,18.4,137.14,17.87Z"/><path class="cls-90" d="M143.87,16.68a1.34,1.34,0,0,1-1.36.66A1.37,1.37,0,0,1,143.87,16.68Z"/><path class="cls-91" d="M143.89,112.55l-1.78.7a1.42,1.42,0,0,1-1-.76,5.59,5.59,0,0,1-.35-1.29,123.94,123.94,0,0,1,.43-14.55c.16-2.48.53-5,.55-7.44,1-4.85-.05-10,1.91-14.72.65-.71,1.23-1.66,2.42-.89l.27,2.13c.88,1.46.07,2.83-.24,4.22a4.46,4.46,0,0,0-.22,3,5.24,5.24,0,0,0-.32,3.08,198.1,198.1,0,0,0-1.42,25.65A3.72,3.72,0,0,1,143.89,112.55Z"/><path class="cls-92" d="M144,118.26l0-4.38a.63.63,0,0,1,.54-.78C146.71,115.5,146.68,115.74,144,118.26Z"/><path class="cls-93" d="M143.19,128.39a2.14,2.14,0,0,0,0-2.11l.81-1.7c2,1.15,2,1.15,1.69,3A1.65,1.65,0,0,1,143.19,128.39Z"/><path class="cls-47" d="M146.62,124.19c-.09.09-.22.26-.27.24s-.2-.19-.3-.29c.09-.08.22-.26.26-.24A1.41,1.41,0,0,1,146.62,124.19Z"/><path class="cls-91" d="M144.47,113.1q-.25.41-.54.78a1.19,1.19,0,0,1-.07-1.35A1.46,1.46,0,0,1,144.47,113.1Z"/><path class="cls-94" d="M147.35,52.57c.15.52.31,1,.46,1.57-.34,3.33-.69,6.66-1,10,.11,1.05-.24,1.74-1.41,1.78a1.69,1.69,0,0,1-.84-1,19.09,19.09,0,0,1-.51-5.11c.08-1,.29-2,.34-3.08a5.94,5.94,0,0,1,.77-3A2.88,2.88,0,0,1,147.35,52.57Z"/><path class="cls-95" d="M146.08,80a7.32,7.32,0,0,1,.24-4.22c2.5.06,3.48,2.36,5.21,3.56.09.07,0,.63-.2.85a1.85,1.85,0,0,1-2.82.53C147.73,80.08,147.15,79.36,146.08,80Z"/><path class="cls-96" d="M145.11,65.53c.87-.1,1.25-.77,1.67-1.4a35.48,35.48,0,0,1-.73,9.47c-.85.07-1.22.71-1.6,1.34a1.08,1.08,0,0,1-1-.58,12.07,12.07,0,0,1,0-3.12,21.68,21.68,0,0,1,.39-3.68C144.08,66.76,144.18,65.89,145.11,65.53Z"/><path class="cls-42" d="M149.72,49.76c.12-.29.26-.57.4-.85l.44,1.28Z"/><path class="cls-42" d="M150.12,48.91a2,2,0,0,1,0-2.13A1.8,1.8,0,0,1,150.12,48.91Z"/><path class="cls-97" d="M151.09,21.68c.13-.27.25-.55.37-.82.87-1.75,2.09-3.38,1.76-5.5a4.06,4.06,0,0,1,3.34,1.53c-.17,1-.29,2.07-.53,3.08s-.72,2-2,2.15h0c-.87-1.35-1.47.09-2.19.23A.83.83,0,0,1,151.09,21.68Z"/><path class="cls-44" d="M151.89,22.13c1.22-1.44,1.42-1.44,2.16,0-1.37.12-1.67,1.36-2.33,2.24-.1-.47-.21-.93-.31-1.39a.58.58,0,0,1,.12-.67C151.7,22.15,151.82,22.09,151.89,22.13Z"/><path class="cls-98" d="M70.82,111.2a.68.68,0,0,1-.16.68c-.25,1.76-.81,3.49-.51,5.3l0-.07A6.63,6.63,0,0,0,69,120.55a1.12,1.12,0,0,1-1.34,1c-.62-.1-.47-.61-.42-1.07.22-2,.73-4-1.38-5.43Z"/><path class="cls-99" d="M74.47,42.75,76,40.15a1,1,0,0,1,.88.66,5.66,5.66,0,0,1,0,1.79q0,.91-.06,1.83c-.19,2.52-.42,5-.64,7.55,0,.41-.08.81-.12,1.22S76,54,76,54.39c-.09,1.16-.12,2.33-.17,3.49a27.08,27.08,0,0,1-.44,2.82l-.18.54a1.07,1.07,0,0,1-.9.57c-.84.14-1.25.78-1.68,1.41a14.69,14.69,0,0,1,0-4.68c.12-1.71,0-3.44,0-5.16a2.26,2.26,0,0,0,.17-.81c-.18-.79.32-1.51.22-2.3a8.64,8.64,0,0,0,.67-3.69c-.24-.71.34-1.41.06-2.12h0A1.26,1.26,0,0,1,74.47,42.75Z"/><path class="cls-100" d="M80.78,4.45c-.68,1.39-1.35,2.77-2,4.16l-.36-.12-.31-.21C78.88,6.93,78.89,5,80.78,4.45Z"/><path class="cls-50" d="M70.36,129.08a2.2,2.2,0,0,1,0,2.11A2,2,0,0,1,70.36,129.08Z"/><path class="cls-50" d="M70.1,127.73a1.13,1.13,0,0,1,.26,1.35A1.36,1.36,0,0,1,70.1,127.73Z"/><path class="cls-101" d="M83.9,19.8l1.41-.27c2.07,4.65.27,9-.89,13.47-1.64,5.1-3.93,10.09-2.5,15.67a3.78,3.78,0,0,1,0,1.21,3.34,3.34,0,0,0,0,3.23A3.43,3.43,0,0,1,82,54.26c-.23,1.07-.8,2.1-.27,3.23a2.42,2.42,0,0,1,.21,1.06,5.06,5.06,0,0,1-1.41,2.22c-.18.28-.37.56-.53.85a3.89,3.89,0,0,0-.17,2,4.07,4.07,0,0,1-.26,2.26c-1.34,1.94-2.36.8-3.38-.34-.42-.64-1.25-.84-1.66-1.5a.81.81,0,0,1,.13-.78c0-.72.85-1.38.17-2.15l0-.18c-.2-.94.43-1.62.75-2.41s1.51-1.45.71-2.6a7.1,7.1,0,0,1-1-2v-.16a1.56,1.56,0,0,1,.13-1.12,4.31,4.31,0,0,1,.69-.9c1-.73.48-1.4-.11-2.07.54-4.16,1.2-8.3,1.55-12.48.44-4.8.36-9.66,1.69-14.36C82.63,23.3,82.83,23.17,83.9,19.8Z"/><path class="cls-102" d="M80.54,110.83l.42,1.25a4.8,4.8,0,0,1-1.46,2c-2.52.87-.33,4-2.43,5.07-2-.15-2.63-1.7-3.24-3.24h0c0-.7.53-1.39.08-2.11-1.15-3.33-.11-6.72-.2-10.08a19.85,19.85,0,0,1,.27-2.75c1.3-1.73.34-4.69,3-5.67a2.22,2.22,0,0,1,1.2,0,1.69,1.69,0,0,1,.73.89c.16.55.26,1.11.43,1.65s.46,1,.65,1.52a2.82,2.82,0,0,1,.07,1.08,4.81,4.81,0,0,0,.42,2.64,2.78,2.78,0,0,1-.18,1.18C78.78,106.51,78,108.72,80.54,110.83Z"/><path class="cls-103" d="M74.31,91.66c-.06-2.86-.7-5.73.1-8.58-.35-.67.26-1.37,0-2v0c.16-1.8,1.39-3.62-.15-5.37,0-.31,0-.62,0-.93a3.7,3.7,0,0,1,.47-1.9c.32-1.24-.24-2.72,1-3.69C77.85,68.92,79,70,79,72a6.34,6.34,0,0,0,2.2,4.78,6,6,0,0,1,0,5.22c-2.46,2.27-1.37,5.69-2.68,8.34A4.22,4.22,0,0,1,74.31,91.66Z"/><path class="cls-104" d="M74.31,91.66a6.22,6.22,0,0,1,3.85-1.28l.49.38a3.71,3.71,0,0,1,.57,1.1,3.54,3.54,0,0,1-.42,3,2.52,2.52,0,0,1-1.06.62c-.77.73-2.4,1.32-1.91,2.42,1,2.28-1,2.2-1.89,3a26.37,26.37,0,0,1,.35-7.15c-.25-.72.38-1.42,0-2.14Z"/><path class="cls-105" d="M80.21,118a2.11,2.11,0,0,1,.15,1.77c-.6,2-1.47,4-1.58,6.2,0,.48-.74.92-1.13,1.38a2.65,2.65,0,0,0-2.58-1.29c-.94.05-1.46-.6-2-1.23.21-.85.41-1.71.61-2.56a5.49,5.49,0,0,1,2-.8,2.8,2.8,0,0,0,1-1.38,1.53,1.53,0,0,1,.87-.77C78.47,119,79.21,118.26,80.21,118Z"/><path class="cls-106" d="M76,122.28a2.31,2.31,0,0,1-2.25,0l0,0a7.15,7.15,0,0,0-.22-1.21,4.78,4.78,0,0,1,.18-3,11.43,11.43,0,0,1,0-1.17c.06-.35.11-.7.17-1,1.43.79,2.17,2.46,3.82,3,.16.31.15.54,0,.69s-.3.21-.38.17h0C76,120.18,77.17,121.83,76,122.28Z"/><path class="cls-107" d="M76.1,69.13,75.23,73c-.47.26-.75.14-.81-.41-1-2.45-.22-4.87.07-7.31a1.91,1.91,0,0,1,1.5,0C77,66.53,78,67.78,76.1,69.13Z"/><path class="cls-108" d="M74.22,75.64a6.88,6.88,0,0,1,1.48,1,1.8,1.8,0,0,1,.13,2.74c-.51.53-1,1.11-1.46,1.66A15.88,15.88,0,0,1,74.22,75.64Z"/><path class="cls-109" d="M73.09,124.87c1.07-.23,1.47.59,2,1.23.28.85.56,1.69.83,2.53a1.84,1.84,0,0,0-2.56.75C72.84,127.9,72.24,126.42,73.09,124.87Z"/><path class="cls-50" d="M70.15,117.18c-1-1.88-.6-3.62.5-5.3A7.13,7.13,0,0,1,70.15,117.18Z"/><path class="cls-110" d="M74.82,61.11c.46.07,1.15,0,1.32.25.46.71-.3,1-.74,1.34-.24.2-.5.38-.75.56-.12-.48-.25-1-.38-1.45Z"/><path class="cls-110" d="M75.71,65.72l-1.22-.49a.94.94,0,0,1,0-1.19l2,0A1.29,1.29,0,0,1,75.71,65.72Z"/><path class="cls-111" d="M73.87,113.78c1.23,1,1.23,1-.08,2.11A2.12,2.12,0,0,1,73.87,113.78Z"/><path class="cls-103" d="M74.31,91.66a1.85,1.85,0,0,1,0,2.14A2.08,2.08,0,0,1,74.31,91.66Z"/><path class="cls-108" d="M74.37,81a1.88,1.88,0,0,1,0,2A2,2,0,0,1,74.37,81Z"/><path class="cls-108" d="M74.42,72.54c.28.13.55.27.81.41l-1,1.76A2.26,2.26,0,0,1,74.42,72.54Z"/><path class="cls-111" d="M73.66,117l0,1.17A.87.87,0,0,1,73.66,117Z"/><path class="cls-105" d="M73.51,121.13c.07.4.15.81.22,1.21A.89.89,0,0,1,73.51,121.13Z"/><path class="cls-105" d="M77.65,127.38a2.93,2.93,0,0,1,1.72,3A2.79,2.79,0,0,1,77.65,127.38Z"/><path class="cls-109" d="M75.89,130.76a1.9,1.9,0,0,1,0-2.06A1.74,1.74,0,0,1,75.89,130.76Z"/><path class="cls-54" d="M74.47,42.75l-.84,1.7a1.73,1.73,0,0,1,.17-2.25Z"/><path class="cls-54" d="M73.63,44.46a2,2,0,0,1-.06,2.12A1.85,1.85,0,0,1,73.63,44.46Z"/><path class="cls-51" d="M72.9,50.27a2.42,2.42,0,0,1-.22,2.3A2,2,0,0,1,72.9,50.27Z"/><path class="cls-112" d="M79.23,22.79c.17,4.06.3,8.11-.71,12.1a16.28,16.28,0,0,0-.25,2.33.54.54,0,0,1-.81.13,3.41,3.41,0,0,1-.71-.54,44.48,44.48,0,0,1,1.87-15.43.88.88,0,0,1,.91.56A3.19,3.19,0,0,0,79.23,22.79Z"/><path class="cls-113" d="M77.14,36.84l1.13.38c-.3,2.9-.23,5.83-1,8.7a9.09,9.09,0,0,0-.39,4.55,1.14,1.14,0,0,1-.72,1.65l-.5.83-.48-.08c.25-3.26.51-6.51.76-9.77l0-.31.36-2.6v-.31l.52-2.78Z"/><path class="cls-101" d="M79.53,21.94l-.91-.56a1.59,1.59,0,0,1,.37-1.9,7.15,7.15,0,0,1,1.16.7C81,20.94,80.93,21.18,79.53,21.94Z"/><polygon class="cls-54" points="76.27 39.88 76.43 40.03 76.27 40.19 75.98 40.15 76.27 39.88"/><path class="cls-54" d="M77.14,36.84l-.35.26,0-.3Z"/><path class="cls-101" d="M80.48,13.78l-.84.64a1,1,0,0,1,.18-.89C80,13.62,80.25,13.7,80.48,13.78Z"/><path class="cls-114" d="M80.4,81.84a9.4,9.4,0,0,0,.26-5.07c-2.14-3.43-.3-7.07-.59-10.59A45.73,45.73,0,0,1,80.62,61c.24-1,1.42-1.68,1.11-2.91h0c-.84-1.44-.21-2.85.07-4.27l0,.05A5,5,0,0,1,82,49.57v0c-1.16-2.84-.12-5.71-.1-8.57.24-1.23,1.24-2.15,1.39-3.42a6.4,6.4,0,0,1,.06-1.16c.13-.76.45-1.46.53-2.23a5.18,5.18,0,0,1,.33-1.08c.41-.82.56-1.92,1.87-1.79a1.3,1.3,0,0,1,.72.83,6.79,6.79,0,0,1,.11,2.26c-.07.55-.18,1.1-.28,1.66s-.1,1.13-.19,1.7A14.83,14.83,0,0,0,86,42.37c-.11,1.85-.5,3.66-.62,5.51a18,18,0,0,0,.07,4.27,20.54,20.54,0,0,1-.27,6.77c0,.39-.13.79-.21,1.18-.09.58-.17,1.17-.24,1.76s-.15,1.17-.24,1.75c-.28,1.76-.09,3.55-.22,5.32a16.37,16.37,0,0,0-.12,3A40.9,40.9,0,0,1,84,76.19c.17,2.68.17,5.36.13,8a26.41,26.41,0,0,0-.29,4.17,11.42,11.42,0,0,1,0,1.17c0,.78-.05,1.56-.05,2.34,0,1.36,0,2.72-.12,4.07A8.56,8.56,0,0,0,84,99.43a11.81,11.81,0,0,1,0,3.61c0,.39-.06.78-.1,1.17a10,10,0,0,1-.23,1.72.93.93,0,0,1-.84.63,2.06,2.06,0,0,0-2.18,0C79.05,106,79.87,105,80,104l.12-.93c-.72-1.07-.37-2.22-.24-3.35h0A53.08,53.08,0,0,1,80.4,81.84Z"/><path class="cls-115" d="M120.53,118.34c-1.58-1-3.41-.67-5.09-.68-2.81,0-5.63-.82-8.43,0a5.51,5.51,0,0,0-.89-.22,2.61,2.61,0,0,1-1.18-.35c0-2.06-2.1-4.61,1.37-5.87,1.57,1,2.77.23,4.29-.46,1.74-.79,4.26-2.11,5,1.58.18,1,1.16,0,1.8.16,2.17.39,4.91-1,6.11,2.18.26,1.9.43,3.74-2.3,3.83Z"/><path class="cls-116" d="M91.29,115.2a6.08,6.08,0,0,1-3.7.07A3,3,0,0,1,85,112.93a5.76,5.76,0,0,1,1.15-2.74,7.79,7.79,0,0,1,2.4-.79c2,.55,3.78,2.72,6.1.78,1.89.95,3.6,2.22,5.44,3.27.64,1,1.34,2,.16,3l-1.25.33C96.3,116.7,94.19,114.1,91.29,115.2Z"/><path class="cls-117" d="M100.2,116.5a3.28,3.28,0,0,0-.83-2.66c-.46-1.11.36-1.84.79-2.69.17-.36.37-.71.57-1.05.12-.17.25-.32.37-.48a27.75,27.75,0,0,1,5-2.42,2.68,2.68,0,0,1,1.24.52c1.38,2.07,1.29,3.57-1.55,4-.19.6-.58-.43-.42.18.23.86.58,1.7.75,2.57s-1.43,1.34-.76,2.45a.5.5,0,0,1-.48.66Z"/><path class="cls-118" d="M80,104l.57,2.56v0c.36.8-.12,1.54-.18,2.31l.15,2c-2.41-.12-3-1.94-3.49-3.8,0-.2.25-.74.37-.73C79.06,106.39,78.58,104.14,80,104Z"/><path class="cls-119" d="M83,104.5l.27-.92c2.55-.13,2.88,2,3.68,3.62a2.39,2.39,0,0,1-.25,1.39,1.83,1.83,0,0,1-1.15.81,2.22,2.22,0,0,1-2.18-1.59c-.19-.42-.38-.84-.58-1.25a4.17,4.17,0,0,0,.36-.81C83.06,105.34,83,104.92,83,104.5Z"/><path class="cls-120" d="M83.32,107.81l2.45,1.32c.89.17,1,.6.44,1.27A2.57,2.57,0,0,1,85,112.93,7.88,7.88,0,0,1,83.32,107.81Z"/><path class="cls-120" d="M91.29,115.2c.52-.85,1.2-1.48,2.25-1,1.82.84,3.61,1.75,5.4,2.63-.29.09-.63.3-.89.23C95.79,116.47,93.54,115.83,91.29,115.2Z"/><path class="cls-121" d="M79.37,113.38c.34-.66.74-1.26,1.59-1.3a2.31,2.31,0,0,1,.42,2.06,1.17,1.17,0,0,1-.7,1h0C79.57,115,79.3,114.32,79.37,113.38Z"/><path class="cls-114" d="M80.39,108.86a1.84,1.84,0,0,1,.18-2.31A1.72,1.72,0,0,1,80.39,108.86Z"/><path class="cls-73" d="M104.84,117.59q.25-.33.48-.66l.8.53Z"/><path class="cls-111" d="M80.68,115.1c.23-.32.46-.65.7-1,.15.48.31,1,.46,1.43Z"/><path class="cls-122" d="M119.72,119.93c.27-.53.55-1.06.81-1.59l.11-.27c1.62.49,3.22-.08,4.82-.12a10.82,10.82,0,0,1,2.47.22,1.21,1.21,0,0,1,.79.85c-.16.41-.33.82-.49,1.22l-.33.56h-.08l-1.29.25C124.26,120.68,121.91,120.77,119.72,119.93Z"/><path class="cls-123" d="M131.67,121.49a4.82,4.82,0,0,1,4.27.12,21.66,21.66,0,0,1-2.88,1.16C132.15,123,131.75,122.35,131.67,121.49Z"/><path class="cls-124" d="M127.9,120.8a3.92,3.92,0,0,0,.33-.56l1.72.53A2,2,0,0,1,127.9,120.8Z"/><path class="cls-124" d="M126.53,121.05a1.1,1.1,0,0,1,1.29-.25Z"/><path class="cls-111" d="M79.37,113.38l1.27,1.73c-1.87,1.52-1.87,1.52-.43,2.93a2.88,2.88,0,0,1-3,1.7c.13-.29.27-.57.4-.86-.14-.44-.29-.89-.42-1.33C76.49,115,76.57,114.81,79.37,113.38Z"/><path class="cls-125" d="M115.46,136.76a13.32,13.32,0,0,0-4.66.91l-1-.25a2.12,2.12,0,0,1-1.7-.82c-2-4.23-1.41-5.83,2.8-7.6.58-.24,1.13-.53,1.7-.79a.76.76,0,0,0,.77.06c.75-.16,1.41.3,2.14.28a.54.54,0,0,0,.47.31c.35.67.71,1.33,1,2C118.24,133.29,117.8,135.28,115.46,136.76Z"/><path class="cls-76" d="M108.15,136.6l1.7.82C108.94,137.86,108.33,137.66,108.15,136.6Z"/><path class="cls-126" d="M128.72,119l-.77-.34a3.13,3.13,0,0,1-1.82-.4c-1.26-.11-2.89.12-1.94-2.07a2.69,2.69,0,0,1,1-.78c1.6,0,2-.51.63-1.7a2.32,2.32,0,0,1,.09-2.42c2.71-1.72,4.13,2.67,6.74,1.42,2-.21,3.6.15,4.37,2.23,0,.21.05.43.08.65a1.93,1.93,0,0,1-.67,1.09c-.95.4-2,.69-2.25,1.93a11,11,0,0,1-1.81.07A6,6,0,0,0,128.72,119Z"/><path class="cls-127" d="M134.17,118.63c-.72-.61-1.48-1.24-.73-2.27.55-.77,1.32-.57,2.06-.27l.85.34c.31-.06.47-.2.5-.41s0-.35-.06-.38h0c-.27-2.23.9-3.42,2.91-4,2.08,1.09.77,2.51.37,3.84a9.4,9.4,0,0,1-1.66,3.18A6,6,0,0,1,134.17,118.63Z"/><path class="cls-51" d="M138.41,118.65c-.65-1.21.06-2.13.64-3.07,1.32-.56,1-2.5,2.49-2.93a8.08,8.08,0,0,1,.57.6c-.36,1.16-.78,2.29-1.05,3.47C140.72,118.18,139.73,118.6,138.41,118.65Z"/><path class="cls-74" d="M115.56,128.55a2.53,2.53,0,0,1-2.14-.28A1.54,1.54,0,0,1,115.56,128.55Z"/><path class="cls-128" d="M147.35,52.57c-.44.64-.84,1.32-1.67,1.54a1.73,1.73,0,0,1-.62-1,12.36,12.36,0,0,1-.22-1.83c0-.42-.05-.84-.06-1.26a182.65,182.65,0,0,1,1.32-23.38,9.45,9.45,0,0,1,.46-3.07.87.87,0,0,1,1-.49l1.3.77c.51.67-.26,1.44.16,2.12.25,5.51-1,10.93-1.06,16.43-.06,2.66-.35,5.31-.53,8a3.5,3.5,0,0,0,0,1.44A.8.8,0,0,1,147.35,52.57Z"/><path class="cls-81" d="M149,26a2.07,2.07,0,0,1-.16-2.12l.48-.12.37.52Z"/><path class="cls-94" d="M147.44,51.81a1.4,1.4,0,0,1,0-1.44A1.32,1.32,0,0,1,147.44,51.81Z"/><path class="cls-40" d="M149.68,24.25c-.13-.17-.25-.34-.37-.52a1,1,0,0,1,.5-.27A1,1,0,0,1,149.68,24.25Z"/><path class="cls-40" d="M151.89,22.13l-.48.83c-.11-.42-.21-.85-.32-1.28Z"/><path class="cls-101" d="M83.91,17.67c.1.41.21.82.31,1.23C84.12,18.49,84,18.08,83.91,17.67Z"/><path class="cls-129" d="M100,17.3c1.64.3,3.36-.13,5,.53.84,1-1.35,2,0,2.93a8.25,8.25,0,0,0,1,.28l.5.11.49.19.41.29c.35.29.59.84,1.22.51a3.4,3.4,0,0,1,1.1.15c1,.42,1.82.91,2,2.09-5,2.23-5,2.23-4.39,6.67a1.3,1.3,0,0,1-1.09.58,4,4,0,0,1-1.22-.36,6.15,6.15,0,0,1-1.75-1.66,3.79,3.79,0,0,1-.48-.94c0-.3-.13-.64-.35-.56s0,.59-.38.78a1.73,1.73,0,0,1-1.12.1c-1.32-.36-1.67-1.77-3-2.63,2,2.37,1.92,4.1-.93,5.18-1.06.38-2.12.8-3.11-.15-.62-2.37-1.72-4.58-2.12-7-.21-1.31-.61-2.92-2.66-1.8A1.53,1.53,0,0,1,88,22.13a3.21,3.21,0,0,1,.12-2.36c.16-.36.33-.73.47-1.1l.15-.58a.66.66,0,0,1,.84-.53A36.66,36.66,0,0,0,100,17.3Z"/><path class="cls-130" d="M86.27,31.69c-1.24.21-1.49,1.37-2.08,2.19h-.46l-.13-.45a110.22,110.22,0,0,0,1.71-13.89c.28-.58.55-1.16.82-1.74l1.56.79c1,1.05.45,2.13.07,3.21C87.78,25.17,88.6,28.67,86.27,31.69Z"/><path class="cls-131" d="M87.31,21.56c.13-1,.26-2,.38-3a1.73,1.73,0,0,0,.46-.61.54.54,0,0,1,.91.08v.2a11.6,11.6,0,0,0,.36,1.28c-.43.78-.85,1.56-1.27,2.35A.53.53,0,0,1,87.31,21.56Z"/><path class="cls-130" d="M89.06,18.05,88.15,18a1.1,1.1,0,0,1,1.43-.41Z"/><path class="cls-132" d="M137.14,17.87l1.2-.35a7.3,7.3,0,0,0,3.75.79c1.21.73,2.8,0,3.94,1a1.79,1.79,0,0,1-.9,1.81c-1.7.36-3.35-.09-5-.3-1.42-.31-3-.46-3.5-2.18C136.8,18.38,137,18.13,137.14,17.87Z"/><path class="cls-133" d="M145.1,20.84,146,19.3l1.12,1.58c0,.91-.56.93-1.22.85A1.68,1.68,0,0,1,145.1,20.84Z"/><path class="cls-134" d="M145.77,21.35l1.38-.47a2.35,2.35,0,0,1,.38,2.2l-.29.1C146,23.15,145.41,22.64,145.77,21.35Z"/><path class="cls-135" d="M105.15,22c-.94-.06-1.89-.05-2.21-1.24-.21-.8-.4-1.53.73-1.76A1.79,1.79,0,0,0,105,17.83c2.31-.22,4.65-.11,6.91-.78l4.1.5a2.58,2.58,0,0,1-.09,1.35c-1.94,2.65-4,4.92-7.81,3.51h0a.59.59,0,0,1-.81-.42h0a.66.66,0,0,0-.89-.44h0C106,21.72,105.55,21.81,105.15,22Z"/><path class="cls-136" d="M136.62,18.63a6.51,6.51,0,0,0,3.81,1.06c.12,4.19,4.95,3.51,6.49,6.24a11.33,11.33,0,0,1,.26,2.75C146,36.08,146,43.55,145.71,51c-1,.61-.61,2-1.55,2.69-4.58,3.29-5-1.07-6.56-3.52-.21-1.87-.88-3.69-.51-5.61,1.52-2.06,2.95-4,1-6.74-1.74-2.55.26-3.58,2.41-4.18.08-.06.26,0,.34-.15a1.33,1.33,0,0,1-.82-.14c-.44-.06-.24-1.38-.75-.67-3.42,4.86-3.38,4.89-6.89.21a4.64,4.64,0,0,1-.07-2.66c-.16-2.1,4.1-1.29,2.76-3.81s-3.73-1.45-5.83-1.1A5,5,0,0,1,128,25c-2.69-2.59-6.37-2.84-9.64-4.05a2.88,2.88,0,0,1-.71-1.2,1.77,1.77,0,0,1,1.12-1.65,1.11,1.11,0,0,1,1.25-.19.62.62,0,0,0,.9.24l2.51-.66a7.43,7.43,0,0,0,4.23.1c2.25.85,4.64.56,7,.84Z"/><path class="cls-137" d="M118.75,18.13l-.84,1.78c-1.06,0-1.37-.72-1.53-1.59a.94.94,0,0,1,.62-.93h.11Z"/><path class="cls-137" d="M120.9,18.18c-.41.34-.75.43-.9-.24A2,2,0,0,1,120.9,18.18Z"/><path class="cls-83" d="M117,17.39c-.15.24-.3.48-.46.72a.54.54,0,0,1-.82-.15l.28-.41Z"/><path class="cls-138" d="M142.58,89.76c.55,2.43-.06,4.78-.52,7.13-2,.75-2.69,2.42-3,4.35a22.42,22.42,0,0,0-1,4.57c-.18.94-.58,2-1.67,2-1.44,0-1.52-1.3-1.78-2.33-.46-1.8.46-3.64-1.32-5.5a4.17,4.17,0,0,0-4-1.46,5,5,0,0,1-3.63-3c-.11-1.47.89-2.12,2-2.71a4.87,4.87,0,0,1,2.08-.1,7.86,7.86,0,0,1,2.23.61c2.77,1.29,4.39,1.45,3.85-2.63-.56-4.23.53-5,5.83-5.62C143.6,86.28,141.51,88.33,142.58,89.76Z"/><path class="cls-139" d="M137.67,101.19a4.86,4.86,0,0,0,.62-1.28c.31-2.23,1.72-3,3.77-3q-.17,7.39-.34,14.77c-.59.34-1.22.12-1.84.11-.95,1.36-2.52,2.21-3.09,3.86a3.94,3.94,0,0,0-4.24-2.13l-.54-.3a2.77,2.77,0,0,1-1.07-1.49,3.06,3.06,0,0,1,.47-1.84,3.43,3.43,0,0,1,1-.87,4,4,0,0,1,1.29-.2C138.54,108.47,140,105.8,137.67,101.19Z"/><path class="cls-140" d="M142.58,89.76a2.66,2.66,0,0,1-.86-2.94,2.16,2.16,0,0,0-.18-1.79l-.36-.53c-1-2,.18-4.75-2-6.4a2.34,2.34,0,0,1-.46-1.21,4,4,0,0,1,1.08-2.4,6.26,6.26,0,0,1,2.66-2c1.15.16,1.07,1.28,1.53,2a3,3,0,0,1,.51.44c-.87,1.43-.67,3-.77,4.58C143.48,83,143.48,86.41,142.58,89.76Z"/><path class="cls-141" d="M139.88,111.77a1.67,1.67,0,0,1,1.84-.1l-.18,1c-.77,1-.83,2.65-2.49,2.93C139.35,114.31,140.35,113.2,139.88,111.77Z"/><path class="cls-142" d="M137.81,50.15a4.61,4.61,0,0,0,.91-.2c.71-.31,1.46-.84,2.05.1s.13,1.46-.7,1.84a4.23,4.23,0,0,0-.42.22.83.83,0,0,0-.26,1.22c.14.23.5.51.71.47,1.23-.17,2.45-.43,3.67-.66,2.09.72.22,2.76,1.29,3.82.54,1,0,1.94-.3,2.87.6,1-2.33.4-.89,2.11.88,1.05.41,2.74.24,4.15a2.25,2.25,0,0,1-1,1.71,3.24,3.24,0,0,1-3.25-.33,2.37,2.37,0,0,1-.19-1.86,3.59,3.59,0,0,0,.35-2.23,1.58,1.58,0,0,0-.16-.8c0,.28.13.54.17.83a2.06,2.06,0,0,1-.5,1.56,1.71,1.71,0,0,1-1.65.49,3.73,3.73,0,0,1-1.63-1.83,3,3,0,0,1-.1-1.23c.31-1.71,2-2.41,2.77-3.77.24-.48.85-1-.19-1.31-.35-.22-.49-.12-.41.31a.49.49,0,0,0,.19.38,2.74,2.74,0,0,1-.15,1c-.57.84-1.16,1.63-2.33,1.53a2.81,2.81,0,0,1-2.31-2.7,3.07,3.07,0,0,1,.33-1.2,7.28,7.28,0,0,0,.72-1.73,18,18,0,0,0-.88-3.07,2.36,2.36,0,0,1,1-2.81C136.2,48.31,137.2,48.79,137.81,50.15Z"/><path class="cls-143" d="M143.56,65.89c-.11-1.23.11-2.62-.4-3.65-1-2,.78-1.81,1.6-2.41a12,12,0,0,1,.31,4.76C144.52,65,144.56,66,143.56,65.89Z"/><path class="cls-144" d="M145.06,57c-.59.23-.86,0-.9-.6-.06-1.08.21-2.2-.39-3.22.5-.85.68-2,1.95-2.13,0,.36,0,.73,0,1.1a2,2,0,0,0,.15,1l-.18,1C145.47,55.06,145.26,56,145.06,57Z"/><path class="cls-145" d="M143.56,65.89l1.51-1.3c0,.31,0,.63,0,.94-.13.68-.25,1.36-.38,2a4.13,4.13,0,0,1-.95.71,1.17,1.17,0,0,1-.89-.69C143.12,67,143.34,66.46,143.56,65.89Z"/><path class="cls-146" d="M143.47,68.13l1.26-.55a10.26,10.26,0,0,1-.45,3.81c-.19,1.08-.83,1-1.59.6C141.74,70.46,141.84,69.14,143.47,68.13Z"/><path class="cls-147" d="M143,71.88l1.33-.49c.42,1.09-.11,2.08-.33,3.11l-1.49-1.82A.65.65,0,0,1,143,71.88Z"/><path class="cls-110" d="M75.28,53.88a1.79,1.79,0,0,1,1.28,1.62,1.91,1.91,0,0,1-.76,2.4l-.66.2A5.1,5.1,0,0,1,75.28,53.88Z"/><path class="cls-110" d="M76.12,58.5c-.43.81-.86,1.62-1.28,2.43-.46-1,0-1.91.3-2.83l.22-.06A.56.56,0,0,1,76.12,58.5Z"/><path class="cls-110" d="M75.18,52.87a.54.54,0,0,1,.48.08,3.68,3.68,0,0,1-.38.77A.63.63,0,0,1,75.18,52.87Z"/><path class="cls-54" d="M75.91,42.79l.17.15-.14.16L75.78,43Z"/><path class="cls-108" d="M80.84,66.17a9.91,9.91,0,0,1,.24,2.74,54.42,54.42,0,0,0-.42,7.86c-.6-.09-1.41.11-1.7-.53-.42-1-1.7-1.83-1.12-2.93,1.2-2.25-.72-3-1.74-4.18a2.92,2.92,0,0,0-.39-3.41c.28-.56.55-1.13.82-1.7.25.4.51.79.74,1.2.7,1.27.7,1.27,1.83.08A1.33,1.33,0,0,1,80.84,66.17Z"/><path class="cls-148" d="M83.6,33.42c.21.15.4.3.59.46v0c.47,1.11-.76,1.95-.48,3v-.06c.63,1.47-1.24,2.43-.77,3.87-1.07,2.86-.52,5.91-1,8.84-.74-.3-1.49-.64-1.36-1.63.11-.82.19-1.51-.89-1.74-.52-.11-.88-.62-.3-1a2.37,2.37,0,0,0,1.41-2.65,5.17,5.17,0,0,1,1-4.7c.88-1.08.28-3,1.31-4.3C83.23,33.45,83.45,33.46,83.6,33.42Z"/><path class="cls-149" d="M80.84,66.17,79.1,65.3c0-.73,0-1.46-.07-2.19-.2-.7.39-1.36.09-2.06.14-.28.27-.56.41-.83a1.52,1.52,0,0,1,1.88.9A12.18,12.18,0,0,1,80.84,66.17Z"/><path class="cls-150" d="M76.12,58.5,75.36,58l1.2-2.53a10.91,10.91,0,0,1,1.81.21.69.69,0,0,1,.36,1.1A3.71,3.71,0,0,1,76.12,58.5Z"/><path class="cls-148" d="M82,49.57a6.21,6.21,0,0,1-.12,4.27c-.58-.72-1.21-1.41-1.73-2.17-.65-1-.45-1.25,1-1.77C81.38,49.8,81.66,49.68,82,49.57Z"/><path class="cls-110" d="M81.81,53.79a6.71,6.71,0,0,1-.07,4.27c-.94-.08-1.93,0-1.53-1.54C80.49,55.41,80.73,54.38,81.81,53.79Z"/><path class="cls-110" d="M81.41,61.12l-1.88-.9,2.2-2.17C82.29,59.14,81.79,60.13,81.41,61.12Z"/><path class="cls-110" d="M76.16,52.12l.73-1.65c.43-.17.91-.24.8.41A1.49,1.49,0,0,1,76.16,52.12Z"/><path class="cls-110" d="M79.12,61.05A1.83,1.83,0,0,1,79,63.11,1.92,1.92,0,0,1,79.12,61.05Z"/><path class="cls-118" d="M80.4,81.84c.75,4.09,0,8.19,0,12.28,0,1.88-.36,3.75-.55,5.63a2,2,0,0,1-1.34-1.68,8.26,8.26,0,0,0-.37-1.29q.15-.42.33-.81c-.14-.43-.19-.88-.31-1.31a6.47,6.47,0,0,0,.37-3,10.77,10.77,0,0,0-.38-1.26v0c-.63-2.09.35-4.13.18-6.24C78.25,83,79.61,82.53,80.4,81.84Z"/><path class="cls-118" d="M79.87,99.74a4.67,4.67,0,0,1,.24,3.35C77.82,101.64,77.82,101.54,79.87,99.74Z"/><path class="cls-103" d="M78.18,94.66c.1.43.21.87.31,1.31a7.43,7.43,0,0,0-.75-.49C77.88,95.2,78,94.93,78.18,94.66Z"/><path class="cls-103" d="M78.16,96.78c.12.43.25.86.37,1.29C78.4,97.64,78.28,97.21,78.16,96.78Z"/><path class="cls-103" d="M78.17,90.41c.13.42.26.84.38,1.26C78.42,91.25,78.3,90.83,78.17,90.41Z"/><path class="cls-111" d="M76,122.28c.23-1-.5-2.38,1.29-2.54.06.3.11.59.19.88C78,122.49,78,122.49,76,122.28Z"/><path class="cls-151" d="M86.21,110.4l-.44-1.27.45-.83c.31-.1.46-.26.48-.49s0-.35-.09-.38a3.49,3.49,0,0,1-1.67-2,3.32,3.32,0,0,0-1.72-1.9c-.67-1.4.37-2.79,0-4.19a21.71,21.71,0,0,0-.46-3.4c.07-1.41.15-2.81.22-4.22.79-.58.39-1.42.46-2.16A3.76,3.76,0,0,1,84.27,88a6.23,6.23,0,0,1,3-1,4,4,0,0,1,2.55.46c.76,2.19,3,5.07-2.09,4.59-1.59-.15-1.21,1-1.18,1.88a7.34,7.34,0,0,0,2.37,4.89,1.51,1.51,0,0,1-.66,1.62c.71-.08.65-1,1.24-1.17,1,0,1.47.75,1.83,1.56a10.24,10.24,0,0,1,.25,3.9,3.87,3.87,0,0,1-.51,1.16c-.85,1.56-2.36,2.72-2.76,4.56A1.91,1.91,0,0,1,86.21,110.4Z"/><path class="cls-152" d="M87.1,87.44a3.28,3.28,0,0,1-2.64.85.7.7,0,0,1-.94-.36,14.59,14.59,0,0,0-.25-3.49,32.74,32.74,0,0,1,0-8.45c1.38-1.71-.28-4.25,1.58-5.83a6.23,6.23,0,0,1,2.6-.37c2.39.23,4,1,3,3.9a19.51,19.51,0,0,1-1.72,1.91c-1.55,2.07-.34,4.38-.59,6.56-.18,1.59-.7,3.12-.8,4.73C87.26,87.08,87.18,87.26,87.1,87.44Z"/><path class="cls-153" d="M83.91,60.25a5.14,5.14,0,0,1,.35-.84,3.16,3.16,0,0,1,2.59-.94,1.56,1.56,0,0,1-.92-.38c-.6-1.7.17-2.94,1.32-4.05,1.49-.18,2.68.91,4.12,1a4,4,0,0,1,1.06,1.57,35,35,0,0,0,1.1,3.57A5.25,5.25,0,0,1,94,62a2.73,2.73,0,0,1-.44,1.17,1.87,1.87,0,0,1-1.69.57c-1.93-.48-3.35,1.27-5.19,1.21L86,65a3.91,3.91,0,0,1-1.23-.26,2.6,2.6,0,0,1-1.23-1.4c.19-.59.38-1.19.58-1.79C84,61.1,84,60.68,83.91,60.25Z"/><path class="cls-154" d="M86.72,58.54a3.38,3.38,0,0,1-2.46.87l.36-7.25a6.81,6.81,0,0,0,0-4.28,10,10,0,0,1,.85-5.94l.62.05c1.14,2.57,3.81,4.46,3.47,7.7-.73,1.3.5,3.32-1.52,4.15-.5,1.55-2.1,2.78-1.32,4.68Z"/><path class="cls-155" d="M87.31,21.56a2.47,2.47,0,0,0,.83.32,4.77,4.77,0,0,0,.83.46A1.91,1.91,0,0,1,91.1,23c1.93,2.94.13,9.6-3.14,12a1.57,1.57,0,0,1-1.53-1.1l-.1-.06c-.1-.41-.19-.81-.28-1.22a3,3,0,0,0,.22-.89C86.61,28.31,87,24.94,87.31,21.56Z"/><path class="cls-154" d="M86.43,33.86l1.63.85.49.5a3.8,3.8,0,0,1,.39,2c-.25,2.17-.74,4.18-3.32,4.69l-.16,0c-1.33-1.81-.33-3.47.36-5.14a5.15,5.15,0,0,0-.24-1.23Z"/><path class="cls-156" d="M85,70.42c-.62,1.29-.41,2.68-.44,4A1.38,1.38,0,0,1,83.3,76c-.7-1.38.24-2.78-.07-4.16A2.09,2.09,0,0,1,83.87,70,1,1,0,0,1,85,70.42Z"/><path class="cls-157" d="M84.61,47.88c.54.32.18-.69.44-.11.71,1.54.91,3-.43,4.39A6.07,6.07,0,0,1,84.61,47.88Z"/><path class="cls-158" d="M83.54,63.31l1.49.76c.61,1.63.82,3.2-.71,4.49l-.67.22A12.17,12.17,0,0,1,83.54,63.31Z"/><path class="cls-159" d="M83.27,84.44a2.84,2.84,0,0,1,.42,3.46c.15.35.12.59-.08.71s-.34.15-.44.1A6.58,6.58,0,0,1,83.27,84.44Z"/><path class="cls-130" d="M82.94,40.68c-.41-1.42.2-2.64.77-3.87C84.68,38.34,83.49,39.44,82.94,40.68Z"/><path class="cls-160" d="M82.77,96a2.59,2.59,0,0,1,.46,3.4A3.11,3.11,0,0,1,82.77,96Z"/><path class="cls-161" d="M84.2,70c-.32.62-.64,1.24-1,1.86-.54-1.11,0-2.08.42-3l.09-.09C84.63,68.86,84.75,69.29,84.2,70Z"/><path class="cls-162" d="M83.75,90c.53.93.33,1.55-.76,1.79l0-2.13C83.45,89.36,83.7,89.45,83.75,90Z"/><path class="cls-130" d="M83.72,36.87c-.56-1.13,0-2.08.48-3C85,35,84.3,35.92,83.72,36.87Z"/><path class="cls-163" d="M83.75,90,83,89.64a1.87,1.87,0,0,1,.15-.93l.52-.81a4.06,4.06,0,0,1,.78.39Z"/><path class="cls-154" d="M83.91,60.25l.21,1.27Z"/><path class="cls-151" d="M83,104.5c0,.42.1.84.16,1.25C83.05,105.34,83,104.92,83,104.5Z"/><path class="cls-130" d="M85.58,35.57c.08.41.16.82.25,1.23C85.74,36.39,85.66,36,85.58,35.57Z"/><path class="cls-130" d="M86.05,32.58c.09.41.18.82.28,1.22C86.23,33.39,86.14,33,86.05,32.58Z"/><path class="cls-126" d="M137.67,101.19c.56.29,1.12.57,1.67.88.73.42,1.38,1.09,1,1.89-.7,1.42.19,3.68-2.2,4.26-.18,0-.19.84-.25,1.3s-.14,1-.8.84c-1.52-.34-3.17-.16-4.53-1.13-1.8-.33-3.18,1.49-5,1-.74.28-1.17-3.68-2.17-.15-.45,1.64-.33,3.47-1.58,4.86l-.59.27c-.72-1.06-1.49-2-3-1.71s-2.93.78-4.4,0c-1,.79-1.53,1.17-1.09-.65.41-1.66,0-1.95-1.57-1.75-.62.07-1.23.17-1.84.27-1,.14-1.22.76-1.26,1.63s-.43,1.17-1.18.72c-1-.62-2.06-1.32-3.08-2,1.91-1.65,1.91-1.65.87-3.83a2.5,2.5,0,0,1,1.63-3.38c1.93-.64,2.66,1.08,4.18,2.83a19,19,0,0,0-3.45-5.56c-2.48-2.74-2.21-3.33,1.65-4.62-1.54-1-3.43,0-4.94-.9a1.41,1.41,0,0,1-.49-1.12,3.72,3.72,0,0,1,1.58-1.83c.46-.33,1-.59,1.45-.9a4.45,4.45,0,0,0,1-1.26,4.53,4.53,0,0,1,.66-.9c1.14-.9,1.44-2.23,1.82-3.53,2.08-5.85,3.91-1.21,5.83.15a3.68,3.68,0,0,1-.56,2.5c-1.61,3.17-2.88,6.12,1.37,8.52,1.47.83.28,3.28,1.42,4.68.31,1.48-1.39,1.92-1.77,3.65,1.35-1.35,2.69-2.08,2.39-3.91.44-3.67,3.45-3.71,6.06-4.2,1-.18,2.07.59,3.13,0,.24-.41.46-.83.72-1.23s.76-.89,1.13-.54c.72.67,1.17,1.52,2.42,1.5.42,0,.36,1.07.3,1.71-.08.81.34.92,1.43.42,0,2.14,0,4.27.09,6.4a.85.85,0,0,0,.52.66.78.78,0,0,0,.88-.88C136.69,104.45,137.53,102.86,137.67,101.19Z"/><path class="cls-164" d="M124.81,116c-.32,1.45-.32,1.45,1.32,1.66.31.63.11,1-.58,1.07a6.54,6.54,0,0,1-4.91-.69c1.75-.16,2.16-1.5,2.54-2.86h0A1.2,1.2,0,0,1,124.81,116Z"/><path class="cls-165" d="M88.32,110.4a4.35,4.35,0,0,1,2.54-5.09,5.26,5.26,0,0,1,1.82,2.75c.25.79.89.92,1.61.92a1.57,1.57,0,0,1,1,.55.81.81,0,0,1-.54.89c-.7,1.45-2.12,1.76-3.47,2.19s-1.59-.07-1.42-1.38C90,110.15,89.22,110,88.32,110.4Z"/><path class="cls-120" d="M94.72,110.42a8.22,8.22,0,0,1,.42-.84c2,.22,4.68-4.43,5.93.86h0c.14.42.26.84.37,1.27l-2.07,2.13a3.12,3.12,0,0,0-.85-.4A4.25,4.25,0,0,1,94.72,110.42Z"/><path class="cls-166" d="M101.07,110.44a3.69,3.69,0,0,0-2.14-1.54c-.43-.13-1-.45-1.11.1-.52,2.16-1.67,1-2.69.58l-.88-.43-.06-.39c-.11-1-.82-.07-1.16-.33l-.46-.15a2.91,2.91,0,0,1-1.71-3h.06c2-2.69,2.94-5.91,4.85-8.69,1.32-1.92,2.46-2.43,4.42-2.28a11.71,11.71,0,0,1,2.7.37c1.44.69,2.2,1.66,1.42,3.3-1.08.44-2.38.68-2.36,2.86.93-1.14.87-2.4,2-2.7,2.44,1.3,4.09,3.24,1.71,5.56-1.76,1.73,1.32,2.52.14,3.75-.54,1.12-1.14,2.09-2.63,2.15A7,7,0,0,0,101.07,110.44Z"/><path class="cls-167" d="M105.78,107.48c-.21-.19-.49-.57-.61-.53-.75.26-1.48.56-2-.31a2.27,2.27,0,0,1,.23-2.58c.67-1,2.63-.71,2.43-2.34-.13-1-1.45-1.55-1.41-2.77,0-.28-.22-.56-.35-.84h0a2.91,2.91,0,0,0-1.69-3c-1.26-.07-1.14-.85-.65-1.53.71-1,1.65-.48,2.52-.16s1,1.31,1.11,2.13c1.51.48,3-.19,4.51-.07a3.53,3.53,0,0,1,1.31.2c.85.4,1.92,2.09,1.62,2.53a1.69,1.69,0,0,1-2.8.32,1.08,1.08,0,0,0-1.32,0,1,1,0,0,0-.4,1.2,1.33,1.33,0,0,0,.63.67,5.82,5.82,0,0,1,3.28,3.79,11.51,11.51,0,0,0,1.71,2.8c.4.58.62,1.12-.11,1.54a1.82,1.82,0,0,1-2.19.11,5.76,5.76,0,0,1-1.34-2.45c-.64-1.49-1.76-1.47-2.77,0a14,14,0,0,0-.89,1.67l-.42-.21Z"/><path class="cls-166" d="M101.44,111.71c-.12-.42-.24-.85-.37-1.27C101.2,110.86,101.32,111.29,101.44,111.71Z"/><path class="cls-165" d="M86.61,107.43q.69.82-.39.87Z"/><path class="cls-168" d="M125.55,118.76l.58-1.07,1.82,1A2.8,2.8,0,0,1,125.55,118.76Z"/><path class="cls-115" d="M124.81,116l-1.62-.82c.39-2.46,1.46-4.79,1-7.4-.16-1,.9-1.08,1.72-1.09s1.67,0,1.73,1.07c0,.77-.3,1.56.17,2.3,0,1.2-1,1-1.67,1.26l0,2.15A2.1,2.1,0,0,1,125,116Z"/><path class="cls-169" d="M126.18,111.35l1.67-1.26a26.1,26.1,0,0,1,2.67-1.81c1-.49,1.8-.32,2,1h0c-.31.08-.48.23-.51.46s0,.36.08.4l-.82,1.68c.17.76,1,1,1.25,1.72h0c-1.25.89-2.8,1.45-3.53-.2C128.37,111.84,127.19,111.89,126.18,111.35Z"/><path class="cls-170" d="M125,116l1.21-2.52c1,.59,2.31.85,2.93,2a1.08,1.08,0,0,1,.11.85.77.77,0,0,1-.71.27A9,9,0,0,0,125,116Z"/><path class="cls-139" d="M136.79,115.64c.27.29.29.56,0,.75-.11.07-.3,0-.45,0Z"/><path class="cls-171" d="M146.92,25.93c-1.46-.53-2.91-1.08-4.38-1.6-3.21-1.13-3.27-1.24-2.11-4.64,1.55.38,3.24.27,4.67,1.15a5.63,5.63,0,0,0,.67.51,3,3,0,0,0,1.47,1.82C147.13,24.09,147,25,146.92,25.93Z"/><path class="cls-94" d="M145.86,53.15l-.15-1Z"/><path class="cls-172" d="M105.09,30.55l.84.53c.59,1.06,1.83.53,2.63,1.06a6.66,6.66,0,0,0,2.25.52c2.2-.54,4.81-1.76,4.34,2.44.74,3-1.2,5.61-1.19,8.49a3.85,3.85,0,0,1,.26,1.2,4.45,4.45,0,0,0-.41,3.46,4.74,4.74,0,0,1-.24,1.3c-1.71,2.41-3,5.18-5.85,6.57-1.56-1-5-1.15-2.25-4.46.07-.08-1.62-2-2.3-3.14A23.44,23.44,0,0,0,106,39.84,5,5,0,0,0,104.33,37a8,8,0,0,1-1-1.39c-.31-.48-.62-1-1-1.42a9.5,9.5,0,0,1-.68-1c-.67-1.49-1.61-3,0-4.47l.44-.79c.46-.2.74,0,.88.42h0C103.59,29.2,103.68,30.5,105.09,30.55Z"/><path class="cls-173" d="M88.06,34.71a3.31,3.31,0,0,0,1.33-1.86c.2-1.06,0-2.42,1-3.05,1.44-1,.33-1.07-.3-1.4-.41-.21-1-.28-1.21-.6s.11-.89.26-1.32a3.68,3.68,0,0,1,.51-.79C91,23.79,91,23.79,89,22.34c.45-.54.39-1.52,1.38-1.59.2,1.43,2.5-.08,2.47,1.84a10.86,10.86,0,0,0,1.77,6.58c.28.41-.32,1.42-.52,2.15.39.68,1.1,1.09,1.52,1.75a6.83,6.83,0,0,1,.59,1,5.5,5.5,0,0,1,.35,1.11,3.63,3.63,0,0,1,0,1.14,3.23,3.23,0,0,1-1.17,1.84,1.29,1.29,0,0,1-1,.1c-.8-.54-.41.58-.83.59-2.08,1.28-3.69.87-4.82-1.29a3.9,3.9,0,0,0-.65-2.85Z"/><path class="cls-174" d="M110.6,34.27,108,33c0-.82-1.09-.9-1.14-1.68-.47-1-1-1.94-1.4-3A2.89,2.89,0,0,1,108,24.32a32.65,32.65,0,0,1,3.7,0c2-1.11,4-2,5.29.88C116.82,29.62,113.05,31.48,110.6,34.27Z"/><path class="cls-175" d="M101.7,28.73a10.52,10.52,0,0,0,.88,4.73c-2.2.51-3.77,2.93-6.41,2.12h0a11.27,11.27,0,0,0-.42-1.28h0c-1.52-1.71,1-2.47.91-3.83.47-.69,2.13,0,1.84-1.52-.16-.87-.32-1.85-1.77-1.43-.6.17-1-.79-.62-1.27,1-1.26,2-1.33,3-.18C99.94,27,100.5,28.18,101.7,28.73Z"/><path class="cls-176" d="M116.42,24.72c-1.5-1.17-3.19.06-4.75-.38l-3.56-1.93c3.3-.37,3.3-.37,7.61-4.45a1.7,1.7,0,0,1,.83.15l1.36,1.8h0c.52,1.2-1.46,2.26-.2,3.51A1.62,1.62,0,0,1,116.42,24.72Z"/><path class="cls-177" d="M96.66,30.48a1.19,1.19,0,0,1-.19,1.68c-.69.58-.65,1.37-.72,2.15a2.87,2.87,0,0,1-1.68-3A3.41,3.41,0,0,0,96.66,30.48Z"/><path class="cls-175" d="M105.09,30.55c-1.76.2-1.85.09-2.07-2.19A6,6,0,0,1,105.09,30.55Z"/><path class="cls-175" d="M106.83,31.36A2,2,0,0,1,108,33c-.86-.47-1.85-.8-2-2Z"/><path class="cls-175" d="M103,28.36l-.88-.42c-.27-.48-.63-1,.18-1.29.12,0,.5.54.65.88A2.26,2.26,0,0,1,103,28.36Z"/><path class="cls-178" d="M89.41,19.53a1.19,1.19,0,0,1-.36-1.28A.88.88,0,0,1,89.41,19.53Z"/><path class="cls-176" d="M107.3,22l.81.42Q107.24,23.09,107.3,22Z"/><path class="cls-176" d="M105.15,22l1.26-.45Z"/><path class="cls-176" d="M106.41,21.55c.59-.46.89-.3.89.44Z"/><path class="cls-179" d="M116.42,24.72l1-1.84c3.83-.78,7.32,1.2,11,1.31l.87.44c.7,2.64-1.53,3.85-2.69,5.59-.26.31-.55.6-.83.88a4,4,0,0,0-.89,2.16,8.72,8.72,0,0,1-1.36,2.93c-.53.73-1.16,1.69-2.17,1.33s-.87-1.6-.58-2.4c.84-2.27-.4-2-1.81-1.62a6.94,6.94,0,0,1-1.09-2,2.11,2.11,0,0,1,.9-2.38c.24-.21.07-.39-.17-.2-1.23.94-2,1.88-.63,3.3a2.63,2.63,0,0,1,.79,1.63c-1.41,2.11-3,3.17-5.23,1,.37-.43,1.13-.8.8-1.41-.44-.81-1.27-.73-1.92-.18s-1,1.1-1.89,1.07C112.56,31.1,114.87,28.14,116.42,24.72Z"/><path class="cls-180" d="M140.83,33.57a11.1,11.1,0,0,1-.05,1.42c-.07.5-.33.86-.92.6s-1.07-.92-1.42.09c-.13.38,0,1.2.19,1.29a2.76,2.76,0,0,1,1.8,2.92c0,2.32-.83,3.92-3,4.73l-.47-.43c-1.56-2.17-2-5.74-6.07-4.7a1.5,1.5,0,0,1-.55-1.05,15.43,15.43,0,0,1,.58-2.86,3.5,3.5,0,0,1,.43-1c.53-.21,1.07-.42.76-1.19a1,1,0,0,1,.68-.67c1.62.4,2.18,2,3.22,3,2.43-1.35,1.77-4.53,4.09-6.12.28,1.45.52,2.71.76,4Z"/><path class="cls-137" d="M125.1,31a13.17,13.17,0,0,1,2.27-3.36,17.63,17.63,0,0,0,2-3c.42-.19,1-.27,1.24-.59,1-1.28,2.2-1.08,3.29-.27a36.93,36.93,0,0,1,3.86,3.32c.54.53.12,1.26-.48,1.48a30,30,0,0,1-3.13.84,2.09,2.09,0,0,0-1.31,1.22l-.61.23c-2.16-.43-4.15.33-6.18.86A1.13,1.13,0,0,1,125.1,31Z"/><path class="cls-181" d="M137.81,50.15a6.33,6.33,0,0,0-1.3-.55c-1.37-.22-2.29.74-1.79,1.83a6.74,6.74,0,0,0,1,1.6c1,1.2.6,2.34,0,3.49a1.11,1.11,0,0,1-1-.19,5.23,5.23,0,0,1-.87-1.45,10.6,10.6,0,0,0-.88-1.49c-.8-1.17-2.12-1.19-3.3-1.49a2,2,0,0,1-.85-.91c.79-.78,1.14-1.59.07-2.44,1-.16,2.77-2.06,3.44-3.58a4.49,4.49,0,0,1,2.19-2.33c1.83-.6,2.4.7,3,2h0a4.15,4.15,0,0,0,.45,1.27C139,47.35,138.63,48.74,137.81,50.15Z"/><path class="cls-137" d="M128.5,24.19a5.33,5.33,0,0,1-2.07.86c-1.73.5-2.87-1.61-4.76-.81-1.54.65-2.82-.83-4.21-1.36-.92-.52-1.22-1.11-.29-1.94a5.27,5.27,0,0,0,.74-1c1.11.5,2.17,1.45,3.47,1,1.93-.72,3.33.11,4.55,1.39A9.51,9.51,0,0,0,128.5,24.19Z"/><path class="cls-182" d="M132,34.47l-.44.81c.29,1.06-.95,1.85-.51,2.94l-.42.86a1.49,1.49,0,0,1-.28,1.36c-1.82,1-2.35,4.46-5.52,2.91a4.37,4.37,0,0,1,.31-2.29c2.51-3.41,3.94-7.58,7.3-10.4l.42,0a2.13,2.13,0,0,1-.08,2.1c-.13.27-.26.55-.38.83a.7.7,0,0,1-.1.68C132.13,34.42,132,34.5,132,34.47Z"/><path class="cls-180" d="M140.83,33.58a3.39,3.39,0,0,1,.8-.33c.39,0,.57.2.44.56,0,.06-.28.1-.41.07a7.46,7.46,0,0,1-.83-.31Z"/><path class="cls-183" d="M134.39,54.83l.43,1.27a.56.56,0,0,1-.07.67c-.17.16-.29.21-.36.18h0c-1.44,5.75-2.52,11.6,3.51,15.45,2.48,1.59.65,3.37,1.13,5h0c.61,2.63.47,5.5,2.48,7.67h0c-.42.61-.51,1.64-1.44,1.65s-1.65-1.11-2.46,0c-.95,1.31-1.52,2.72-.81,4.35.19.43.41.84.58,1.27.86,2.16.61,2.47-1.8,3-1.45.3-2.67.46-3.77-.91-.36-.45-1.44-.31-2.19-.44a1.16,1.16,0,0,1,.18-1.31c4.24-4.29,4.24-4.93-.14-9.44-1.15-2.11-.95-3.57,1.81-3.82.89.15,1.69,1.36,2.49.82s-.36-1.22-.53-1.87c-4.75.55-7.1-1.75-8.89-8.71A2.11,2.11,0,0,1,127.9,68a2.37,2.37,0,0,1,.75.76,4.17,4.17,0,0,0,.69,1.21,2,2,0,0,0,.73.3,3.24,3.24,0,0,1,.35-.21l-.4,0a1.89,1.89,0,0,1-.16-1.34,4.15,4.15,0,0,1,.6-1.34c.36-.86-.59-.33-.73-.68a2.69,2.69,0,0,1-.82-2.11c.1-1.41.53-2.88-.28-4.17-1.54-2.44-.45-4.14,1.4-5.7a6.33,6.33,0,0,1,1-.68,5,5,0,0,1,1.13-.37,2.48,2.48,0,0,1,1.11.16C133.73,54,133.81,54.68,134.39,54.83Z"/><path class="cls-184" d="M119.81,102.83c-.56-.29-1.12-.57-1.67-.87-1.32-.72-1.35-1.55-.22-2.52.18-.16.16-.54.24-.81-.27-.06-.56-.21-.79-.14-.44.12-.84.43-1.28.55a.94.94,0,0,1-1.27-.91c-.22-1.8.31-3.59-.61-5.46-.55-1.13.65-2.56,1.81-3.45,2-1.5,4-5,5.73.18.18.58.29,1.73.31,1.72,3.87-1,2.58,2.67,3.75,4.08,1.62.53,2.36,2.18,3.78,3a1.75,1.75,0,0,1-2.26,1c-2.31-.85-3.85,1.13-5.81,1.59-.26.06-.29,1.08-.43,1.65l-.24.28a1.92,1.92,0,0,1-.69.22Z"/><path class="cls-184" d="M130.92,82.88c1.29.69,2,2,2.8,3.08.73.92,1.14,1.8.15,2.89-.35.39-.31,1.16-.42,1.76-.32,1.8-.31,1.81-2.4,2.2a2.16,2.16,0,0,0-1.41,1.11l-1.72-.84c-2.45.92-3.17,0-3.25-2.5-.08-2.3.07-5.11-3.27-5.7-1-2.43.42-4.37,1.29-6.44a10.17,10.17,0,0,1,4.54-.52c2.5.41,3.06,1.69,1.58,3.79a3,3,0,0,0-.29,1.05c0,.18,0,.36,0,.54a10.23,10.23,0,0,1,.58,2.17,2.09,2.09,0,0,0,1,2,1.72,1.72,0,0,0,.65.58c.08,0,.12-.25,0-.62-.2-.74-.86-1.18-1.22-1.82A2.07,2.07,0,0,1,130.92,82.88Z"/><path class="cls-185" d="M121.57,84.57a2.8,2.8,0,0,1,2.13.68c.31.34.76.48,1.11,0s.2-1.46,1.08-.88c.5.34.43,1.19.09,1.73-.65,1-1.65,1.91-.18,3.11.48.39.2,1.15,0,1.74-.73,2.06-.05,2,1.5,1.1.31-.19.62.55.63,1l-2.11,2.12c-.37.27-.69,1.46-1.18.42a14.32,14.32,0,0,1-.69-3.63c-1-.27-1.16.82-1.82,1.09s-1.29.11-1.25-.62c.06-.94.16-1.87.25-2.8l.28-.45a2.23,2.23,0,0,0-.45-2.07C120.4,86.1,120.29,85.17,121.57,84.57Z"/><path class="cls-126" d="M132.54,113.5a1.88,1.88,0,0,1-1.25-1.72A2,2,0,0,1,132.54,113.5Z"/><path class="cls-126" d="M132.11,110.1c-.43-.58-.29-.87.43-.86C132.4,109.53,132.25,109.81,132.11,110.1Z"/><path class="cls-186" d="M139,77.37c-.6-.83-.38-1.81-.46-2.72-.1-1.19-.49-1.27-1.32-.47-.56.54-1.42.37-1.36-.31a3,3,0,0,0-1.9-3.33c-1.48-.7-1.7-1.94-1.57-3.53a33.53,33.53,0,0,0-.26-6c-.2-1.93.36-3.32,2.23-4.06a2.85,2.85,0,0,0,1.68,3c.62,1.07-.16,2.32.43,3.4h0c.18.75,1.06,1,1.29,1.68l1.26-.38a1.25,1.25,0,0,1,1.69.84c-.28.57-.57,1.13-.85,1.7-1,.93-2,2-.06,2.85,3.2,1.4,2.51,3,.46,4.8Z"/><path class="cls-179" d="M140.29,74.82c.35-.7.71-1.4,1-2.12.2-.47,0-1.12-.46-1-2.27.56-2.46-2-4-2.56-.32-.11-.23-.87.11-1.24a2.31,2.31,0,0,1,2.94-.72,6.65,6.65,0,0,1,3,.43,2.93,2.93,0,0,1,.58.53,8.41,8.41,0,0,0-.52,3.75,5.9,5.9,0,0,0-.49.8C141.91,73.56,141.62,74.72,140.29,74.82Z"/><path class="cls-186" d="M141.51,85c-.13-.08-.31-.13-.39-.25-.73-1.21-2.38-1.26-3.06-2.66-.81-1.67,1.24-2.42.93-3.84a3.59,3.59,0,0,1,0-.92c.59.17,1.17.35,1.76.51s1.25.73,1.06,1.27C141.17,81.1,142.43,83.13,141.51,85Z"/><path class="cls-179" d="M136.5,63.33c-1.34-1.29-1.34-1.29-.43-3.4,1.32-.1,1.64-1.2,2.15-2.12a1.32,1.32,0,0,1,1.69.88C138.78,60.24,137.12,61.4,136.5,63.33Z"/><path class="cls-185" d="M139.91,58.69l-1.69-.88h0c-.21-.34-.21-.58,0-.72s.33-.19.43-.14c.59-1,1.24-1.17,2-.13S141.16,58.43,139.91,58.69Z"/><path class="cls-179" d="M140.74,65.47l-1.69-.84.85-1.72h0A1.74,1.74,0,0,1,140.74,65.47Z"/><path class="cls-179" d="M139.9,62.91c-.29-.41-.47-.88-.09-1.28a.88.88,0,0,1,.83-.13c.34.18.28.52,0,.78s-.46.42-.7.63Z"/><path class="cls-179" d="M138.63,57c-.14.28-.28.57-.41.86l-.91-1C137.79,56.51,138.2,56.78,138.63,57Z"/><path class="cls-179" d="M137.79,65a1.88,1.88,0,0,1-1.29-1.68A2,2,0,0,1,137.79,65Z"/><path class="cls-186" d="M134.39,57c.14-.29.29-.57.43-.85l.84.42Z"/><path class="cls-187" d="M90.85,101.07l-1.2-1.72c-.55.36-.84.21-.89-.44a6.72,6.72,0,0,1-1.87-.17c-.81-.32-1-1.16-1.08-2-.19-1.24-.44-2.48-.69-3.71a3.19,3.19,0,0,1,.35-2.29c.33-.58.78-1,1.5-.52s1.57,1,2.52,1.55a7.09,7.09,0,0,0-.18-4.36c-.27-2.13,1.29-2,2.66-2.22a4,4,0,0,1,3.39,2,5.3,5.3,0,0,1,.49,1.27,3.77,3.77,0,0,1,0,1.34c-.11.2-.22.39-.32.59-.82,1.15-1.94,2-2.77,3,2.84-1.14,4,0,2.91,2.73A7.73,7.73,0,0,1,90.85,101.07Z"/><path class="cls-188" d="M90.85,101.07c1.35-1.72,2.67-3.46,4.05-5.15a1.31,1.31,0,0,0-.1-2c-.61-.49-1.15,0-1.55.52a8.55,8.55,0,0,1-.88,1.09c-.09.07-.72-.26-.71-.31.51-2.21,1.18-4.35,3.54-5.35a3.26,3.26,0,0,0,.4-.24,2.88,2.88,0,0,1,3.42-1c3.06,1.66,2,4.11,1.25,6.51a9.44,9.44,0,0,1-1.81.19c-1-.09-1.5.28-1.47,1.26,0,.62.27,1.52-.29,1.74-2.88,1.16-2.83,3.83-3.47,6.2-.32,1.17-1.33,1.16-2.31.79C91,103.89,90,102.49,90.85,101.07Z"/><path class="cls-189" d="M92.2,85.75c-.91.66-2.46.22-2.9,1.69a2,2,0,0,1-2.2,0h0c-.57-1.76.36-3.4.45-5.1a17.92,17.92,0,0,1-.84-5.73A1.34,1.34,0,0,1,88,75.1l1.09-.36c.72-.2,1.33-.93,2.19-.44,2.59,2.82-.16,6,.72,9a7.85,7.85,0,0,1,.35,1.85C92.3,85.34,92.25,85.55,92.2,85.75Z"/><path class="cls-190" d="M88.76,98.91l.89.44c-.37,1.17-.72,2.35-1.14,3.5a.86.86,0,0,1-.71.39,1.14,1.14,0,0,1-.73-.49A1.46,1.46,0,0,1,87,101C87.53,100.29,88.16,99.61,88.76,98.91Z"/><path class="cls-156" d="M90.54,74.27a1.93,1.93,0,0,1-1.7,1.26,1.3,1.3,0,0,1,.85-1.7c.48-2.51.48-2.51-2.55-3.39-3.66-1.31-1.5-3.84-1.25-6h0c1.94.22,3.73-.93,5.68-.55,1,.48-1.81,2.49,1.17,2.45,1.63,0,1.11,1.71.42,2.81C94,71.73,95,74.44,90.54,74.27Z"/><path class="cls-191" d="M85.89,64.47c0,1.38,0,2.76,0,4.15a2.19,2.19,0,0,0,1.21,1.82,2,2,0,0,1-2.12,0c-.27-.14-.55-.29-.82-.45-.15-.42-.3-.85-.46-1.28,1.07-1.36.65-3.14,1.29-4.62Z"/><path class="cls-151" d="M87.55,82.34c.48,1.75,0,3.42-.45,5.1C85.56,85.59,86.72,84,87.55,82.34Z"/><path class="cls-192" d="M89.69,73.83l-.85,1.7L88,75.1A2,2,0,0,1,89.69,73.83Z"/><path class="cls-193" d="M93.13,60.67c-1.67-.86-1.21-2.43-1.26-3.83.37-.44.07-.93.08-1.39a4.59,4.59,0,0,1,.33-1.51c.15-.51.28-1,.39-1.54a2.85,2.85,0,0,1,.44-1,2,2,0,0,1,1-.49,5.2,5.2,0,0,1,1.76.08,2,2,0,0,1,.95.75A4.68,4.68,0,0,1,97,53c-.33,3.15,4.43,3.28,3.91,6.54.1,1.5.73,2.93.65,4.46a2.23,2.23,0,0,1-1.09,1.54C97.33,65,96.47,61,93.13,60.67Z"/><path class="cls-194" d="M93.13,60.67c.91-.68,1.7.85,2.64.11,1.17-.93,2.18-.66,2.21.85,0,1.83,1.32,2.65,2.38,3.71a6,6,0,0,1-.25,1.84c-.25,2.46-1.42,4.68-3.92,4.39-2.28-.26-.87-2.87-1.26-4.4-.16-.6-.21-1.24-.31-1.86A22.16,22.16,0,0,0,93.57,62C93.42,61.53,93.28,61.1,93.13,60.67Z"/><path class="cls-194" d="M91.41,68.32a8.86,8.86,0,0,1,.82-.4c.36-.14,1-.2.67-.73a1.25,1.25,0,0,0-1.19-.33,17,17,0,0,0-1.57,1.6.93.93,0,0,1-.73.11c-.19-.38-.5-.95-.35-1.19.71-1.16,1.56-2.23,2.36-3.32a.56.56,0,0,1,.1-.65c.17-.15.28-.2.35-.17l1.29-.45c1.74.66.5,3,2.14,3.75.15,1.29.06,2.54-1.34,3A1.94,1.94,0,0,1,91.41,68.32Z"/><path class="cls-195" d="M93.53,51.29c-.12.3-.24.58-.38.87a1.46,1.46,0,0,0-.59,1.71,2.8,2.8,0,0,1-.6,1.49l-.52.19a3.43,3.43,0,0,0-.9-.27c-1.85,0-1.85,0-2.51-1.44a3.59,3.59,0,0,0,.21-2.54c-.17-.59-.13-1.15.64-1.31C90.91,48.73,92.47,49.1,93.53,51.29Z"/><path class="cls-191" d="M91.87,63.24c-.16.27-.31.54-.45.82-1.82.57-3.61,1.36-5.54.41,1.15-1.14,3.12-.61,4.18-2.26C90.53,61.48,91.72,62,91.87,63.24Z"/><path class="cls-196" d="M94.81,65.76c-1.22,0-1.91-.35-1.4-1.77.12-.33-.16-.8-.25-1.2.13-.29.26-.56.41-.84,2,1.15,2,1.15,1.69,3,.15.31.13.53-.05.66S94.9,65.81,94.81,65.76Z"/><path class="cls-197" d="M86.71,58.52a1.76,1.76,0,0,1,2.48.53c.27.35.48.83.09,1.2-.12.11-.6,0-.8-.18-.62-.47-1.18-1-1.76-1.54Z"/><path class="cls-198" d="M92.29,56c.45.58.3.86-.42.86-.14-.43-.29-.86-.43-1.29h0C91.93,55.3,92.22,55.42,92.29,56Z"/><path class="cls-199" d="M93.53,51.29A8,8,0,0,0,88.88,50a4.07,4.07,0,0,0-1.36-3.67c-1.63-1.15-1.4-2.89-1.9-4.4a9.68,9.68,0,0,0,2.47-5.08c.49-.26.77-.12.86.42,1.56,1.71,3.25,2,5.09.44h0l.92.39c1.42.38,1.49,1.41,1.24,2.6-1.3,1.85-2.54,3.75-3.78,5.65-.23.5-.74.87-.7,1.5a2.09,2.09,0,0,1,1-1.41,2.3,2.3,0,0,1,1.72,1.79c.14,1.15.23,2.29-.85,3.11Z"/><path class="cls-155" d="M89,37.26l-.86-.42c0-.71,0-1.41,0-2.12A1.71,1.71,0,0,1,89,37.26Z"/><path class="cls-200" d="M117.29,86.67c-.53-.47-2.3,1.73-1.87-.86a.88.88,0,0,0-.6-1.09,1.25,1.25,0,0,0-1.56.6,14.53,14.53,0,0,0-.64,2.19c-1,.42-1.68,2.2-3.13.93a2.1,2.1,0,0,1-.36-3c1.63-2.55-2.32.59-1.33-1.3-.49-2.59,1.09-4.12,2.91-5.46s3.06-2.75,2.37-5.14a4.71,4.71,0,0,1,0-1.3,12.08,12.08,0,0,0,.18-4.53c-.22-2,1.12-3,3-3.44a2.8,2.8,0,0,1,1.81.79,1.51,1.51,0,0,1,.3,1.23c0,1-2.09,1.62.2,3.19,2.06,1.42-1.35,3.86-.83,6.07,0,.39.09.78.17,1.16s.21.72.31,1.08a3.15,3.15,0,0,1,.06,1.64,5.89,5.89,0,0,1,.27,5A3,3,0,0,1,117.29,86.67Z"/><path class="cls-167" d="M108,84.08a4.7,4.7,0,0,0,3-1c.36,1.52-.57,2.16-1.21,2.93a1.28,1.28,0,0,0-.06,1.67c.43.61,1,.55,1.61.24a7.85,7.85,0,0,1,1.3-.4c-.11.29-.32.59-.29.86.19,2-1.22,2.5-2.69,2.95-2.4-.29-3.48-2.16-4.66-3.9-.63-1.84-.46-3.33,1.75-3.9A1.33,1.33,0,0,1,108,84.08Z"/><path class="cls-142" d="M117.29,86.67c0-.71,0-1.41,0-2.12,4.16.56.88-2.87,2.09-3.9.09-1.68.12-3.44,2.67-2.64l.37.59c.36,1.45,1.29,2.91-.44,4.21-.37.28-.29,1.16-.42,1.76a1.71,1.71,0,0,0,.81,2.54,2.26,2.26,0,0,1-1.26,2.55h0a6.94,6.94,0,0,1-.71-1.16c-.43-1.19-1-1.27-2-.53A4.16,4.16,0,0,1,116,89.22Z"/><path class="cls-201" d="M105.42,87.06l4.22,4.26h0a1.35,1.35,0,0,1-.86,1.71l-1.28.42c-.75.17-1,1.06-1.7,1.27l-.42.84-1.28-1.71a3.27,3.27,0,0,1-.68-3A7,7,0,0,1,105.42,87.06Z"/><path class="cls-202" d="M121.09,102.42c.41,1.19,1,2.42-.78,3a2,2,0,0,0-1.27,1.27c-.23.64-.1,1.79-1.35,1.25-.84-.37-.79-1.24-.85-2a2,2,0,0,1,1.33-2.22c.57-.25,1.09-.6,1.64-.91h0a7.33,7.33,0,0,0,1.28-.41Z"/><path class="cls-167" d="M105.8,94.73a1.91,1.91,0,0,1,1.7-1.27A2,2,0,0,1,105.8,94.73Z"/><path class="cls-167" d="M108.78,93l.86-1.71C110.22,92.33,109.92,92.89,108.78,93Z"/><path class="cls-136" d="M94.25,109.15a4,4,0,0,1-.55.72c-.69.59-1.49.62-1.93-.17s.43-1,.8-1.42h0a1.26,1.26,0,0,1,1.67.87Z"/><path class="cls-187" d="M104.53,90.89a6.43,6.43,0,0,0-.43,3,2.51,2.51,0,0,1-.82.17c-1.22-.18-1.21-.2-.88,1.1a2,2,0,0,1-2.13,0,9.26,9.26,0,0,1-.67-2.22c-.12-2.75-.1-2.82-1.44-4.17a3.31,3.31,0,0,1-2.56.85h0a11.11,11.11,0,0,0-.42-1.27v0c-.75-1.86-.55-4-2-5.69-.46-1.24-3.61-3,.57-3.43,1.37.18,2.6,1,4.13.9.88-1.74-1.22-3.07-.71-4.73a1.25,1.25,0,0,1,.87-.84c1.75.22,3,1.61,4.55,2.15,3.93,3.72.3,7.21-.3,10.77-2.07,1.54,1.54.93.77,2C103.16,90.27,104.11,90.33,104.53,90.89Z"/><path class="cls-167" d="M104.08,98.11c-.56,1.11-1.17,2.22,0,3.72-1.09-.16-1.69-.27-2.29-.32s-1.33-.06-1.6-.67a2,2,0,0,1,.57-2.11,2.59,2.59,0,0,1,3.35-.61Z"/><path class="cls-165" d="M94.25,109.15l-1.67-.87a7.56,7.56,0,0,1,1.19-.7c1.7-.61,3-.44,2.76.29C96.23,109,94.9,108.52,94.25,109.15Z"/><path class="cls-203" d="M125.91,41.9l-.84,1.83a2.4,2.4,0,0,1-1.18.26,22.79,22.79,0,0,0-3.6-.28,3.31,3.31,0,0,1-1.16-.34c-2.12-.81-3.86,1.6-6,.74-.3-.32-.79-.6-.86-1s.23-.83.4-1.24c1.52-3.9,1.52-3.9.92-7.12a3.93,3.93,0,0,0,5.1-1.7h0c1.33-.1,1.58-1.38,2.34-2.11a1.81,1.81,0,0,1,1.22-.49c.68,0,.48.62.45,1.05a12.76,12.76,0,0,1-1.86,5.81c2.5-1.94,2.79-3.94,3.76-5.51a.68.68,0,0,1,.48-.85h0l.83.42A3.75,3.75,0,0,1,125.5,35,5.94,5.94,0,0,0,125.91,41.9Z"/><path class="cls-182" d="M113.15,44.11c.19-.25.41-.74.55-.72,1.67.26,3,.2,3.13-2,0-.67.83-.89,1.38-.28s1.18,1.48,1.76,2.22h0c1.44-1.24,2.86-.84,4.27.06.22.88,1.42.94,1.56,1.89-1.16,2.43.48,4.59.66,6.88a1.55,1.55,0,0,1-.88.91c-2,.09-3.82.51-4.92,2.42a2.27,2.27,0,0,1-2.5,0c-1.72-2.25,1.81-4.92-.57-7.12a3.39,3.39,0,0,0-2.07-1.76,2.23,2.23,0,0,1-1-.44,2.45,2.45,0,0,1-.49-1.6Z"/><path class="cls-204" d="M103.38,48.78c.44.1,1.14.07,1.28.33a6.63,6.63,0,0,0,2.27,2.72c.59.36-.08.64-.52.75s-1.36,0-1.29.86c0,.23.84.32,1.07.64a13.42,13.42,0,0,1,1,2,2.52,2.52,0,0,1,.06,1.39,4.25,4.25,0,0,1-3.09,2.65s-7.7-6.92-7.7-6.91a3,3,0,0,1,.63-1.07c1.15-.22,2.31-.34,3.43-.67a1.36,1.36,0,0,1,.83.24c.49.29-.25.54.19.09,0-.06-.1-.44-.08-.79A2.59,2.59,0,0,1,103.38,48.78Z"/><path class="cls-177" d="M95.75,40.68A3.47,3.47,0,0,0,95,38.09c.4-.84.81-1.68,1.21-2.51.83-.07,1.27-.69,1.83-1.19a4.06,4.06,0,0,1,4.58-.93c.24.16.49.32.75.46,0,.21.09.43.14.65a3.87,3.87,0,0,1-.91.94c-2.65,1.72-3.18,4.28-3.44,7.25-.27,3.12,1,6.58-1.55,9.34a1.1,1.1,0,0,1-.34.34.76.76,0,0,1-.71-.68h0a2.3,2.3,0,0,0-.74-1l-.3-.59C95.7,47,94.47,43.79,95.75,40.68Z"/><path class="cls-205" d="M106.83,56.82a7.92,7.92,0,0,0,.37-.78l6-7.64.77.11A2.31,2.31,0,0,1,114.3,50c-1.49,4.11-3.49,7.85-7.39,10.22C105.34,59.11,107.28,57.94,106.83,56.82Z"/><path class="cls-206" d="M101.66,52.18c-.31-.16-.61-.33-.91-.5-.2-4.73,2.68-8.16,5-11.83a4.56,4.56,0,0,1,1.54-.85,2.52,2.52,0,0,1-.09,2.24c-.39.84-1.22,1.83-1,2.54.73,2.71-1.08,3.78-2.78,5l-1.72,3.4Z"/><path class="cls-207" d="M111.15,40.5c-.21,1.53-.41,2.71-.51,3.9s0,2.18-.08,3.27c0,.66-.26,1.3-1,1.3a1,1,0,0,1-1-1.27C109.39,45.41,109,42.69,111.15,40.5Z"/><path class="cls-203" d="M114,44.56l1.27,1.69c0,.75-.45,1.1-1.08,1.33l-.63,0c-1.65-.47-1.88-.88-1-1.84A12.78,12.78,0,0,1,114,44.56Z"/><path class="cls-208" d="M107.28,39l-.47.86c-2.34.27-3.27-.82-3-3.09l.62-.41C106.45,36.14,106.34,38.12,107.28,39Z"/><path class="cls-208" d="M103.85,35.12c.21.41.42.82.62,1.24l-.54.24c-1-.18-1.59-.61-1.08-1.73l.27-.3A.81.81,0,0,1,103.85,35.12Z"/><path class="cls-203" d="M113.93,48.68a5.16,5.16,0,0,1-.78-.28l.42-.86h0C114.43,47.72,114.52,48.1,113.93,48.68Z"/><path class="cls-175" d="M103.85,35.12a2.46,2.46,0,0,1-.73-.55l.21-.65C103.51,34.32,103.68,34.72,103.85,35.12Z"/><path class="cls-199" d="M94,37.7c-.08-.12-.27-.32-.24-.35.2-.25.3-.12.24.35Z"/><path class="cls-177" d="M95.75,34.31l.42,1.28Z"/><path class="cls-162" d="M118.71,33.09c-1.46.14-2.28-.74-2.92-1.87-.45-.78-.42-1.52.53-1.89a7.21,7.21,0,0,0,4-2.83c-.27,1.81,0,2.84-1.2,3.67-1.07.72.51,2-.38,2.91Z"/><path class="cls-137" d="M125.1,31l-.48.85c-.25-.3-.25-.58,0-.78A1.25,1.25,0,0,1,125.1,31Z"/><path class="cls-136" d="M130.18,39.91l.43-.83a4.53,4.53,0,0,0,1.28-.48c1-.82,1.89-.45,3-.09,1.38.44,1.69,1.09,1.44,2.37-.18.89.7,1.31,1.1,1.95a2,2,0,0,1,0,1.79c-.46-.36-.94-.71-1.38-1.1a.92.92,0,0,0-1.18-.18C132,44,130.54,42.68,130.18,39.91Z"/><path class="cls-136" d="M131,38.22c-.68-1.13,0-2,.51-2.94C132.13,36.39,131.48,37.29,131,38.22Z"/><path class="cls-136" d="M132,34.47c.13-.31.27-.61.4-.91a4.07,4.07,0,0,1,0,.78C132.38,34.4,132.12,34.43,132,34.47Z"/><path class="cls-209" d="M125.91,41.9a14.28,14.28,0,0,1-2.19-.81c-1.69-1-2-1.85-1.17-3.48,1.07-2.1,2.25-4.14,3.38-6.21.13-.09.27-.16.39-.26,2.89-2.26,2.89-2.26,6.1-.48C131.23,35,128.39,38.33,125.91,41.9Z"/><path class="cls-210" d="M118.23,55.2h2.13c2.62.85,3.53-2,5.53-2.54h0c.92-.68,1.63-1.73,3-1.68l.85.43c.36,1.1,1.63,1.68,1.67,3-.62.68-1.3,1.32-1.85,2-.73,1-1.8,2.05.26,2.82a1,1,0,0,1,.51.7,32.76,32.76,0,0,1-.13,4.09c0,.36-.6.66-.92,1-.25,3.92-2.4,2.93-4.37,1.55s-3.09-3.55-4.78-5.2c-1.18,0-1.41-2.35-2.56-1.46s-1.14,2.8-2,4.08c-1.94.84-2.09,5.06-5.58,2.92,1-3.59,3.53-6.45,4.84-9.9C115.35,55.55,116.71,55.08,118.23,55.2Z"/><path class="cls-172" d="M130.18,39.91c.37.29.94.51,1.07.88.59,1.76,2.12,2.09,3.59,2.55-2.11,1.5-2.73,3.46-1.69,6.21-1.56.05-2.79-1.65-4.28-.74-2.77.2-2.68-2.14-3.38-3.78a2,2,0,0,1-1.26-1.67l.84.37a2.46,2.46,0,0,0,1.78-1.37A5.23,5.23,0,0,1,130.18,39.91Z"/><path class="cls-203" d="M125.49,45a3.63,3.63,0,0,1,1.79,2.11,3.09,3.09,0,0,0,1.59,1.67c1.22,1,1.22,1,0,2.17a2.83,2.83,0,0,1-3,1.68,3.57,3.57,0,0,0-1.6-3c-1-.83-1-1.73,0-2.7A11,11,0,0,0,125.49,45Z"/><path class="cls-203" d="M131.4,54.36c-2-1.12-2-1.12-1.67-3,2.59-.6,2.59-.6,4.24,2.13l-.5.17c-.45-.07-.91-.48-1.34,0a1.29,1.29,0,0,1-.72.62Z"/><path class="cls-186" d="M134.39,54.83c-.58.43-.86.28-.85-.43-.2-.34-.2-.58,0-.72s.34-.19.44-.14h0Z"/><path class="cls-211" d="M129.64,87.55c-.31.28-.62.79-.93.79-.83,0-.78-.78-.68-1.3a12.07,12.07,0,0,1,.76-2.05c-.2-.74-1.06-1-1.28-1.7h0c-.13-.43-.26-.85-.41-1.26a11,11,0,0,0,1.68-1.59c.38-.53.35-1.18-.54-1.36a4.61,4.61,0,0,0-3.17,0c-.94.47-1.8-.15-2.64-.54h0c.71-2.49,2.49-5-.35-7.35a3.34,3.34,0,0,1,2.93-2,4.07,4.07,0,0,1,.51.79c.39,1,.18,2.52,2,2.39,0,1.57,2,2.28,1.61,4.24-.26,1.26,1,1.66,2.28.82a14.26,14.26,0,0,1,1.48-1.14c.5-.26,1.27-.49,1.43.37.06.29-.51.71-.8,1.08.48,2.45.34,2.73-1.28,2.53-.93-.32-1.85-.51-2.28.7-.34.94.37,1.39,1,1.85-.44,1-1.14,1.86-.43,3A1.25,1.25,0,0,1,129.64,87.55Z"/><path class="cls-211" d="M121.19,59.89c1.07,2.61,3.08,4.51,5,6.49.85.89,1.56.69,2.64-.55a5,5,0,0,0,.47-.82l1.27,1.71a.61.61,0,0,1,.84.42l-.85,1.7a2.13,2.13,0,0,1-2.14,0,6.24,6.24,0,0,0-3-.43c-.68-.34-1.47-.29-2.16-.61a3,3,0,0,1-.86-.73c-.22-.31-.41-.64-.6-1-.1-.15-.2-.31-.31-.46-.74-.89-1.22-.12-1.75.28s-1.07.52-1.56-.07v0C115.3,61.86,118.62,61.07,121.19,59.89Z"/><path class="cls-212" d="M132.2,80.33c1.4-.35.58-1.83,1.28-2.53.55.28,1.1.55,1.63.85.7.4,1.29.91,1,1.81a2,2,0,0,1-2.08,1.48A1.71,1.71,0,0,1,132.2,80.33Z"/><path class="cls-213" d="M122.87,67.12c1,.19,2.39-.49,2.56,1.29-.15.28-.29.56-.43.84a6,6,0,0,1-3,1.69l-.7-.26C120.62,69,121.22,67.82,122.87,67.12Z"/><path class="cls-210" d="M128.39,68.84a2,2,0,0,1,2.14,0c0,.71,0,1.42,0,2.12H128.4c-.11-.43-.26-.85-.41-1.27Z"/><path class="cls-181" d="M134,53.54l-.43.86L132.7,54a.56.56,0,0,1-.85-.44c-.16-.52,0-.85.57-.7A11.32,11.32,0,0,1,134,53.54Z"/><path class="cls-211" d="M130.52,71a3.25,3.25,0,0,1,.32.81c0,.39-.19.57-.55.44-.07,0-.1-.28-.07-.41a8.39,8.39,0,0,1,.3-.84Z"/><path class="cls-211" d="M128,69.69,128.4,71Z"/><path class="cls-210" d="M131.38,67.14l-.84-.42C131.11,66.28,131.39,66.41,131.38,67.14Z"/><path class="cls-186" d="M131.85,53.54l.85.44-1.29.39C131.56,54.1,131.7,53.82,131.85,53.54Z"/><path class="cls-126" d="M117.45,93.25c-.2.16-.44.47-.6.44-.6-.13-1.08-.49-.95-1.19,0-.21.42-.52.6-.49A1.1,1.1,0,0,1,117.45,93.25Z"/><path class="cls-126" d="M121.09,102.42l-1.28.41Z"/><path class="cls-214" d="M129.64,87.55l.85-1.69c.63.18,1.71-.08,1.47,1.08a19.9,19.9,0,0,1-1,2.89C129.67,89.43,130.3,88.15,129.64,87.55Z"/><path class="cls-183" d="M127.51,83.29a2,2,0,0,1,1.28,1.7A1.92,1.92,0,0,1,127.51,83.29Z"/><path class="cls-183" d="M127.1,82c.14.42.27.84.41,1.26C127.37,82.88,127.24,82.46,127.1,82Z"/><path class="cls-184" d="M121.12,89.66l1.26-2.55a9.5,9.5,0,0,1,.38,1.62C122.82,90,122.08,90.07,121.12,89.66Z"/><path class="cls-215" d="M134.4,66.93c.18.22.53.46.51.67s-.4.38-.63.56c-.19-.22-.53-.46-.51-.67S134.17,67.11,134.4,66.93Z"/><path class="cls-188" d="M93.91,82.34c1.18.65,2.59,1.09,1.39,3-.53.84.56,2-.12,3a6.44,6.44,0,0,0-3-2.55h0a5.57,5.57,0,0,1,1.22-3.12Z"/><path class="cls-188" d="M95.18,88.32l.42,1.27Z"/><path class="cls-216" d="M98.06,92.49c-.2.54-.56.83-1,.66a1.18,1.18,0,0,1-.79-1.46.84.84,0,0,1,1.07-.58C98,91.3,98.07,91.93,98.06,92.49Z"/><path class="cls-192" d="M93.89,80.21c-.4-.15-.82-.43-1.19,0-.06.07.19.49.37.65a2,2,0,0,1,.84,1.49h0c-1,.43-1.7,1.57-2.94,1.69-.74-1.5-.39-2.94,0-4.47.5-1.77.84-3.63-.47-5.29l.76-.52c.73-.47,1.93-.53,1.89-1.71,0-.85-1-1.11-1.51-1.61s-.52-1.37-.27-2.11a5.38,5.38,0,0,0,.85.38c1.8.47,2.19.23,2.51-1.54a9.28,9.28,0,0,0,0-1.4l.45-.77c1.24,1.51.86,3.23.61,4.93-.06.46-.2,1,.39,1.11s.77-.29,1.1-.66c.76-.86,2-1.26,1.41-2.94-.38-1,1-1.42,1.59-2.09l.84-1.69c.12-.92.66-.9,1.32-.6a3.19,3.19,0,0,1,0,2.39c-.12.56-.25,1.13-.34,1.69a8.21,8.21,0,0,1-.42,1.62c-.1.35-.22.7-.33,1a13.62,13.62,0,0,1-.48,1.62,7.77,7.77,0,0,1-.63,1c-.64,1-.95,2.31-2.5,2.27l-.06.08c-1.14.7-1.7,2-2.83,2.68a10.41,10.41,0,0,1-.21,2.16A1,1,0,0,1,93.89,80.21Z"/><path class="cls-187" d="M91,84c1.1-2,1.1-2,2.94-1.69a3.07,3.07,0,0,1-1.71,3.41Z"/><path class="cls-198" d="M96.52,51.76l.71.68c-.31,1.3,0,2.13,1.53,2.15.52,0,1.29-.82,1.53.15.58,2.27,2.81,3.23,3.83,5.13a1.05,1.05,0,0,1-.08.77c-.13.24-.22.35-.26.33-1.59.69-2.74-.12-3.84-1.13A15.83,15.83,0,0,0,99.66,58a1.66,1.66,0,0,0-1.08-1.3C95.44,55.53,95.39,55.33,96.52,51.76Z"/><path class="cls-204" d="M99.94,59.84l3.8.79a2.12,2.12,0,0,1,.11,1.34,2,2,0,0,1-1.47,1.31l-1.18.37A5.69,5.69,0,0,1,99.94,59.84Z"/><path class="cls-198" d="M92.29,53.86a10.62,10.62,0,0,1-1.15-.64c-.23-.15-.52-.42-.53-.64a.77.77,0,0,1,.84-.76,10.23,10.23,0,0,1,1.7.34,2,2,0,0,1,0,2.13C92.65,54.56,92.38,54.4,92.29,53.86Z"/><path class="cls-217" d="M93.62,51.33a6.25,6.25,0,0,1,.37-3c1.36.07,1.54,1.29,2.12,2.14h.06a.58.58,0,0,1-.09.66c-.17.16-.28.22-.35.18A1.92,1.92,0,0,1,93.62,51.33Z"/><path class="cls-153" d="M92.29,53.86l.86.43L92.29,56l-.85-.42C91.73,55,92,54.42,92.29,53.86Z"/><path class="cls-198" d="M95.73,51.3l.44-.84c.12.43.23.86.35,1.29C96.25,51.61,96,51.46,95.73,51.3Z"/><path class="cls-218" d="M96.11,50.47,94,48.33l-1.3-1.68c-.5.23-.75.05-.78-.49.67-2.25,1.39-4.48,3.84-5.48A24.29,24.29,0,0,1,96.11,50.47Z"/><path class="cls-219" d="M89.25,43.14c.06.24.25.55.16.71a.54.54,0,0,1-1,.1.78.78,0,0,1,.08-.75C88.64,43.07,89,43.15,89.25,43.14Z"/><path class="cls-220" d="M91.91,46.16c.27.15.53.32.79.49a8.43,8.43,0,0,1-.65,1.18c-.15.2-.46.28-.71.42a2.74,2.74,0,0,1,0-.86A9.63,9.63,0,0,1,91.91,46.16Z"/><path class="cls-221" d="M110.13,67.1a2.93,2.93,0,0,0,2.93-1.64,7.34,7.34,0,0,1,2.18-2.19c1.25-.05,2.09.21,1.27,1.71-1.06,0-1.5.93-2.09,1.6-.3.34-.72.8-.34,1.16,1.87,1.81.3,3.31-.37,4.9-.06.14-.14.27-.2.41a14,14,0,0,0-1.35.47,1.34,1.34,0,0,0,.12-.06c.45-.15.84-.27,1.23-.41.52.75,1.68,1.76,1.21,2.29-1,1.15-.66,3.14-2.36,3.7-2.5.82-3.39,3-4.4,5l-.88-.41a5.28,5.28,0,0,0-.27-.53,5.79,5.79,0,0,1-.12-1.16c.09-1.32-.8-2-1.72-2.71a4.53,4.53,0,0,1-.79-.91,4,4,0,0,1-.38-1.17c0-.2,0-.4,0-.6a2.9,2.9,0,0,1,.59-1,4.74,4.74,0,0,0,1.62-2.95,6.81,6.81,0,0,1,.55-1.78C107.61,69.43,108.24,67.66,110.13,67.1Z"/><path class="cls-181" d="M122,70.94a4.92,4.92,0,0,1,1.19.68c2.91,3,4.38,2.88,0,5.9a4.61,4.61,0,0,0-.83,1.08c-2-.31-2-.31-2.14,2.13a2.28,2.28,0,0,1-2.54-1.29l-.42-1.28c-.1-.44-.28-.85-.42-1.27h0C118,74.42,118.3,71.2,122,71Z"/><path class="cls-142" d="M122,71a3,3,0,0,1-1.63,1.55c-1.52.49-1.89,1.15-.7,2.49.3.35-.25,1.3-1,1.1a1.32,1.32,0,0,0-1.82.8,4.88,4.88,0,0,1,1.06-5.6c.5-.48.76-1.19.08-1.55-.31-.16-1,.44-1.53.69-.46-.33-.05-.84-.19-1.16-.9-2,.58-2.65,1.88-3.42l1.28-.44c1.07-.44,2.11-.6,3,.44h0c.15.41.25.85.42,1.26h0C122.41,68.36,121.23,69.43,122,71Z"/><path class="cls-222" d="M116.51,65a2,2,0,0,0-1.27-1.71c-.39-2.74,1.4-4.29,3.2-5.85.85.49,0,1.44.53,2s1.47.36,2.22.48c-.29.37-.51,1-.88,1.08-2.67.78-2.53,2.74-2.11,4.83Z"/><path class="cls-223" d="M117.74,79.44l2.54,1.29a26.83,26.83,0,0,1-.27,2.7c-.39,2-.42,2-2.71,1.12.32-1.16.63-2.31,1-3.56l-1.43-.28c-.43-.08-.92-.17-.76-.75.06-.21.46-.38.74-.46A3.43,3.43,0,0,1,117.74,79.44Z"/><path class="cls-142" d="M116.9,76.89l.42,1.27Z"/><path class="cls-224" d="M107.1,73a5.42,5.42,0,0,0-.37,1.3c-.06,1.46-1,1.73-2.17,1.7-.3.08-.46.22-.49.44s0,.35.05.39h0c.15.42.3.85.42,1.28h0c.77,1.26,2.92,1.65,2.35,3.75.13.58,0,1.19.2,1.77h0a3,3,0,0,0-1.67,3.39c-.3,1.27-.6,2.55-.89,3.83-.6-.23-1.61.38-1.7-.86.19-1.42-1.22-1.92-1.69-3,1.26-.87,2.19-1.83,1.13-3.45a7.83,7.83,0,0,1-.74-1.19c-.61-1.38-.2-1.8,2.22-2L102,76.85a2.07,2.07,0,0,1,0-1.74,4.13,4.13,0,0,1,.71-1,20.48,20.48,0,0,1,2.48-1.47,3.44,3.44,0,0,1,1.08-.36A1,1,0,0,1,107.1,73Z"/><path class="cls-225" d="M93.89,80.21c.16-.27.3-.55.44-.83-.25-.71.33-1.41,0-2.13a3,3,0,0,1-.49-.77c-.17-.54-.36-1.5.6-1,1.21.66,1.44.52,1.64-.8s.35-1.17,1.66,0a4.75,4.75,0,0,0,1.15,3,4.73,4.73,0,0,1,.88,3.07c-.07.65-.59,1.44-1.11,1.07C97.21,80.82,95.28,81.32,93.89,80.21Z"/><path class="cls-194" d="M102.84,75.05l-.82,1.8a1.92,1.92,0,0,1-2.5-.57c-.55-.55-1.13-1.07-1.7-1.61.33-.43,1.13-.66.9-1.35-.58-1.74.61-1.54,1.63-1.58l.37.28a4,4,0,0,1,.53.76s.26.39.27.38c.3.36.63.69.94,1A2.41,2.41,0,0,1,102.84,75.05Z"/><path class="cls-201" d="M101.14,87.07c2,1.12,2,1.12,1.69,3-.42-.41-.76-1-1.26-1.19C100.6,88.38,100.79,87.77,101.14,87.07Z"/><path class="cls-188" d="M97.46,87.38h.89c-.07.45-.13.9-.19,1.35a6,6,0,0,1-.78-.54C97.09,87.92,97.14,87.63,97.46,87.38Z"/><path class="cls-205" d="M102.84,75.05l-.78-.34c-.21-.74-1.09-1-1.31-1.68v0c-.13-.42-.24-.86-.37-1.28h0a9.11,9.11,0,0,0,.35-.86,2,2,0,0,1,.08-1.07,2.28,2.28,0,0,0,.08-1.07c.2-.58.41-1.15.62-1.73,0-.23,0-.46,0-.69l.62-.28c2,1.79,3.48,1.52,5.28-.73,3.07-3.83,5.13-8.29,8.08-12.17,1.49-2,.33-3.15-1.39-4.07l-.19-.39c-.11-.38-.22-.76-.32-1.15l1.66-1.28h0a2.46,2.46,0,0,1,2.58,1.28c.54.53,1.11,1,1.61,1.59s1,1.43.22,2.39a5.51,5.51,0,0,0-1.46,3.7c-2,1.76-2,1.76-3.36,4.59a24.2,24.2,0,0,1-4.74,7.31c-.93,1.71-1.56,3.64-3.43,4.65q.19.45-.06.66c-.17.14-.29.19-.37.15l0,0c-1,.53-1.94,1.19-2.92,1.76Z"/><path class="cls-226" d="M125.89,52.67c-.47,1.1-2,1.69-1.5,3.26a.62.62,0,0,1-.76.81c-1.2-.26-2.57-.2-3.27-1.53l.86-3.19A14.7,14.7,0,0,1,125.89,52.67Z"/><path class="cls-203" d="M117.86,47.52l-2.58-1.28c.45-.75,1-1.32,1.74-.36A9.38,9.38,0,0,1,117.86,47.52Z"/><path class="cls-203" d="M120,43.3c.09.13.27.33.25.36-.21.26-.31.12-.24-.36Z"/><path class="cls-227" d="M102.85,34.87a2.78,2.78,0,0,0,1.08,1.73,5.35,5.35,0,0,0,2.88,3.26,43.79,43.79,0,0,1-3.64,7.4q-1.2,2.22-2.42,4.42l-1,.94c-1.12,1-1.12,1-2.18-.52a63,63,0,0,0,.37-10.81c-.14-3,1.62-4.95,3.61-6.76C101.73,34.36,102.41,34.74,102.85,34.87Z"/><path class="cls-172" d="M103.34,61.54l.4-.91a7.69,7.69,0,0,0,.38-.76l2.71-3c.55,1.17-.2,2.16-.44,3.22l-.27.52C105.32,61.24,104.77,62.66,103.34,61.54Z"/><path class="cls-228" d="M101.66,52.18c.82.48,1.65,1,1.45,2.12-.16.84-1.09-.38-1.45-2.12Z"/><path class="cls-229" d="M114.12,49.07a11.33,11.33,0,0,1,2.25-.54A1.34,1.34,0,0,1,117.81,50a5.46,5.46,0,0,1-.91,3.11,168.7,168.7,0,0,1-11,16.29c-1,1.29-2,1.11-2.72-.55-.36-.87-.62-1.77-.93-2.65.24-2.8,2.55-4.26,4-6.24l.06.08c.38-.25.89-.41,1.12-.76C109.74,55.89,111.92,52.48,114.12,49.07Z"/><path class="cls-213" d="M122.44,65.85a6.5,6.5,0,0,1-3-.44c.13-.84-.07-2,1.19-2C122.37,63.34,122.41,64.63,122.44,65.85Z"/><path class="cls-213" d="M122.87,67.12l-.42-1.26Z"/><path class="cls-230" d="M106.33,60l-4,6.24-.46-.06-.44,0-.19-.4,1.2-2.51c.31-.58.63-1.16,1-1.74C104.66,61.62,105,59.76,106.33,60Z"/><path class="cls-187" d="M94.35,77.25a1.88,1.88,0,0,1,0,2.13A2,2,0,0,1,94.35,77.25Z"/><path class="cls-194" d="M101.09,70l-.39.87-.36-1.26C100.73,69.49,101,69.6,101.09,70Z"/><path class="cls-230" d="M101.09,70c-.24-.13-.49-.27-.75-.39l.51-.88C100.94,69.16,101,69.59,101.09,70Z"/><path class="cls-194" d="M101.19,65.79c.22.11.43.23.64.35a1.8,1.8,0,0,1-.35.87C101.38,66.6,101.29,66.2,101.19,65.79Z"/><path class="cls-194" d="M106.67,82.39c-.24-1.65-1.49-2.8-2.13-4.25.54.27,1.09.52,1.63.8,1.77.93,1.76.93,1.43,3,0,.3-.06.6-.09.9A.58.58,0,0,1,106.67,82.39Z"/><path class="cls-231" d="M112.23,73.47c-.46.63-.92,1.36-1.85,1a1.61,1.61,0,0,1-.9-.93,1.87,1.87,0,0,1,.46-1.19c.08-.12.57-.07.79.06a17.33,17.33,0,0,1,1.5,1.09Z"/><path class="cls-230" d="M106.27,72.56a7.82,7.82,0,0,1,.43-.81c.14.43.27.85.4,1.28Z"/><path class="cls-194" d="M104.12,76.86c-.41-.58-.32-.88.44-.83C104.42,76.31,104.27,76.58,104.12,76.86Z"/><path class="cls-194" d="M104.54,78.14l-.42-1.28Z"/><path class="cls-167" d="M106.67,82.39l.84.43c-.13.28-.27.57-.42.84Z"/><path class="cls-231" d="M113.51,73.05l-1.28.42h0l1.28-.43Z"/><path class="cls-230" d="M103.33,74.34a2.76,2.76,0,0,1,2.92-1.76A2.8,2.8,0,0,1,103.33,74.34Z"/><path class="cls-230" d="M100.75,73a2,2,0,0,1,1.31,1.68A1.92,1.92,0,0,1,100.75,73Z"/><path class="cls-230" d="M100.37,71.73l.37,1.28C100.62,72.58,100.49,72.16,100.37,71.73Z"/></g></g></svg>