<svg xmlns="http://www.w3.org/2000/svg" xmlns:xlink="http://www.w3.org/1999/xlink" viewBox="0 0 612.38 324.99"><defs><style>.cls-1{isolation:isolate;}.cls-2{fill:url(#New_Gradient_Swatch_1);}.cls-3{fill:url(#New_Gradient_Swatch_1-2);}.cls-4{fill:url(#New_Gradient_Swatch_1-3);}.cls-5,.cls-6{opacity:0.5;}.cls-5,.cls-6,.cls-7{mix-blend-mode:multiply;}.cls-5{fill:url(#Degradado_sin_nombre_5);}.cls-6{fill:url(#Degradado_sin_nombre_5-2);}.cls-7{opacity:0.75;fill:url(#Degradado_sin_nombre_5-3);}.cls-8{fill:url(#New_Gradient_Swatch_1-4);}.cls-9{fill:#2a2b2a;}.cls-10{fill:url(#New_Gradient_Swatch_1-5);}</style><linearGradient id="New_Gradient_Swatch_1" x1="10.43" y1="93.33" x2="386.8" y2="340.9" gradientUnits="userSpaceOnUse"><stop offset="0" stop-color="#238843"/><stop offset="1" stop-color="#c8eb87"/></linearGradient><linearGradient id="New_Gradient_Swatch_1-2" x1="264.15" y1="85.33" x2="424.33" y2="85.33" xlink:href="#New_Gradient_Swatch_1"/><linearGradient id="New_Gradient_Swatch_1-3" x1="114.36" y1="-64.66" x2="490.73" y2="182.91" gradientTransform="translate(114.28 -185.66) rotate(45)" xlink:href="#New_Gradient_Swatch_1"/><linearGradient id="Degradado_sin_nombre_5" x1="173.64" y1="160.68" x2="185.07" y2="134.41" gradientUnits="userSpaceOnUse"><stop offset="0" stop-color="#fff"/><stop offset="1" stop-color="#4e4e4c"/></linearGradient><linearGradient id="Degradado_sin_nombre_5-2" x1="307.39" y1="92.28" x2="275.35" y2="88.46" xlink:href="#Degradado_sin_nombre_5"/><linearGradient id="Degradado_sin_nombre_5-3" x1="272.45" y1="53.4" x2="261.85" y2="64.12" xlink:href="#Degradado_sin_nombre_5"/><linearGradient id="New_Gradient_Swatch_1-4" x1="59.22" y1="19.16" x2="435.59" y2="266.73" xlink:href="#New_Gradient_Swatch_1"/><linearGradient id="New_Gradient_Swatch_1-5" x1="402.93" y1="245.47" x2="611.9" y2="245.47" xlink:href="#New_Gradient_Swatch_1"/></defs><title>Asset 16</title><g class="cls-1"><g id="Layer_2" data-name="Layer 2"><g id="Layer_1-2" data-name="Layer 1"><path class="cls-2" d="M204.25,324.9c-9.42-3.22-15.94-10.32-21.51-17.78a102.06,102.06,0,0,1-12.64-24.81,187.61,187.61,0,0,1-10.51-54.46,218,218,0,0,1,.48-27.91l2.14-26.59,4.26-53.18a16.65,16.65,0,1,1,33.2,2.67,17.27,17.27,0,0,1-.29,2l-10.81,52.24-5.4,26.12a213.68,213.68,0,0,0-4.23,25.09,172.59,172.59,0,0,0,2,50.89,93.3,93.3,0,0,0,8,24.11,60.91,60.91,0,0,0,6.86,10.59,31.6,31.6,0,0,0,9.42,7.91l.29.14a1.59,1.59,0,0,1-1.24,2.93Z"/><path class="cls-3" d="M423.56,69.18a2,2,0,0,1,.63.82c.46,1.11-.29,1.9-1.11,2.53-1.79,1.39-3.47,2.87-5.35,4.14a76.48,76.48,0,0,1-8,4.65c-5.39,2.77-10.73,5.53-16.4,7.77-17,6.72-35.19,10.34-53.4,11.82q-4.65.39-9.31.58c-17.86.75-35.87-.31-53.31-4.23-3.91-.88-7.91-2-10.77-5a9.15,9.15,0,0,1-1.68-2.5c-2.76-6.29,2.78-10.85,8.13-11.35,4-.38,8,1,11.9,2.24a190.12,190.12,0,0,0,58.18,8.92,194.54,194.54,0,0,0,59.59-9.5,62.4,62.4,0,0,0,11.64-5,33.62,33.62,0,0,0,4.29-2.9,23,23,0,0,0,1.89-1.67c.66-.65,1.14-1.36,2.11-1.55A1.21,1.21,0,0,1,423.56,69.18Z"/><circle class="cls-4" cx="281.24" cy="45.11" r="25.6" transform="translate(50.47 212.08) rotate(-45)"/><path class="cls-5" d="M196.48,138.9A97.68,97.68,0,0,1,166,126.18l-3.58,44.6,5.81,2.09c6.52,2.52,13.15,4.73,19.83,6.75l.52-2.5Z"/><path class="cls-6" d="M311.89,94c0-.7.16-1.37.18-2.06s0-1.28,0-1.91a13.37,13.37,0,0,0-.22-2.53,2.63,2.63,0,0,0-.09-.3l-.77-.11-8.74-1.62c-2.88-.67-5.78-1.22-8.63-2s-5.69-1.47-8.48-2.33c-1.53-.46-3.11-1-4.62-1.47a38.37,38.37,0,0,1,.84,6.11,34.12,34.12,0,0,1-1.6,12L281,98c3.15.62,6.31,1.12,9.46,1.58s6.31.78,9.46,1.17l9.47.76c.22,0,.44,0,.66,0a11.19,11.19,0,0,0,.79-1.75A22,22,0,0,0,311.89,94Z"/><path class="cls-7" d="M257,37a25.5,25.5,0,0,0-1.33,8.09c0,.84,0,1.66.12,2.48A84.83,84.83,0,0,1,268.1,57.8,47.61,47.61,0,0,1,276.58,69c.25.45.45,1,.68,1.41a26.17,26.17,0,0,0,4,.34,25.33,25.33,0,0,0,6.67-.91c-2.53-7.51-6-14.74-11.13-20.72A36.23,36.23,0,0,0,257,37Z"/><path class="cls-8" d="M136.42,95.84c17.89,2.3,35.88,4.16,53.76,6.29,12.59,1.51,25.64,3,37.56-2a26.27,26.27,0,0,0,11.41-8.9c9.89-14-3.22-24.65-12.51-34a181.81,181.81,0,0,0-24.85-20.28A357.87,357.87,0,0,0,157.93,10.7c-2.26-1.14-4.62-2.33-5.8-4.71a4.31,4.31,0,0,1,.13-4.27C154.06-1,158,0,160.9,1.24c28.31,12,56.71,24.07,83.35,39.46,9.63,5.56,19.16,11.67,26.42,20.09s12.08,19.51,10.78,30.56c-2.09,17.74-18.38,32.4-33.39,40.29-16.94,8.91-37.15,9.9-55.79,7.47-34.87-4.55-70.39-14.55-103.91-24.91A858.83,858.83,0,0,1,2.7,82.52,4.49,4.49,0,0,1,.5,76.35h0A4.44,4.44,0,0,1,5.31,74c32.2,6.17,65.32,11,97.54,16.75C114,92.76,125.18,94.39,136.42,95.84Z"/><path class="cls-9" d="M262.22,169.71H244.09V153.53h57.12v16.18H283.08v45.72H262.22Z"/><path class="cls-9" d="M345.69,204.64H322.17L318,215.43H296.79l27.06-61.9h20.51l27.06,61.9H349.85Zm-5.75-15-6-15.57-6,15.57Z"/><path class="cls-9" d="M374.78,153.53h20.87v45.71h27.94v16.19H374.78Z"/><path class="cls-9" d="M480.8,199.69v15.74H429.34v-61.9h50.31v15.74h-29.8v7.25H476v15H449.85v8.14Z"/><path class="cls-9" d="M549.86,153.53v61.9H532.71l-23.52-28.12v28.12H488.85v-61.9H506l23.52,28.12V153.53Z"/><path class="cls-9" d="M573.38,169.71H555.26V153.53h57.12v16.18H594.25v45.72H573.38Z"/><path class="cls-9" d="M253.17,235.54h-9.29v-1.69h20.45v1.69h-9.28v24.1h-1.88Z"/><path class="cls-9" d="M283.64,252.38h-15l-3.28,7.26h-2l11.87-25.79h1.88L289,259.64h-2Zm-.7-1.58-6.78-14.89-6.74,14.89Z"/><path class="cls-9" d="M314.66,233.85v25.79h-1.55l-17.57-22.4v22.4h-1.88V233.85h1.58l17.54,22.4v-22.4Z"/><path class="cls-9" d="M328.59,235.54H319.3v-1.69h20.45v1.69h-9.28v24.1h-1.88Z"/><path class="cls-9" d="M362.3,259.64,356.14,251a18.27,18.27,0,0,1-2.5.18h-7.37v8.44h-1.88V233.85h9.25c6.48,0,10.39,3.24,10.39,8.69a7.91,7.91,0,0,1-6,8.07l6.44,9Zm-8.66-10.1c5.53,0,8.47-2.58,8.47-7s-2.94-7-8.47-7h-7.37v14Z"/><path class="cls-9" d="M386.87,252.38h-15l-3.27,7.26h-2l11.86-25.79h1.88l11.86,25.79h-2Zm-.7-1.58-6.78-14.89-6.74,14.89Z"/><rect class="cls-10" x="402.93" y="244.62" width="208.97" height="1.71"/></g></g></g></svg>