<svg xmlns="http://www.w3.org/2000/svg" viewBox="0 0 370.99 138.86"><defs><style>.cls-1{fill:#d88916;}</style></defs><title>Asset 8</title><g id="Layer_2" data-name="Layer 2"><g id="Layer_3" data-name="Layer 3"><path class="cls-1" d="M41,54.67H36.63V69.75a24,24,0,0,0-6.75-2.38,32.69,32.69,0,0,0-7.14-1A26,26,0,0,0,10.56,69q-2.77,1.47-2.78,3.85Q7.78,76,11.11,76a16.35,16.35,0,0,0,5.28-1.19c1.4-.5,3.2-1.14,5.4-1.9a17.06,17.06,0,0,1,4.92-.48c4.57,0,8,1.42,10.23,4.25a7.33,7.33,0,0,1,1.63,4.76q0,6.3-7.94,9.92a18,18,0,0,1-6.26,1.7q2.85,2.86,5.43,2.86a7.36,7.36,0,0,0,1.79-.24l4,6.55c-.82.71-2.49,1.07-5,1.07a7.2,7.2,0,0,1-5.24-2.1,26.52,26.52,0,0,1-3.26-4.8q-1.78-3.14-3-3.18Q11.74,93,7.78,90.58a4.75,4.75,0,0,1-2.5-4.24c0-2.22,1.32-3.34,4-3.34,1,0,3,.77,6.13,2.29a18.56,18.56,0,0,0,7.68,2.28,23.28,23.28,0,0,0,11.3-2.86c1.72-.92,2.58-2.06,2.58-3.41,0-2-1.58-3-4.76-3q-1.47,0-9.48,2.15a35.27,35.27,0,0,1-5.79,1.27q-6.32,0-10.4-6a10.57,10.57,0,0,1-2-6.15q0-6.7,9.16-9a28.81,28.81,0,0,1,7.1-1,45.57,45.57,0,0,1,10.8,1.87V54.67H0V49.91H41Z"/><path class="cls-1" d="M111.6,54.67H53.71v6.39a.43.43,0,0,1,.31.16.43.43,0,0,0,.28.16c-.21,0-.33,0-.35,0s2-.56,5.91-1.27a24.46,24.46,0,0,1,4.32-.4q8.92,0,11.47,5Q77.36,68,77.36,78.12V93.4q-.84-.32-6.31-2.58c0-.84-.18-1.39-.52-1.63-1.4.83-2.55,1.45-3.45,1.87a23.09,23.09,0,0,1-10,2q-7.82,0-12.06-4.92A7.89,7.89,0,0,1,43,82.85q0-3.3,3.26-6.55A21.25,21.25,0,0,1,61.92,70a14.72,14.72,0,0,1,9.13,2.62V69a10,10,0,0,0-3.4-3,10.38,10.38,0,0,0-4.5-.67,31.61,31.61,0,0,0-11.7,2.34q-2.39,1-4.65,1.79v-3c.35-.29.85-.73,1.51-1.31l.2-.24V54.67H40.38V49.91H111.6ZM71.05,79.83c0-1.16-1.39-2.21-4.17-3.13a18.84,18.84,0,0,0-5.75-1.15,16.6,16.6,0,0,0-13.42,6c-1.34,1.61-2,2.93-2,4,.56,1.94,2.74,2.9,6.55,2.9a25.59,25.59,0,0,0,13.49-3.69C69.27,82.61,71.05,81,71.05,79.83Z"/><path class="cls-1" d="M146,54.67H119.61v6.39a.45.45,0,0,1,.32.16.43.43,0,0,0,.28.16c-.22,0-.33,0-.36,0s2-.56,5.91-1.27a24.65,24.65,0,0,1,4.33-.4q8.92,0,11.46,5,1.71,3.35,1.71,13.45V93.4c-.55-.21-2.66-1.07-6.31-2.58,0-.84-.17-1.39-.51-1.63-1.41.83-2.56,1.45-3.46,1.87a23,23,0,0,1-10,2q-7.81,0-12.06-4.92a7.92,7.92,0,0,1-2.06-5.31q0-3.3,3.25-6.55A21.27,21.27,0,0,1,127.83,70q5.67,0,9.12,2.62V69a9.86,9.86,0,0,0-3.39-3,10.41,10.41,0,0,0-4.5-.67,31.7,31.7,0,0,0-11.71,2.34c-1.59.66-3.13,1.26-4.64,1.79v-3l1.51-1.31c.1-.14.17-.21.19-.24V54.67h-8.13V49.91H146ZM137,79.83c0-1.16-1.39-2.21-4.16-3.13A18.89,18.89,0,0,0,127,75.55a16.6,16.6,0,0,0-13.41,6c-1.35,1.61-2,2.93-2,4,.55,1.94,2.73,2.9,6.54,2.9a25.65,25.65,0,0,0,13.5-3.69Q137,81.54,137,79.83Z"/><path class="cls-1" d="M186.37,54.67H146.26V49.91h40.11ZM183.08,69q0,2.34-2.82,5.28a17,17,0,0,1-5,3.73l-5.95-6.75a10.25,10.25,0,0,0,5.12-2c1.85-1.33,2.78-2.83,2.78-4.53,0-.9-.59-1.66-1.75-2.3a6,6,0,0,0-3-.87c-2,0-4.22,1-6.54,2.93q-7.11,6-7.11,13.18V94.47l-7.61-4V61.14h7.61v3c1.14-1.14,3.51-2.33,7.09-3.57a16.36,16.36,0,0,1,5.41-.92,12.77,12.77,0,0,1,9.8,4.41A7,7,0,0,1,183.08,69Z"/><path class="cls-1" d="M228.73,54.67H186.07V49.91h42.66ZM220.2,72.13q0-9.52-9-9.52-6.66,0-11.15,7a24,24,0,0,0-4,13.18V94.31l-6.51-3.41V61.06h6.83v4.72l3.53-2.65a16.14,16.14,0,0,1,9.88-3.54,14.72,14.72,0,0,1,11.71,5.48,18.47,18.47,0,0,1,4.36,12.34q0,9-7.62,17.3l-7.66-4.8c2.38-2.36,4.41-4.52,6.07-6.51Q220.2,79.2,220.2,72.13Z"/><path class="cls-1" d="M267.71,54.67H241.28v6.39a.43.43,0,0,1,.32.16.43.43,0,0,0,.28.16.78.78,0,0,1-.36,0c0-.13,2-.56,5.92-1.27a24.46,24.46,0,0,1,4.32-.4q8.92,0,11.47,5,1.69,3.35,1.7,13.45V93.4q-.82-.32-6.31-2.58c0-.84-.17-1.39-.51-1.63-1.4.83-2.55,1.45-3.45,1.87a23.09,23.09,0,0,1-10,2q-7.81,0-12.07-4.92a7.92,7.92,0,0,1-2.06-5.31c0-2.2,1.09-4.38,3.25-6.55A21.29,21.29,0,0,1,249.5,70q5.67,0,9.12,2.62V69a9.86,9.86,0,0,0-3.39-3,10.41,10.41,0,0,0-4.5-.67A31.7,31.7,0,0,0,239,67.65q-2.37,1-4.64,1.79v-3l1.51-1.31a1.77,1.77,0,0,1,.2-.24V54.67H228V49.91h39.76Zm-9.09,25.16c0-1.16-1.38-2.21-4.16-3.13a18.84,18.84,0,0,0-5.75-1.15,16.6,16.6,0,0,0-13.42,6c-1.35,1.61-2,2.93-2,4,.55,1.94,2.74,2.9,6.55,2.9a25.61,25.61,0,0,0,13.49-3.69Q258.62,81.54,258.62,79.83Z"/><path class="cls-1" d="M308.76,54.67H267.57V49.91h61.26v4.76h-13"/><path class="cls-1" d="M371,54.67H344.56v6.39a.45.45,0,0,1,.32.16.43.43,0,0,0,.28.16.78.78,0,0,1-.36,0c0-.13,2-.56,5.91-1.27a24.65,24.65,0,0,1,4.33-.4q8.93,0,11.47,5,1.69,3.35,1.7,13.45V93.4c-.55-.21-2.66-1.07-6.31-2.58,0-.84-.17-1.39-.51-1.63-1.41.83-2.56,1.45-3.46,1.87a23,23,0,0,1-10,2q-7.82,0-12.06-4.92a7.92,7.92,0,0,1-2.06-5.31q0-3.3,3.25-6.55A21.27,21.27,0,0,1,352.78,70q5.67,0,9.12,2.62V69a9.86,9.86,0,0,0-3.39-3,10.41,10.41,0,0,0-4.5-.67,31.7,31.7,0,0,0-11.71,2.34c-1.59.66-3.13,1.26-4.64,1.79v-3l1.51-1.31a1.77,1.77,0,0,1,.2-.24V54.67h-8.14V49.91H371ZM361.9,79.83c0-1.16-1.39-2.21-4.16-3.13A18.84,18.84,0,0,0,352,75.55a16.6,16.6,0,0,0-13.41,6c-1.35,1.61-2,2.93-2,4,.55,1.94,2.74,2.9,6.54,2.9a25.62,25.62,0,0,0,13.5-3.69Q361.9,81.54,361.9,79.83Z"/><path class="cls-1" d="M96.71,39.7c2-10.23,5.3-20.91,11.66-28.18S122.54,0,128.37,0c4.85,0,8.87,3.64,8.71,5.91,0,2-1.81,4.54-3.41,5.76a2.7,2.7,0,0,1-3.71,0c-2.8-2.81-5.91-4.32-9-4.32-5.61,0-10.15,6.89-14.17,32.35,0,0-5.38,30.15-8.18,45.22C93.52,110,87.92,121.66,81,129.39c-6.52,7.2-12.58,9.47-16.14,9.47-4.24,0-9.31-3.26-9.16-6.36,0-1.52,1.66-4,3.71-5.84,1.36-1,2-.68,3,.15a14.66,14.66,0,0,0,8.41,3.26,9.07,9.07,0,0,0,6.14-2.5c2.2-2.19,6.06-8.56,11.06-37.42C91.33,71.36,96.71,39.7,96.71,39.7Z"/><path class="cls-1" d="M301.54,71.13q0-9.52-9-9.52-6.68,0-11.15,7a24,24,0,0,0-4,13.17V93.31l-6.51-3.41V54.07h6.82V64.78l3.54-2.66a16.16,16.16,0,0,1,9.88-3.53,14.69,14.69,0,0,1,11.7,5.47,18.51,18.51,0,0,1,4.37,12.35q0,9-7.62,17.3l-7.66-4.81q3.57-3.53,6.07-6.5Q301.54,78.19,301.54,71.13Z"/><path class="cls-1" d="M305.23,62.12a16.16,16.16,0,0,1,9.88-3.53,14.71,14.71,0,0,1,11.71,5.47,18.5,18.5,0,0,1,4.36,12.35q0,9-7.62,17.3L315.9,88.9q3.57-3.53,6.07-6.5,3.54-4.22,3.54-11.27,0-9.52-9-9.52A11.64,11.64,0,0,0,308.28,65a20.91,20.91,0,0,0-3.58,3.84l-3.08-4Z"/><rect class="cls-1" y="49.91" width="370.99" height="4.76"/></g></g></svg>