<svg id="Layer_1" data-name="Layer 1" xmlns="http://www.w3.org/2000/svg" xmlns:xlink="http://www.w3.org/1999/xlink" viewBox="0 0 1200 1200"><defs><style>.cls-1{fill:url(#linear-gradient);}.cls-2{fill:url(#linear-gradient-2);}.cls-3{fill:url(#linear-gradient-3);}.cls-4{fill:url(#linear-gradient-4);}.cls-5{fill:url(#linear-gradient-5);}.cls-6{fill:url(#linear-gradient-6);}.cls-7{fill:url(#linear-gradient-7);}.cls-8{fill:url(#linear-gradient-8);}.cls-9{fill:url(#linear-gradient-9);}.cls-10{fill:url(#linear-gradient-10);}.cls-11{fill:url(#linear-gradient-11);}.cls-12{fill:url(#linear-gradient-12);}</style><linearGradient id="linear-gradient" x1="81.36" y1="706.52" x2="81.36" y2="538.66" gradientUnits="userSpaceOnUse"><stop offset="0" stop-color="#b2082d"/><stop offset="0.09" stop-color="#bd162d"/><stop offset="0.36" stop-color="#d93b2d"/><stop offset="0.61" stop-color="#ee562d"/><stop offset="0.83" stop-color="#fb662d"/><stop offset="1" stop-color="#ff6c2d"/></linearGradient><linearGradient id="linear-gradient-2" x1="255.82" y1="675.34" x2="255.82" y2="538.66" xlink:href="#linear-gradient"/><linearGradient id="linear-gradient-3" x1="413.51" y1="675.34" x2="413.51" y2="538.66" xlink:href="#linear-gradient"/><linearGradient id="linear-gradient-4" x1="539.71" y1="678.71" x2="539.71" y2="538.66" xlink:href="#linear-gradient"/><linearGradient id="linear-gradient-5" x1="668.85" y1="679.45" x2="668.85" y2="538.66" xlink:href="#linear-gradient"/><linearGradient id="linear-gradient-6" x1="795.92" y1="675.34" x2="795.92" y2="538.66" xlink:href="#linear-gradient"/><linearGradient id="linear-gradient-7" x1="954.24" y1="553.62" x2="954.24" y2="538.66" xlink:href="#linear-gradient"/><linearGradient id="linear-gradient-8" x1="1120.52" y1="675.34" x2="1120.52" y2="538.66" xlink:href="#linear-gradient"/><linearGradient id="linear-gradient-9" x1="319.87" y1="818.22" x2="319.87" y2="381.78" xlink:href="#linear-gradient"/><linearGradient id="linear-gradient-10" x1="925.51" y1="676.29" x2="925.51" y2="551.73" xlink:href="#linear-gradient"/><linearGradient id="linear-gradient-11" x1="1011.42" y1="676.29" x2="1011.42" y2="565.93" xlink:href="#linear-gradient"/><linearGradient id="linear-gradient-12" x1="600" y1="553.62" x2="600" y2="538.66" xlink:href="#linear-gradient"/></defs><title>safarnama</title><path class="cls-1" d="M145.71,553.62H132.12V601q-7.37-4.37-21.21-7.48a101.59,101.59,0,0,0-22.45-3q-22.81,0-38.28,8.1-8.73,4.62-8.73,12.1,0,10,10.48,10,6.36,0,16.58-3.74,6.61-2.37,17-6,4.36-1.5,15.47-1.5,21.57,0,32.17,13.35a23.14,23.14,0,0,1,5.12,15q0,19.83-24.95,31.18a56.35,56.35,0,0,1-19.7,5.36q9,9,17.08,9a23.21,23.21,0,0,0,5.62-.75l12.59,20.58Q125,706.51,113,706.52a22.65,22.65,0,0,1-16.47-6.61Q93,696.28,86.35,684.82q-5.61-9.86-9.36-10-23.07-.63-35.54-8.36-7.86-4.86-7.85-13.34,0-10.47,12.47-10.48,4.6,0,19.26,7.18T89.47,657A73.54,73.54,0,0,0,125,648q8.12-4.37,8.11-10.73,0-9.48-15-9.48-4.62,0-29.81,6.74-14.84,4-18.2,4-19.85,0-32.68-18.71a33.2,33.2,0,0,1-6.23-19.33Q31.1,579.45,60,572.08a91.09,91.09,0,0,1,22.32-3q12,0,33.93,5.86V553.62H17v-15h128.7Z"/><path class="cls-2" d="M367.75,553.62H185.8V573.7a1.39,1.39,0,0,1,1,.5,1.41,1.41,0,0,0,.88.5c-.67,0-1,0-1.12-.13q0-.62,18.58-4a75.91,75.91,0,0,1,13.59-1.24q28.07,0,36,15.71,5.37,10.47,5.37,42.28v48q-2.62-1-19.83-8.11c0-2.66-.55-4.36-1.63-5.11q-6.6,3.87-10.84,5.86-13.47,6.36-31.31,6.36-24.56,0-37.91-15.46a24.9,24.9,0,0,1-6.48-16.71q0-10.35,10.22-20.58,19.83-19.83,49.26-19.83,17.83,0,28.69,8.23V598.52q-5.49-7-10.67-9.35t-14.15-2.12a99.48,99.48,0,0,0-36.79,7.35q-7.49,3.12-14.59,5.62v-9.26c1.08-.91,2.66-2.29,4.74-4.12.33-.42.54-.67.62-.75V553.62H143.9v-15H367.75ZM240.3,632.69q0-5.49-13.1-9.85-10.84-3.62-18.08-3.62-26.33,0-42.15,19-6.36,7.61-6.36,12.47,2.61,9.11,20.57,9.1a80.51,80.51,0,0,0,42.41-11.6Q240.3,638.05,240.3,632.69Z"/><path class="cls-3" d="M476,553.62H392.93V573.7a1.4,1.4,0,0,1,1,.5,1.41,1.41,0,0,0,.88.5,2.42,2.42,0,0,1-1.13-.13q0-.62,18.59-4a75.91,75.91,0,0,1,13.59-1.24q28.06,0,36,15.71,5.36,10.47,5.36,42.28v48q-2.61-1-19.83-8.11,0-4-1.62-5.11Q439.21,666,435,668q-13.47,6.36-31.3,6.36-24.57,0-37.91-15.46a24.91,24.91,0,0,1-6.49-16.71q0-10.35,10.23-20.58,19.83-19.83,49.26-19.83,17.83,0,28.68,8.23V598.52q-5.49-7-10.66-9.35t-14.16-2.12a99.47,99.47,0,0,0-36.78,7.35q-7.49,3.12-14.59,5.62v-9.26c1.07-.91,2.66-2.29,4.73-4.12.34-.42.54-.67.63-.75V553.62H351v-15H476Zm-28.56,79.07q0-5.49-13.09-9.85-10.84-3.62-18.08-3.62-26.33,0-42.16,19-6.36,7.61-6.35,12.47,2.61,9.11,20.57,9.1a80.45,80.45,0,0,0,42.4-11.6Q447.43,638.05,447.43,632.69Z"/><path class="cls-4" d="M602.75,553.62H476.67v-15H602.75Zm-10.35,44.9q0,7.35-8.85,16.58a53.1,53.1,0,0,1-15.72,11.73l-18.7-21.2a32,32,0,0,0,16.09-6.24q8.71-6.24,8.73-14.22,0-4.23-5.49-7.23a18.57,18.57,0,0,0-9.35-2.74q-9.61,0-20.58,9.23-22.32,18.71-22.32,41.4v52.88l-24-12.48V574h24v9.48q5.37-5.37,22.26-11.23a51.59,51.59,0,0,1,17-2.86q18.15,0,30.78,13.84A22.14,22.14,0,0,1,592.4,598.52Z"/><path class="cls-5" d="M735.88,553.62H601.81v-15H735.88Zm-26.82,54.87q0-29.93-28.3-29.92-21,0-35,21.94a75.47,75.47,0,0,0-12.47,41.41v36.29l-20.45-10.73V573.7h21.45v14.84l11.1-8.35q14.71-11.1,31-11.1,22.2,0,36.79,17.21,13.73,16.2,13.72,38.78,0,28.3-23.95,54.37l-24.06-15.09q11.22-11.08,19.08-20.45Q709.06,630.7,709.06,608.49Z"/><path class="cls-6" d="M858.4,553.62h-83V573.7a1.39,1.39,0,0,1,1,.5,1.41,1.41,0,0,0,.88.5c-.67,0-1,0-1.12-.13q0-.62,18.58-4a75.91,75.91,0,0,1,13.59-1.24q28.07,0,36,15.71,5.36,10.47,5.36,42.28v48q-2.61-1-19.83-8.11,0-4-1.62-5.11-6.6,3.87-10.85,5.86-13.46,6.36-31.3,6.36-24.57,0-37.91-15.46a24.91,24.91,0,0,1-6.49-16.71q0-10.35,10.23-20.58,19.83-19.83,49.26-19.83,17.83,0,28.68,8.23V598.52q-5.48-7-10.66-9.35T805,587.05a99.48,99.48,0,0,0-36.79,7.35q-7.49,3.12-14.59,5.62v-9.26c1.08-.91,2.66-2.29,4.73-4.12.34-.42.54-.67.63-.75V553.62H733.45v-15H858.4Zm-28.56,79.07q0-5.49-13.09-9.85-10.85-3.62-18.08-3.62-26.32,0-42.16,19-6.36,7.61-6.35,12.47,2.61,9.11,20.57,9.1a80.45,80.45,0,0,0,42.4-11.6Q829.84,638.05,829.84,632.69Z"/><path class="cls-7" d="M987.41,553.62H858v-15h192.55v15h-40.9"/><path class="cls-8" d="M1183,553.62h-83.06V573.7a1.4,1.4,0,0,1,1,.5,1.39,1.39,0,0,0,.87.5,2.37,2.37,0,0,1-1.12-.13q0-.62,18.58-4a76.08,76.08,0,0,1,13.59-1.24q28.07,0,36.05,15.71,5.35,10.47,5.36,42.28v48q-2.62-1-19.83-8.11,0-4-1.62-5.11Q1146.21,666,1142,668q-13.47,6.36-31.3,6.36-24.57,0-37.91-15.46a24.86,24.86,0,0,1-6.49-16.71q0-10.35,10.23-20.58,19.83-19.83,49.26-19.83,17.84,0,28.68,8.23V598.52q-5.49-7-10.66-9.35t-14.16-2.12a99.47,99.47,0,0,0-36.78,7.35q-7.48,3.12-14.6,5.62v-9.26c1.08-.91,2.66-2.29,4.74-4.12a8.24,8.24,0,0,1,.63-.75V553.62H1058v-15h125Zm-28.56,79.07q0-5.49-13.09-9.85-10.86-3.62-18.08-3.62-26.32,0-42.16,19-6.36,7.61-6.36,12.47,2.63,9.11,20.58,9.1a80.48,80.48,0,0,0,42.4-11.6Q1154.44,638.05,1154.44,632.69Z"/><path class="cls-9" d="M320.94,506.55c6.19-32.15,16.67-65.72,36.67-88.57s44.52-36.2,62.86-36.2c15.24,0,27.85,11.44,27.38,18.58,0,6.43-5.72,14.28-10.72,18.09-3.81,2.86-8.33,3.34-11.67,0-8.81-8.81-18.57-13.57-28.33-13.57-17.62,0-31.9,21.67-44.52,101.67,0,0-16.91,94.76-25.72,142.14-15.95,78.81-33.57,115.48-55.47,139.76-20.48,22.62-39.52,29.77-50.72,29.77-13.33,0-29.28-10.24-28.8-20,0-4.77,5.23-12.63,11.66-18.34,4.29-3.09,6.43-2.14,9.29.48,6.9,6.19,19.05,10.24,26.42,10.24a28.59,28.59,0,0,0,19.29-7.86c6.91-6.91,19.05-26.91,34.76-117.62C304,606.07,320.94,506.55,320.94,506.55Z"/><path class="cls-10" d="M964.73,605.34q0-29.94-28.31-29.93-20.94,0-35,22a75.33,75.33,0,0,0-12.47,41.4v36.29l-20.45-10.73V551.73H889.9v33.65L901,577q14.71-11.1,31.06-11.1,22.19,0,36.79,17.21,13.71,16.22,13.72,38.78,0,28.32-24,54.37l-24.07-15.08q11.22-11.1,19.08-20.46Q964.73,627.54,964.73,605.34Z"/><path class="cls-11" d="M976.32,577q14.71-11.1,31.06-11.1,22.19,0,36.78,17.21,13.72,16.22,13.72,38.78,0,28.32-23.94,54.37l-24.07-15.08q11.22-11.1,19.08-20.46,11.1-13.21,11.1-35.41,0-29.94-28.31-29.93-14.57,0-25.82,10.61s-7.15,5.85-11.27,12.07L965,585.54Z"/><rect class="cls-12" x="17" y="538.66" width="1166" height="14.96"/></svg>